SplineFontDB: 3.0
FontName: Muktamsiddham
FullName: Muktamsiddham
FamilyName: Muktamsiddham
Weight: Medium
Copyright: Copyright (c) 2010, MihailJP (http://twitter.com/MihailJP)
UComments: "Font preparation:+AAoA-1. Select all and expand their strokes.+AAoA     Elliptical, width 100:40,+AAoA     Angle -30, square cap, round join.+AAoA-2. Add extrema and round to int.+AAoA-3. Simplify and round to int.+AAoA-4. Remove overlaps and round to int.+AAoA-5. Redo 3.+AAoA-6. Redo 2." 
Version: 0.1.1
StrokeWidth: 70
ItalicAngle: 0
UnderlinePosition: -100
UnderlineWidth: 50
Ascent: 800
Descent: 200
LayerCount: 2
Layer: 0 0 "Background"  1
Layer: 1 0 "Foreground"  0
NeedsXUIDChange: 1
XUID: [1021 631 1514651636 13251322]
FSType: 8
OS2Version: 4
OS2_WeightWidthSlopeOnly: 0
OS2_UseTypoMetrics: 1
CreationTime: 1272671396
ModificationTime: 1288038643
PfmFamily: 17
TTFWeight: 500
TTFWidth: 5
LineGap: 90
VLineGap: 0
OS2TypoAscent: 0
OS2TypoAOffset: 1
OS2TypoDescent: 0
OS2TypoDOffset: 1
OS2TypoLinegap: 90
OS2WinAscent: 200
OS2WinAOffset: 1
OS2WinDescent: 200
OS2WinDOffset: 1
HheadAscent: 0
HheadAOffset: 1
HheadDescent: 0
HheadDOffset: 1
OS2Vendor: 'PfEd'
Lookup: 2 0 0 "RRT oT auT Decomposition"  {"RRT oT auT Decomposition-1"  } [' RQD' ('deva' <'dflt' > ) 'ccmp' ('deva' <'dflt' > ) ]
Lookup: 4 0 0 "kSa"  {"kSa-1"  } ['akhn' ('deva' <'dflt' > ) ]
Lookup: 4 0 0 "repha"  {"repha-1"  } ['rphf' ('deva' <'dflt' > ) ]
Lookup: 4 0 0 "raphala"  {"raphala-1"  } ['blwf' ('deva' <'dflt' > ) ]
Lookup: 4 0 0 "ravattu Conjunction"  {"ravattu Conjunction-1"  } ['vatu' ('deva' <'dflt' > ) ]
Lookup: 5 0 0 "iT Contextual Forms"  {"iT Contextual Forms-1"  } ['pres' ('deva' <'dflt' > ) ]
Lookup: 5 0 0 "uT UT RT Contextual Forms"  {"uT UT RT Contextual Forms-1"  } ['blws' ('deva' <'dflt' > ) ]
Lookup: 4 0 0 "RT RRT Exceptional Forms"  {"RT RRT Exceptional Forms-1"  } ['blws' ('deva' <'dflt' > ) ]
Lookup: 5 0 0 "eT aiT Contextual Forms"  {"eT aiT Contextual Forms-1"  } ['abvs' ('deva' <'dflt' > ) ]

StartChar: akAra
Encoding: 0 2309 0
Width: 824
VWidth: 0
Flags: W
HStem: -3 60<165.632 268.116> 526 96<365.96 452.77>
VStem: 76 89<60.183 110.75> 320 88<121.243 361.327> 550 88<74.5676 249 329 530.011>
AnchorPoint: "bindu" 407 740 basechar 0
LayerCount: 2
Fore
SplineSet
408 622 m 0
 434 622 482 591 482 571 c 0
 482 567 481 564 479 563 c 0
 451 543 428 539 402 526 c 0
 397 524 392 521 385 519 c 1
 371 511 361 501 354 486 c 1
 438 458 502 394 549 329 c 1
 549 401 550 470 557 564 c 0
 558 590 573 601 582 619 c 2
 591 636 l 1
 678 587 l 1
 670 569 l 1
 658 546 646 539 645 522 c 0
 638 424 637 352 637 276 c 2
 638 103 l 1
 638 95 l 2
 638 78 639 62 639 50 c 0
 639 13 636 -4 608 -4 c 1
 645 -37 665 -51 713 -78 c 2
 757 -102 l 1
 741 -139 l 1
 697 -114 l 1
 626 -75 583 -43 526 9 c 0
 482 50 472 78 449 109 c 0
 447 112 444 118 444 123 c 0
 444 128 447 131 456 132 c 1
 458 132 l 2
 470 132 497 125 519 104 c 0
 531 93 540 82 547 74 c 1
 549 86 550 105 550 135 c 2
 550 143 l 1
 549 249 l 1
 526 255 l 1
 510 284 l 1
 454 380 393 428 373 433 c 0
 370 434 365 435 359 435 c 2
 356 435 l 2
 349 435 343 433 338 430 c 1
 394 404 l 1
 394 382 l 2
 394 309 408 253 408 192 c 0
 408 161 405 128 394 94 c 0
 374 30 333 -3 272 -3 c 2
 263 -3 l 1
 239 -2 201 0 155 21 c 0
 143 26 131 34 122 40 c 0
 84 66 76 90 76 106 c 0
 76 122 82 138 95 155 c 2
 108 171 l 1
 193 119 l 1
 181 103 l 2
 169 87 164 75 164 66 c 1
 164 66 165 64 165 63 c 0
 177 60 193 58 206 57 c 1
 212 57 l 2
 247 57 287 80 306 140 c 0
 316 172 320 202 320 232 c 0
 320 273 313 315 309 363 c 1
 301 345 294 332 288 323 c 0
 274 303 260 299 247 293 c 1
 231 278 210 262 187 248 c 0
 185 247 182 246 177 246 c 0
 167 246 152 249 133 261 c 0
 120 269 102 285 102 296 c 0
 102 298 103 300 105 302 c 0
 119 317 132 328 143 336 c 0
 151 341 158 346 165 349 c 1
 191 374 203 395 213 415 c 0
 220 430 225 444 231 455 c 1
 216 461 188 477 181 494 c 2
 129 620 l 1
 211 593 l 1
 218 593 204 592 204 592 c 1
 237 592 275 570 276 570 c 2
 281 570 l 1
 291 572 301 574 308 577 c 1
 318 583 330 588 342 592 c 1
 360 601 378 611 400 620 c 0
 403 621 405 622 408 622 c 0
255 502 m 1
 259 515 l 2
 260 519 263 525 265 530 c 1
 265 530 264 530 262 531 c 1
 257 530 249 525 249 521 c 0
 249 517 251 512 255 502 c 1
EndSplineSet
EndChar

StartChar: AkAra
Encoding: 1 2310 1
Width: 899
VWidth: 0
Flags: W
HStem: -3 60<165.632 268.116> 526 96<365.96 452.77>
VStem: 76 89<60.183 110.75> 320 88<121.243 361.327> 550 88<74.5676 249 329 382.875>
AnchorPoint: "bindu" 450 740 basechar 0
LayerCount: 2
Fore
SplineSet
731 555 m 1
 797 494 l 1
 767 492 l 1
 698 486 667 488 667 440 c 2
 667 433 l 1
 669 401 727 363 782 336 c 2
 827 314 l 1
 820 272 l 1
 776 294 l 2
 741 312 682 345 638 383 c 1
 637 346 637 311 637 276 c 2
 638 103 l 1
 638 95 l 2
 638 78 639 62 639 50 c 0
 639 13 636 -4 608 -4 c 1
 645 -37 665 -51 713 -78 c 2
 757 -102 l 1
 741 -139 l 1
 697 -114 l 1
 626 -75 583 -43 526 9 c 0
 482 50 472 78 449 109 c 0
 447 112 444 118 444 123 c 0
 444 128 447 131 456 132 c 1
 458 132 l 2
 470 132 497 125 519 104 c 0
 531 93 540 82 547 74 c 1
 549 86 550 105 550 135 c 2
 550 143 l 1
 549 249 l 1
 526 255 l 1
 510 284 l 1
 454 380 393 428 373 433 c 0
 370 434 365 435 359 435 c 2
 356 435 l 2
 349 435 343 433 338 430 c 1
 394 404 l 1
 394 382 l 2
 394 309 408 253 408 192 c 0
 408 161 405 128 394 94 c 0
 374 30 333 -3 272 -3 c 2
 263 -3 l 1
 239 -2 201 0 155 21 c 0
 143 26 131 34 122 40 c 0
 84 66 76 90 76 106 c 0
 76 122 82 138 95 155 c 2
 108 171 l 1
 193 119 l 1
 181 103 l 2
 169 87 164 75 164 66 c 1
 164 66 165 64 165 63 c 0
 177 60 193 58 206 57 c 1
 212 57 l 2
 247 57 287 80 306 140 c 0
 316 172 320 202 320 232 c 0
 320 273 313 315 309 363 c 1
 301 345 294 332 288 323 c 0
 274 303 260 299 247 293 c 1
 231 278 210 262 187 248 c 0
 185 247 182 246 177 246 c 0
 167 246 152 249 133 261 c 0
 120 269 102 285 102 296 c 0
 102 298 103 300 105 302 c 0
 119 317 132 328 143 336 c 0
 151 341 158 346 165 349 c 1
 191 374 203 395 213 415 c 0
 220 430 225 444 231 455 c 1
 216 461 188 477 181 494 c 2
 129 620 l 1
 211 593 l 1
 218 593 204 592 204 592 c 1
 237 592 275 570 276 570 c 2
 281 570 l 1
 291 572 301 574 308 577 c 1
 318 583 330 588 342 592 c 1
 360 601 378 611 400 620 c 0
 403 621 405 622 408 622 c 0
 434 622 482 591 482 571 c 0
 482 567 481 564 479 563 c 0
 451 543 428 539 402 526 c 0
 397 524 392 521 385 519 c 1
 371 511 361 501 354 486 c 1
 438 458 502 394 549 329 c 1
 549 401 550 470 557 564 c 0
 558 590 573 601 582 619 c 2
 591 636 l 1
 678 587 l 1
 670 569 l 2
 665 560 660 553 656 547 c 1
 670 549 685 550 701 552 c 2
 731 555 l 1
255 502 m 1
 259 515 l 2
 260 519 263 525 265 530 c 1
 265 530 264 530 262 531 c 1
 257 530 249 525 249 521 c 0
 249 517 251 512 255 502 c 1
EndSplineSet
EndChar

StartChar: it
Encoding: 2 2311 2
Width: 843
VWidth: 0
Flags: W
HStem: -31 61<353.207 457.444> 239 60<414.472 501.629> 328 60<230.605 315.061 557.605 649.266>
VStem: 140 88<395.469 454.861> 292 88<172.945 205.25> 352 88<421.773 478.827> 467 88<389.469 448.861> 530 88<120.3 208.084> 679 88<416.427 472.827>
AnchorPoint: "bindu" 442 740 basechar 0
LayerCount: 2
Fore
SplineSet
307 328 m 0xf480
 285 328 259 332 229 346 c 0
 219 351 211 356 204 360 c 0
 152 392 140 425 140 452 c 0
 140 515 223 549 257 604 c 0
 259 608 264 610 270 610 c 0
 282 610 299 602 310 596 c 0
 331 584 340 571 342 567 c 0
 359 535 440 481 440 423 c 0
 440 411 436 400 430 389 c 0
 406 349 359 328 307 328 c 0xf480
247 388 m 0
 280 388 323 405 344 439 c 0
 349 447 352 456 352 463 c 0
 352 481 341 493 316 519 c 1
 277 478 228 446 228 412 c 0
 228 403 230 395 233 390 c 1
 236 389 241 388 247 388 c 0
447 101 m 1
 370 115 l 1
 348 145 l 1
 348 145 292 180 292 213 c 0
 292 220 294 225 296 229 c 0
 320 272 354 299 409 299 c 0
 422 299 430 298 435 297 c 1
 438 297 l 1
 461 293 486 285 511 273 c 0
 580 241 618 193 618 153 c 0
 618 149 618 143 617 140 c 0
 603 56 558 -31 462 -31 c 0
 445 -31 423 -28 410 -25 c 0
 249 5 168 104 81 226 c 1
 60 256 l 1
 138 241 l 1
 159 212 l 2
 255 80 281 50 368 34 c 0
 375 33 383 31 393 30 c 1
 396 30 l 1
 396 30 397 29 402 29 c 0
 461 29 516 102 529 184 c 0
 530 187 530 188 530 193 c 0
 530 223 515 227 512 228 c 0
 506 231 483 239 469 239 c 0
 439 239 405 219 382 179 c 0
 381 177 380 175 380 173 c 1xf980
 385 169 409 154 426 131 c 2
 447 101 l 1
634 322 m 0
 612 322 586 326 556 340 c 0
 546 345 538 350 531 354 c 0
 479 386 467 419 467 446 c 0xf280
 467 509 550 543 584 598 c 0
 586 602 591 604 597 604 c 0
 609 604 626 596 637 590 c 0
 658 578 667 565 669 561 c 0
 686 529 767 475 767 417 c 0
 767 405 763 394 757 383 c 0
 733 343 686 322 634 322 c 0
574 382 m 0
 606 382 650 399 671 433 c 0
 676 441 679 450 679 457 c 0
 679 475 668 487 643 513 c 1
 604 472 555 440 555 406 c 0
 555 397 557 389 560 384 c 1
 563 383 568 382 574 382 c 0
EndSplineSet
EndChar

StartChar: It
Encoding: 3 2312 3
Width: 779
VWidth: 0
Flags: W
HStem: 236 58<353.395 435.141> 325 60<166.605 251.277 493.605 585.344>
VStem: 76 88<392.469 451.861> 288 88<418.773 475.827> 393 88<5.16321 78.5> 403 88<386.469 445.861> 471 88<91 164.566> 471 79<147 186.101> 615 88<412.773 469.827>
AnchorPoint: "bindu" 396 740 basechar 0
LayerCount: 2
Fore
SplineSet
241 325 m 0xf080
 219 325 195 329 165 343 c 0
 155 348 147 353 140 357 c 0
 88 389 76 422 76 449 c 0
 76 512 159 546 193 601 c 0
 195 605 200 607 206 607 c 0
 218 607 235 599 246 593 c 0
 267 581 276 568 278 564 c 0
 295 532 376 478 376 420 c 0
 376 408 372 397 366 386 c 0
 342 346 293 325 241 325 c 0xf080
183 385 m 0
 216 385 259 402 280 436 c 0
 285 444 288 453 288 460 c 0
 288 478 277 490 252 516 c 1
 213 475 164 443 164 409 c 0
 164 400 166 392 169 387 c 1
 172 386 177 385 183 385 c 0
425 232 m 1
 423 232 408 236 406 236 c 0
 377 236 343 214 318 176 c 1
 318 176 318 175 317 173 c 1
 323 169 342 156 356 137 c 2
 378 108 l 1
 300 121 l 1
 279 150 l 2
 278 151 252 167 237 187 c 0
 228 199 228 206 228 211 c 0
 228 217 229 222 232 226 c 0
 258 266 291 296 346 296 c 0
 358 296 366 295 371 294 c 1
 374 294 l 1
 381 293 385 291 388 290 c 0
 408 285 428 277 445 267 c 0
 513 228 531 181 550 148 c 0xf180
 550 147 551 147 551 147 c 1
 556 136 559 126 559 118 c 0xf280
 559 64 481 42 481 12 c 0
 481 0 485 -17 598 -71 c 1
 642 -93 l 1
 639 -136 l 1
 594 -115 l 1
 465 -53 393 7 393 52 c 0xf880
 393 105 471 127 471 158 c 0xf280
 471 173 432 226 425 232 c 1
570 319 m 0
 548 319 522 323 492 337 c 0
 482 342 474 347 467 351 c 0
 415 383 403 416 403 443 c 0xf480
 403 506 486 540 520 595 c 0
 522 599 527 601 533 601 c 0
 545 601 562 593 573 587 c 0
 594 575 603 562 605 558 c 0
 622 526 703 472 703 414 c 0
 703 402 699 391 693 380 c 0
 669 340 622 319 570 319 c 0
510 379 m 0
 543 379 586 396 607 430 c 0
 612 438 615 447 615 454 c 0
 615 472 604 484 579 510 c 1
 540 469 491 437 491 403 c 0
 491 394 493 386 496 381 c 1
 499 380 504 379 510 379 c 0
EndSplineSet
EndChar

StartChar: ut
Encoding: 4 2313 4
Width: 765
VWidth: 0
Flags: W
HStem: -15 60<370.159 491.464> 436 149<320.719 388.951>
VStem: 601 88<154.104 271.568>
AnchorPoint: "bindu" 433 740 basechar 0
LayerCount: 2
Fore
SplineSet
601 604 m 0
 627 604 674 573 674 553 c 0
 674 549 672 547 671 546 c 0
 609 497 572 475 516 423 c 0
 504 412 494 403 486 394 c 1
 505 389 524 381 543 372 c 0
 629 332 689 268 689 203 c 0
 689 85 601 -14 474 -15 c 1
 472 -15 l 2
 294 -15 169 167 105 208 c 2
 63 235 l 1
 93 263 l 1
 135 236 l 2
 319 118 292 45 412 45 c 2
 414 45 l 1
 509 46 601 135 601 243 c 0
 601 296 566 317 543 327 c 0
 522 337 492 345 471 345 c 0
 426 345 412 294 359 254 c 0
 357 252 352 252 347 252 c 0
 337 252 322 255 304 267 c 0
 291 275 273 291 273 302 c 0
 273 304 274 306 276 308 c 0
 336 373 366 415 432 477 c 1
 451 494 l 1
 447 496 427 503 410 518 c 1
 403 506 402 475 389 441 c 0
 388 438 384 432 366 436 c 0
 351 439 321 452 306 473 c 2
 222 592 l 1
 301 577 l 1
 317 553 l 1
 321 568 327 585 357 585 c 0
 398 585 423 572 448 553 c 1
 498 562 533 585 593 603 c 0
 595 604 598 604 601 604 c 0
EndSplineSet
EndChar

StartChar: Ut
Encoding: 5 2314 5
Width: 927
VWidth: 0
Flags: W
HStem: -15 60<370.159 490.858>
AnchorPoint: "bindu" 433 740 basechar 0
LayerCount: 2
Fore
SplineSet
601 604 m 0
 627 604 674 573 674 553 c 0
 674 549 672 547 671 546 c 0
 609 497 572 475 516 423 c 0
 504 412 494 403 486 394 c 1
 573 371 660 305 682 241 c 1
 696 235 719 225 728 219 c 0
 787 182 808 153 833 132 c 2
 869 102 l 1
 816 90 l 1
 781 120 l 2
 739 155 724 173 703 187 c 0
 701 188 697 188 689 190 c 1
 683 78 596 -14 474 -15 c 1
 472 -15 l 2
 294 -15 169 167 105 208 c 2
 63 235 l 1
 93 263 l 1
 135 236 l 2
 319 118 292 45 412 45 c 2
 414 45 l 1
 508 46 600 134 601 241 c 1
 589 265 l 1
 599 262 l 1
 592 301 563 318 543 327 c 0
 522 337 492 345 471 345 c 0
 426 345 412 294 359 254 c 0
 357 252 352 252 347 252 c 0
 337 252 322 255 304 267 c 0
 291 275 273 291 273 302 c 0
 273 304 274 306 276 308 c 0
 340 377 377 430 451 494 c 1
 449 495 433 500 411 519 c 1
 402 506 403 475 389 441 c 0
 388 438 384 432 366 436 c 0
 351 439 321 452 306 473 c 2
 222 592 l 1
 301 577 l 1
 317 553 l 1
 322 570 334 586 364 588 c 1
 373 588 l 2
 390 588 427 582 457 555 c 1
 502 565 537 586 593 603 c 0
 595 604 598 604 601 604 c 0
EndSplineSet
EndChar

StartChar: Rt
Encoding: 6 2315 6
Width: 663
VWidth: 0
Flags: W
HStem: 310 52<330 390.947> 312 61<145.438 240> 480 130<134.234 192.952>
VStem: 241 88<123.142 310 373 504.593>
AnchorPoint: "bindu" 316 740 basechar 0
LayerCount: 2
Fore
SplineSet
108 183 m 0xb0
 108 189 115 192 123 192 c 0
 134 192 152 188 172 174 c 0
 197 156 219 137 238 123 c 1
 239 126 241 131 241 140 c 2
 240 312 l 1
 217 310 194 307 173 303 c 2
 145 298 l 1
 76 358 l 1
 103 363 l 2
 138 369 178 373 219 373 c 2
 241 373 l 1x70
 244 513 l 1
 244 517 l 1
 236 520 223 527 210 537 c 1
 205 526 204 505 193 485 c 0
 192 483 189 480 179 480 c 0
 174 480 169 481 161 483 c 0
 145 488 115 505 107 524 c 2
 66 623 l 1
 134 601 l 1
 139 605 143 606 148 608 c 0
 157 612 161 610 162 610 c 0
 194 610 233 581 242 572 c 1
 285 578 317 598 372 612 c 0
 374 613 377 613 379 613 c 0
 405 613 452 584 452 562 c 0
 452 558 450 555 449 554 c 0
 395 514 334 519 332 471 c 1
 330 362 l 1
 344 359 357 357 370 353 c 0
 380 350 390 347 391 346 c 1
 391 350 l 2
 391 438 488 438 509 441 c 2
 538 445 l 1
 606 384 l 1
 577 381 l 2
 551 378 479 380 479 310 c 0
 479 253 493 287 528 222 c 0
 530 217 535 206 520 204 c 0
 519 204 518 204 517 204 c 0
 505 204 479 210 457 230 c 0
 424 259 409 286 399 297 c 1
 377 303 353 307 329 310 c 1
 328 273 l 1
 329 100 l 2
 329 75 323 60 300 58 c 1
 327 37 l 1
 372 5 400 -4 467 -43 c 2
 510 -68 l 1
 488 -102 l 1
 445 -77 l 2
 399 -50 354 -33 285 17 c 0
 212 70 181 109 125 158 c 0
 119 164 108 175 108 183 c 0xb0
EndSplineSet
EndChar

StartChar: RRt
Encoding: 7 2400 7
Width: 794
VWidth: 0
Flags: W
HStem: 307 52<330 390.947> 309 61<145.438 240> 477 133<137.335 192.952>
VStem: 241 88<120.142 307 370 501.593>
AnchorPoint: "bindu" 287 740 basechar 0
LayerCount: 2
Fore
SplineSet
108 180 m 0xb0
 108 186 115 189 123 189 c 0
 134 189 152 185 172 171 c 0
 197 153 219 134 238 120 c 1
 239 123 241 128 241 137 c 2
 240 309 l 1
 217 307 194 304 173 300 c 2
 145 295 l 1
 76 355 l 1
 103 360 l 2
 138 366 178 370 219 370 c 2
 241 370 l 1x70
 244 510 l 1
 244 515 l 1
 242 516 232 519 214 532 c 1
 208 520 205 501 193 482 c 0
 192 480 189 477 180 477 c 0
 175 477 169 477 161 480 c 0
 145 485 115 502 107 521 c 2
 66 620 l 1
 137 597 l 1
 144 605 160 610 170 610 c 0
 204 610 243 577 249 570 c 1
 289 576 321 596 372 609 c 0
 374 610 377 610 379 610 c 0
 405 610 452 581 452 559 c 0
 452 555 450 552 449 551 c 0
 395 511 334 516 332 468 c 1
 330 359 l 1
 344 356 357 354 370 350 c 0
 380 347 390 344 391 343 c 1
 391 347 l 2
 391 435 488 435 509 438 c 1
 520 438 l 2
 533 438 547 437 565 432 c 0
 608 419 641 386 650 367 c 0
 695 273 698 214 718 118 c 2
 723 94 l 1
 635 129 l 1
 630 154 l 1
 610 246 607 300 573 377 c 1
 546 374 479 374 479 307 c 0
 479 250 493 284 528 219 c 0
 530 214 535 203 520 201 c 0
 519 201 518 201 517 201 c 0
 505 201 479 207 457 227 c 0
 424 256 409 283 399 294 c 1
 377 300 353 304 329 307 c 1
 328 270 l 1
 329 97 l 2
 329 72 323 57 300 55 c 1
 327 34 l 1
 372 2 400 -7 467 -46 c 2
 510 -71 l 1
 488 -105 l 1
 445 -80 l 2
 399 -53 354 -36 285 14 c 0
 212 67 181 106 125 155 c 0
 119 161 108 172 108 180 c 0xb0
EndSplineSet
EndChar

StartChar: Lt
Encoding: 8 2316 8
Width: 694
VWidth: 0
Flags: W
HStem: 568 60<224.354 300.386>
VStem: 76 88<415.768 496.715> 377 88<26.2574 345.724 350.315 476.133> 398 88<126.322 430.022>
AnchorPoint: "bindu" 273 740 basechar 0
LayerCount: 2
Fore
SplineSet
222 309 m 1xd0
 135 340 l 1
 126 366 l 2
 115 398 76 432 76 477 c 0
 76 486 77 496 80 504 c 0
 101 565 134 628 210 628 c 0
 238 628 263 621 284 613 c 0
 404 569 449 481 471 410 c 0
 483 373 486 339 486 309 c 0xd0
 486 235 465 172 465 103 c 0
 465 75 469 45 477 16 c 0
 494 -46 512 -11 604 -96 c 1
 637 -127 l 1
 577 -132 l 1
 544 -102 l 2
 528 -87 412 -35 389 50 c 0
 380 83 377 113 377 143 c 0xe0
 377 216 398 279 398 349 c 0
 398 377 394 409 383 442 c 0
 358 524 323 553 301 561 c 0
 296 563 289 565 278 567 c 0
 277 567 276 568 270 568 c 0
 231 568 189 517 168 456 c 0
 166 450 164 444 164 437 c 0
 164 409 193 390 212 336 c 2
 222 309 l 1xd0
EndSplineSet
EndChar

StartChar: LLt
Encoding: 9 2401 9
Width: 724
VWidth: 0
Flags: W
HStem: 568 60<224.354 300.386>
VStem: 76 88<415.768 496.715> 377 88<26.2574 284.502>
AnchorPoint: "bindu" 273 740 basechar 0
LayerCount: 2
Fore
SplineSet
222 309 m 1
 135 340 l 1
 126 366 l 2
 115 398 76 432 76 477 c 0
 76 486 77 496 80 504 c 0
 101 565 134 628 210 628 c 0
 238 628 263 621 284 613 c 0
 404 569 449 481 471 410 c 0
 480 383 483 358 485 335 c 1
 498 332 518 320 525 315 c 0
 584 278 605 249 630 228 c 2
 666 198 l 1
 613 186 l 1
 578 216 l 2
 536 251 521 269 500 283 c 0
 498 284 493 284 485 286 c 1
 481 222 465 165 465 103 c 0
 465 75 469 45 477 16 c 0
 494 -46 512 -11 604 -96 c 1
 637 -127 l 1
 577 -132 l 1
 544 -102 l 2
 528 -87 412 -35 389 50 c 0
 380 83 377 113 377 143 c 0
 377 212 396 272 398 337 c 1
 386 361 l 1
 398 358 l 1
 397 384 393 412 383 442 c 0
 358 524 323 553 301 561 c 0
 296 563 289 565 278 567 c 0
 277 567 276 568 270 568 c 0
 231 568 189 517 168 456 c 0
 166 450 164 444 164 437 c 0
 164 409 193 390 212 336 c 2
 222 309 l 1
EndSplineSet
EndChar

StartChar: et
Encoding: 10 2319 10
Width: 909
VWidth: 0
Flags: W
HStem: 453 61<488.167 595.037>
AnchorPoint: "bindu" 463 740 basechar 0
LayerCount: 2
Fore
SplineSet
665 475 m 1
 641 467 601 453 562 453 c 0
 546 453 519 455 485 476 c 0
 467 487 454 498 443 512 c 1
 367 505 402 461 376 416 c 0
 375 414 371 411 362 411 c 0
 357 411 351 412 342 415 c 0
 326 421 297 437 290 456 c 2
 244 585 l 1
 323 557 l 1
 336 568 354 571 385 573 c 1
 405 573 l 1
 419 571 434 566 448 560 c 0
 488 541 504 519 508 514 c 1
 514 514 521 515 526 516 c 0
 628 538 661 567 751 602 c 0
 754 603 757 604 760 604 c 0
 787 604 833 573 833 552 c 0
 833 550 832 549 832 548 c 0
 756 424 700 363 641 234 c 0
 598 140 599 79 572 -23 c 0
 571 -28 566 -31 559 -31 c 0
 548 -31 533 -25 523 -20 c 0
 503 -9 492 3 490 6 c 0
 416 100 400 147 323 220 c 0
 272 269 197 309 99 380 c 2
 60 408 l 1
 101 429 l 1
 141 400 l 2
 221 342 309 297 385 224 c 0
 439 172 470 130 499 88 c 1
 512 153 519 208 553 282 c 0
 590 362 625 416 665 475 c 1
EndSplineSet
EndChar

StartChar: ait
Encoding: 11 2320 11
Width: 909
VWidth: 0
Flags: W
HStem: 380 61<491.512 521> 609 60<491.016 554.635>
VStem: 388 88<558.834 605.5>
AnchorPoint: "bindu" 463 740 basechar 0
LayerCount: 2
Fore
SplineSet
593 468 m 1
 647 500 681 554 748 601 c 0
 751 603 755 604 759 604 c 0
 774 604 795 594 807 586 c 0
 828 572 833 559 833 552 c 0
 833 550 833 549 832 548 c 0
 756 424 700 363 641 234 c 0
 598 140 599 79 572 -23 c 0
 571 -28 566 -31 559 -31 c 0
 548 -31 533 -25 523 -20 c 0
 503 -9 492 3 490 6 c 0
 416 100 400 147 323 220 c 0
 272 269 197 309 99 380 c 2
 60 408 l 1
 101 429 l 1
 141 400 l 2
 221 342 309 297 385 224 c 0
 439 172 470 130 499 88 c 1
 512 153 519 208 553 282 c 0
 569 317 586 347 602 376 c 1
 590 382 l 1
 583 381 574 380 566 380 c 0
 551 380 526 381 493 401 c 0
 477 411 465 421 456 431 c 1
 410 424 404 382 382 344 c 0
 381 342 377 339 368 339 c 0
 363 339 357 340 348 343 c 0
 332 349 303 365 296 384 c 2
 250 513 l 1
 337 482 l 1
 341 472 l 1
 354 484 369 490 396 492 c 1
 408 492 l 2
 422 492 437 490 454 483 c 0
 491 468 510 446 514 441 c 1
 517 441 519 442 521 442 c 1
 513 491 513 492 505 499 c 1
 490 502 456 514 432 537 c 0
 419 549 388 576 388 602 c 0
 388 609 389 615 391 619 c 0
 407 652 435 669 477 669 c 2
 481 669 l 1
 550 667 617 604 627 596 c 2
 664 567 l 1
 618 550 l 1
 580 579 l 2
 547 605 547 609 539 609 c 2
 537 609 l 2
 516 609 493 598 479 569 c 0
 478 566 476 564 476 562 c 0
 476 558 478 556 479 555 c 0
 483 554 510 548 537 527 c 0
 568 503 584 485 593 468 c 1
EndSplineSet
EndChar

StartChar: ot
Encoding: 12 2323 12
Width: 765
VWidth: 0
Flags: W
HStem: -15 60<370.159 490.195> 475 61<365.08 485.75> 507 60<311.843 352>
VStem: 601 88<166.033 270.432>
AnchorPoint: "bindu" 433 740 basechar 0
LayerCount: 2
Fore
SplineSet
501 483 m 1xd0
 487 480 455 475 436 475 c 0
 434 475 432 475 430 475 c 0xd0
 419 475 402 476 375 491 c 0
 369 494 362 498 352 506 c 1
 345 507 l 1
 308 507 316 489 296 435 c 0
 295 432 291 426 273 430 c 0
 258 433 228 446 213 467 c 2
 129 586 l 1
 208 571 l 1
 228 543 l 1
 237 559 254 567 285 567 c 0xb0
 314 567 345 565 382 540 c 0
 384 539 385 537 387 536 c 1
 391 536 394 536 398 537 c 0
 506 552 512 575 592 602 c 0
 594 603 598 604 601 604 c 0
 627 604 674 573 674 552 c 0
 674 550 674 548 673 547 c 0
 625 485 602 445 549 388 c 0
 539 377 529 367 521 359 c 1
 541 354 559 348 578 339 c 0
 650 306 689 256 689 212 c 2
 689 204 l 1
 679 86 603 -14 474 -15 c 1
 472 -15 l 2
 294 -15 169 167 105 208 c 2
 63 235 l 1
 93 263 l 1
 135 236 l 2
 319 118 292 45 412 45 c 2
 414 45 l 1
 510 46 591 135 601 246 c 1
 601 252 l 2
 601 286 584 291 578 294 c 0
 563 301 530 309 504 309 c 0
 456 309 441 270 385 239 c 0
 383 238 380 237 375 237 c 0
 365 237 349 240 330 253 c 0
 318 261 300 276 300 287 c 0
 300 290 301 292 303 294 c 0
 377 361 438 403 501 483 c 1xd0
EndSplineSet
EndChar

StartChar: aut
Encoding: 13 2324 13
Width: 927
VWidth: 0
Flags: W
HStem: -15 60<370.159 491.107> 430 137<227.949 295.951> 507 60<309.113 371.52>
AnchorPoint: "bindu" 433 740 basechar 0
LayerCount: 2
Fore
SplineSet
501 483 m 1xc0
 486 480 459 475 437 475 c 2
 433 475 l 2
 422 475 404 476 377 490 c 0
 357 501 353 507 351 507 c 2
 340 507 l 1xa0
 299 505 317 490 296 435 c 0
 295 432 291 426 273 430 c 0
 258 433 228 446 213 467 c 2
 129 586 l 1
 208 571 l 1
 225 546 l 1
 233 559 250 566 277 567 c 1
 291 567 l 2
 315 567 344 564 376 543 c 0
 384 538 385 536 385 536 c 1
 399 537 l 1
 506 552 512 575 592 602 c 0
 594 603 598 604 601 604 c 0
 627 604 674 573 674 552 c 0
 674 550 674 548 673 547 c 0
 625 485 602 445 549 388 c 0
 539 377 529 367 521 359 c 1
 541 354 559 348 578 339 c 0
 635 313 671 277 684 241 c 1
 697 236 719 225 728 219 c 0
 787 182 808 153 833 132 c 2
 869 102 l 1
 816 90 l 1
 781 120 l 2
 739 155 724 173 703 187 c 0
 701 188 695 188 687 190 c 1
 672 78 598 -14 474 -15 c 1
 472 -15 l 2
 294 -15 169 167 105 208 c 2
 63 235 l 1
 93 263 l 1
 135 236 l 2
 319 118 292 45 412 45 c 2
 414 45 l 1
 509 46 589 132 601 241 c 1
 589 265 l 1
 600 262 l 1
 597 287 583 291 578 294 c 0
 563 301 530 309 504 309 c 0
 456 309 441 270 385 239 c 0
 383 238 380 237 375 237 c 0
 365 237 349 240 330 253 c 0
 318 261 300 276 300 287 c 0
 300 290 301 292 303 294 c 0
 377 361 438 403 501 483 c 1xc0
EndSplineSet
EndChar

StartChar: anusvAra
Encoding: 14 2306 14
Width: 0
VWidth: 0
GlyphClass: 4
Flags: W
HStem: 665 139<-264.387 -180.981> 676 139<-289.019 -205.613>
VStem: -324 178<708.787 771.213>
AnchorPoint: "bindumark" -235 740 mark 0
AnchorPoint: "bindu" -235 740 mark 0
LayerCount: 2
Fore
SplineSet
-216 804 m 0xa0
 -150 774 -146 735 -146 720 c 0
 -146 689 -166 665 -205 665 c 0xa0
 -218 665 -236 668 -254 676 c 0
 -320 706 -324 745 -324 760 c 0
 -324 791 -304 815 -265 815 c 0x60
 -252 815 -234 812 -216 804 c 0xa0
EndSplineSet
EndChar

StartChar: visarga
Encoding: 16 2307 16
Width: 210
VWidth: 0
GlyphClass: 4
Flags: W
HStem: 115 139<15.613 99.0192> 126 139<-9.01923 74.387> 390 139<15.613 99.0192> 401 139<-9.01923 74.387>
VStem: -44 178<158.788 221.212 433.788 496.212>
LayerCount: 2
Fore
SplineSet
15 265 m 0x48
 28 265 46 262 64 254 c 0
 130 224 134 185 134 170 c 0
 134 139 114 115 75 115 c 0x88
 62 115 44 118 26 126 c 0
 -40 156 -44 195 -44 210 c 0
 -44 241 -24 265 15 265 c 0x48
15 540 m 0x18
 28 540 46 537 64 529 c 0
 130 499 134 460 134 445 c 0
 134 414 114 390 75 390 c 0x28
 62 390 44 393 26 401 c 0
 -40 431 -44 470 -44 485 c 0
 -44 516 -24 540 15 540 c 0x18
EndSplineSet
EndChar

StartChar: ka
Encoding: 17 2325 17
Width: 759
VWidth: 0
Flags: W
HStem: 372 45<365.129 385.671>
VStem: 76 88<78.2397 204.289> 254 88<55.3906 300.348> 262 89<55 253.767> 430 91<51.0939 278.367>
AnchorPoint: "virama" 340 -120 basechar 0
AnchorPoint: "repha" 297 516 basechar 0
AnchorPoint: "aakaara" 498 576 basechar 0
AnchorPoint: "iikaara" 498 576 basechar 0
AnchorPoint: "ekaara" 156 549 basechar 0
AnchorPoint: "bindu" 340 740 basechar 0
LayerCount: 2
Fore
SplineSet
254 302 m 1xe8
 198 249 164 184 164 97 c 0
 164 90 165 83 167 78 c 1
 186 73 220 69 262 55 c 1xd8
 263 80 l 1
 263 159 254 226 254 297 c 2
 254 302 l 1xe8
469 607 m 0
 495 607 542 576 542 556 c 0
 542 552 541 549 539 548 c 0
 466 498 395 505 371 435 c 0
 369 428 367 423 365 418 c 1
 366 417 367 417 368 417 c 0
 447 380 479 317 498 282 c 0
 519 243 521 212 521 182 c 0
 521 156 518 132 518 109 c 0
 518 81 523 55 535 29 c 0
 562 -30 587 -16 670 -94 c 2
 702 -124 l 1
 640 -128 l 1
 608 -98 l 2
 579 -70 488 -29 449 55 c 0
 434 89 430 119 430 149 c 0
 430 174 433 198 433 222 c 0
 433 250 428 279 414 306 c 0
 400 333 379 361 367 372 c 1
 366 372 l 2
 363 372 359 371 353 369 c 1
 345 334 342 296 342 257 c 0xe8
 342 188 351 121 351 40 c 0
 351 24 351 10 350 -6 c 0
 350 -13 345 -15 337 -15 c 0
 324 -15 309 -9 299 -4 c 0
 282 5 231 2 159 35 c 0
 148 40 137 46 129 52 c 0
 81 84 76 113 76 137 c 0
 76 271 155 367 263 421 c 1
 266 423 l 1
 270 444 276 461 283 483 c 0
 283 484 284 485 285 488 c 1
 283 488 280 488 270 491 c 1
 271 490 273 484 273 478 c 0
 273 466 260 447 238 447 c 0
 236 447 234 447 232 447 c 0
 218 449 188 462 172 483 c 2
 95 585 l 1
 162 574 l 1
 167 578 172 576 175 576 c 0
 187 577 192 577 198 577 c 2
 206 577 l 2
 207 577 209 578 213 578 c 0
 226 578 255 575 285 547 c 1
 347 552 388 584 461 606 c 0
 463 607 466 607 469 607 c 0
EndSplineSet
Substitution2: "Contextual Form 0001-1" ka.0001
EndChar

StartChar: kha
Encoding: 18 2326 18
Width: 894
VWidth: 0
Flags: W
VStem: 187 88<446.971 500.46> 246 88<63.0556 258.011> 387 88<176.587 328.604> 566 88<203.104 422.552> 577 88<213.999 437.48>
AnchorPoint: "virama" 436 -120 basechar 0
AnchorPoint: "repha" 456 483 basechar 0
AnchorPoint: "aakaara" 765 591 basechar 0
AnchorPoint: "iikaara" 765 591 basechar 0
AnchorPoint: "ekaara" 264 537 basechar 0
AnchorPoint: "bindu" 436 740 basechar 0
LayerCount: 2
Fore
SplineSet
284 455 m 1xb0
 368 402 l 1
 354 387 l 1
 349 382 l 1
 359 370 l 1
 341 372 l 1
 326 355 314 338 303 322 c 1
 304 321 l 1
 330 280 334 229 334 177 c 0
 334 96 320 16 301 -8 c 2
 288 -24 l 1
 203 28 l 1
 215 44 l 2
 228 60 246 140 246 217 c 0x60
 246 231 245 245 244 259 c 1
 222 245 194 234 154 228 c 2
 126 224 l 1
 57 284 l 1
 86 288 l 2
 154 298 180 326 208 363 c 1
 205 368 l 1
 211 367 l 1
 220 379 229 392 240 406 c 1
 239 407 237 408 236 409 c 0
 187 444 187 473 187 491 c 0
 187 531 208 577 263 577 c 0
 275 577 288 575 299 571 c 0
 403 537 367 513 426 513 c 0
 511 513 643 558 724 619 c 1
 741 631 l 1
 823 576 l 1
 806 563 l 2
 772 537 730 515 686 497 c 1
 683 479 l 2
 676 436 666 414 665 375 c 0xa8
 664 292 654 231 654 169 c 2
 654 161 l 1
 658 158 l 1
 654 157 l 1
 655 115 661 71 677 23 c 0
 695 -33 702 8 801 -76 c 2
 836 -106 l 1
 782 -116 l 1
 747 -86 l 2
 738 -78 615 -28 589 55 c 0
 582 79 577 101 573 122 c 1
 560 117 544 114 524 114 c 2
 518 114 l 1
 503 115 482 116 451 133 c 0
 438 140 423 151 412 163 c 0
 389 188 387 220 387 260 c 0
 387 302 396 339 412 387 c 1
 424 419 442 436 461 455 c 1
 397 465 338 506 321 517 c 1
 302 515 275 482 275 451 c 2
 275 446 l 1
 284 455 l 1xb0
582 464 m 1
 577 463 571 462 566 461 c 1x30
 580 453 l 1
 581 457 581 460 582 464 c 1
478 176 m 1
 502 181 531 199 566 211 c 1x30
 566 275 576 337 577 417 c 0x28
 577 425 577 432 578 439 c 1
 574 433 l 1
 543 394 515 380 500 339 c 0
 484 292 475 259 475 220 c 0
 475 206 476 190 478 176 c 1
EndSplineSet
Substitution2: "Contextual Form 0001-1" kha.0001
EndChar

StartChar: ga
Encoding: 19 2327 19
Width: 894
VWidth: 0
Flags: W
HStem: 453 60<396.777 551.234>
VStem: 187 88<446.971 500.46> 246 88<63.0556 258.011> 566 88<59.8309 433.175> 577 88<212.045 463.344>
AnchorPoint: "virama" 436 -120 basechar 0
AnchorPoint: "repha" 456 483 basechar 0
AnchorPoint: "aakaara" 765 591 basechar 0
AnchorPoint: "iikaara" 765 591 basechar 0
AnchorPoint: "ekaara" 264 537 basechar 0
AnchorPoint: "bindu" 436 740 basechar 0
LayerCount: 2
Fore
SplineSet
284 455 m 1xc8
 368 402 l 1
 354 387 l 1
 349 382 l 1
 359 370 l 1
 341 372 l 1
 326 355 314 338 303 322 c 1
 304 321 l 1
 330 280 334 229 334 177 c 0
 334 96 320 16 301 -8 c 2
 288 -24 l 1
 203 28 l 1
 215 44 l 2
 228 60 246 140 246 217 c 0xa0
 246 231 245 245 244 259 c 1
 222 245 194 234 154 228 c 2
 126 224 l 1
 57 284 l 1
 86 288 l 2
 154 298 180 326 208 363 c 1
 205 368 l 1
 211 367 l 1
 220 379 229 392 240 406 c 1
 239 407 237 408 236 409 c 0
 187 444 187 473 187 491 c 0
 187 531 208 577 263 577 c 0
 275 577 288 575 299 571 c 0
 403 537 367 513 426 513 c 0
 511 513 643 558 724 619 c 1
 741 631 l 1
 823 576 l 1
 806 563 l 2
 772 537 730 515 686 497 c 1
 683 479 l 2
 676 436 666 414 665 375 c 0xc8
 664 292 654 231 654 169 c 0
 654 123 660 76 677 23 c 0
 695 -33 702 8 801 -76 c 2
 836 -106 l 1
 782 -116 l 1
 747 -86 l 2
 738 -78 615 -28 589 55 c 0
 571 112 566 161 566 209 c 0x90
 566 274 576 336 577 417 c 0
 577 436 579 450 582 464 c 1
 549 457 516 453 486 453 c 0
 413 453 340 505 321 517 c 1
 302 515 275 482 275 451 c 2
 275 446 l 1
 284 455 l 1xc8
EndSplineSet
Substitution2: "Contextual Form 0001-1" ga.0001
EndChar

StartChar: gha
Encoding: 20 2328 20
Width: 846
VWidth: 0
Flags: W
HStem: 105 61<467.095 542.763> 177 61<240.442 309.918>
VStem: 143 88<241.627 449.3> 358 87<306.145 516.91> 571 88<0.893219 104 195.927 525>
AnchorPoint: "virama" 418 -120 basechar 0
AnchorPoint: "repha" 468 570 basechar 0
AnchorPoint: "aakaara" 666 585 basechar 0
AnchorPoint: "iikaara" 666 585 basechar 0
AnchorPoint: "ekaara" 120 555 basechar 0
AnchorPoint: "bindu" 418 740 basechar 0
LayerCount: 2
Fore
SplineSet
276 595 m 0
 302 595 350 564 350 544 c 0
 350 541 349 538 348 537 c 0
 329 518 311 507 295 496 c 1
 291 492 286 487 278 483 c 1
 263 471 251 455 245 435 c 1
 234 404 231 382 231 358 c 0
 231 323 238 287 242 238 c 1
 282 240 312 249 328 285 c 0
 350 336 356 379 358 424 c 0
 358 432 359 439 359 447 c 0
 360 481 361 516 367 559 c 2
 370 580 l 1
 384 573 l 1
 397 584 416 588 427 597 c 2
 442 611 l 1
 525 556 l 1
 509 543 l 2
 484 522 462 523 458 503 c 0
 453 479 450 452 448 423 c 0
 447 401 447 380 445 359 c 1
 445 328 l 2
 445 275 448 229 449 222 c 0
 457 192 472 170 477 166 c 0
 478 166 479 165 483 164 c 0
 485 164 491 163 493 163 c 0
 516 163 551 183 559 218 c 0
 566 246 570 274 571 304 c 1
 571 423 l 1
 570 494 l 2
 570 511 570 529 571 549 c 1
 571 569 l 2
 571 571 571 575 574 577 c 2
 643 625 l 1
 724 570 l 1
 661 525 l 1
 659 507 l 1
 659 383 l 1
 660 312 l 2
 660 295 660 278 659 262 c 1
 659 49 l 2
 659 -61 682 -41 737 -73 c 1
 780 -99 l 1
 758 -132 l 1
 715 -107 l 2
 670 -80 571 -37 571 89 c 2
 571 104 l 1
 565 103 559 103 553 103 c 0
 541 103 532 104 526 105 c 0
 525 105 524 106 523 106 c 0
 495 113 474 123 453 134 c 1
 418 155 397 177 384 199 c 1
 362 184 333 178 301 177 c 1
 294 177 l 2
 279 177 259 177 228 191 c 0
 212 198 191 212 176 227 c 0
 160 244 155 258 154 272 c 0
 150 323 143 359 143 398 c 0
 143 413 144 429 147 446 c 1
 138 451 122 463 116 476 c 2
 101 513 l 1
 95 524 89 535 87 546 c 1
 66 596 l 1
 102 584 l 1
 107 587 113 589 122 589 c 0
 162 589 202 549 206 545 c 1
 223 559 231 575 267 593 c 0
 270 594 273 595 276 595 c 0
EndSplineSet
Substitution2: "Contextual Form 0001-1" gha.0001
EndChar

StartChar: Ga
Encoding: 21 2329 21
Width: 810
VWidth: 0
Flags: W
AnchorPoint: "virama" 406 -120 basechar 0
AnchorPoint: "repha" 387 507 basechar 0
AnchorPoint: "aakaara" 690 378 basechar 0
AnchorPoint: "iikaara" 645 585 basechar 0
AnchorPoint: "ekaara" 183 561 basechar 0
AnchorPoint: "bindu" 406 740 basechar 0
LayerCount: 2
Fore
SplineSet
340 481 m 1
 351 490 l 1
 349 491 348 492 340 496 c 1
 340 495 339 493 339 490 c 0
 339 488 339 485 340 481 c 1
642 618 m 1
 708 557 l 1
 678 555 l 1
 609 549 578 551 578 503 c 2
 578 496 l 1
 580 464 638 426 693 399 c 2
 738 377 l 1
 731 335 l 1
 687 357 l 2
 638 382 542 436 505 494 c 1
 362 380 l 1
 295 330 250 303 189 262 c 1
 234 243 279 223 334 189 c 0
 436 126 532 59 589 -1 c 2
 618 -32 l 1
 550 -29 l 1
 521 1 l 2
 483 41 403 100 308 159 c 0
 248 196 210 205 119 248 c 0
 107 254 75 275 75 290 c 0
 75 293 76 296 79 298 c 0
 157 352 204 379 280 436 c 1
 287 441 l 1
 120 587 l 1
 177 596 l 1
 251 531 l 1
 252 562 271 579 309 579 c 0
 314 579 362 575 390 541 c 1
 440 552 456 584 503 613 c 0
 506 615 509 616 513 616 c 0
 522 616 535 612 546 606 c 1
 565 611 588 613 612 615 c 2
 642 618 l 1
EndSplineSet
Substitution2: "Contextual Form 0001-1" Ga.0001
EndChar

StartChar: ca
Encoding: 22 2330 22
Width: 672
VWidth: 0
Flags: W
HStem: 489 132<213.283 270.952>
VStem: 357 88<-3.30365 108 183 357.116>
AnchorPoint: "virama" 334 -120 basechar 0
AnchorPoint: "repha" 387 543 basechar 0
AnchorPoint: "aakaara" 552 606 basechar 0
AnchorPoint: "iikaara" 552 606 basechar 0
AnchorPoint: "ekaara" 198 588 basechar 0
AnchorPoint: "bindu" 384 740 basechar 0
LayerCount: 2
Fore
SplineSet
522 637 m 0
 549 637 596 606 596 586 c 0
 596 582 595 579 593 578 c 0
 572 563 550 555 530 548 c 1
 507 536 l 2
 501 533 494 530 486 527 c 1
 474 518 466 507 464 489 c 0
 452 326 445 251 445 105 c 1
 446 7 l 2
 447 -44 470 -6 560 -95 c 1
 591 -125 l 1
 527 -127 l 1
 496 -97 l 2
 491 -92 359 -28 358 47 c 2
 357 108 l 1
 343 122 l 2
 290 174 287 189 273 196 c 0
 241 213 216 209 136 230 c 1
 124 230 75 260 75 278 c 0
 75 281 76 284 79 286 c 0
 153 337 202 357 267 417 c 0
 307 454 321 487 350 531 c 1
 331 541 316 554 308 560 c 1
 293 555 292 525 271 494 c 0
 270 493 267 489 258 489 c 0
 254 489 247 490 240 492 c 0
 224 497 193 514 185 533 c 2
 143 629 l 1
 213 606 l 1
 219 615 227 619 242 621 c 0
 243 621 244 621 245 621 c 0
 248 622 250 622 254 622 c 0
 305 622 353 579 359 574 c 1
 378 574 394 579 407 584 c 1
 420 593 435 599 452 605 c 1
 471 615 491 626 514 635 c 0
 517 636 519 637 522 637 c 0
357 183 m 1
 358 255 360 312 364 376 c 1
 351 363 l 1
 301 316 260 293 213 264 c 1
 237 257 261 249 285 236 c 0
 317 220 340 200 357 183 c 1
EndSplineSet
Substitution2: "Contextual Form 0001-1" ca.0001
EndChar

StartChar: cha
Encoding: 23 2331 23
Width: 813
VWidth: 0
Flags: W
HStem: 164 60<173.894 257.792> 360 60<193.272 289.939 534.946 634.755> 497 135<274.332 337.951>
VStem: 76 88<252.445 331.939> 349 88<386 520.016> 361 88<19.2571 201 400.597 528.262> 649 88<266.554 336.97>
AnchorPoint: "virama" 400 -120 basechar 0
AnchorPoint: "repha" 402 570 basechar 0
AnchorPoint: "aakaara" 546 612 basechar 0
AnchorPoint: "iikaara" 546 612 basechar 0
AnchorPoint: "ekaara" 264 597 basechar 0
AnchorPoint: "bindu" 400 740 basechar 0
LayerCount: 2
Fore
SplineSet
359 201 m 1xf6
 330 183 294 164 247 164 c 0
 229 164 202 168 171 185 c 0
 152 196 135 209 122 222 c 0
 88 256 76 292 76 328 c 0
 76 393 142 417 205 420 c 1
 212 420 l 2
 228 420 250 417 277 405 c 0
 313 388 337 370 350 358 c 1
 350 371 349 384 349 399 c 0
 349 433 351 472 355 531 c 0
 356 543 359 554 365 563 c 1
 361 566 362 564 360 566 c 1
 349 556 352 530 338 503 c 0
 337 500 333 497 324 497 c 0
 319 497 314 499 306 501 c 0
 290 506 259 523 251 542 c 2
 209 638 l 1
 274 617 l 1
 281 626 293 632 309 632 c 0
 339 632 375 607 383 601 c 1
 427 606 456 627 509 642 c 0
 511 643 514 643 517 643 c 0
 543 643 590 613 590 592 c 0
 590 588 589 585 587 584 c 0
 524 540 447 542 443 489 c 0
 440 446 438 413 437 386 c 1xfa
 466 403 502 420 547 420 c 0
 583 420 636 402 665 383 c 0
 720 347 737 309 737 277 c 2
 737 270 l 1
 730 190 643 169 569 165 c 1
 563 165 l 2
 514 165 464 201 444 221 c 1
 446 186 448 142 449 82 c 0
 452 -63 462 -9 550 -85 c 1
 584 -115 l 1
 529 -125 l 1
 494 -95 l 2
 451 -58 364 -28 361 122 c 0
 360 152 360 178 359 201 c 1xf6
345 311 m 1
 304 334 283 355 277 359 c 1
 275 359 274 360 272 360 c 2
 268 360 l 1
 217 357 164 337 164 288 c 0
 164 261 177 235 186 224 c 1
 187 224 l 2
 193 224 193 224 196 225 c 0
 260 236 303 272 345 311 c 1
453 280 m 1
 480 258 496 237 507 225 c 1
 572 229 643 249 649 312 c 1
 649 317 l 2
 649 341 634 355 634 355 c 1
 629 358 618 360 607 360 c 0
 602 360 596 359 588 357 c 0
 532 345 492 315 453 280 c 1
EndSplineSet
Substitution2: "Contextual Form 0001-1" cha.0001
EndChar

StartChar: ja
Encoding: 24 2332 24
Width: 810
VWidth: 0
Flags: W
AnchorPoint: "virama" 406 -120 basechar 0
AnchorPoint: "bindu" 406 740 basechar 0
AnchorPoint: "ekaara" 183 561 basechar 0
AnchorPoint: "iikaara" 645 585 basechar 0
AnchorPoint: "aakaara" 690 378 basechar 0
AnchorPoint: "repha" 387 507 basechar 0
LayerCount: 2
Fore
SplineSet
642 618 m 1
 708 557 l 1
 678 555 l 1
 609 549 578 551 578 503 c 2
 578 496 l 1
 580 464 638 426 693 399 c 2
 738 377 l 1
 731 335 l 1
 687 357 l 2
 638 382 542 436 505 494 c 1
 397 407 l 1
 390 402 l 1
 418 385 449 367 487 337 c 0
 556 283 588 247 642 198 c 2
 675 168 l 1
 615 162 l 1
 582 192 l 2
 522 247 495 277 437 323 c 0
 411 344 395 350 355 375 c 1
 292 328 248 302 189 262 c 1
 234 243 279 223 334 189 c 0
 436 126 532 59 589 -1 c 2
 618 -32 l 1
 550 -29 l 1
 521 1 l 2
 483 41 403 100 308 159 c 0
 248 196 210 205 119 248 c 0
 107 254 75 275 75 290 c 0
 75 293 76 296 79 298 c 0
 157 352 204 379 280 436 c 1
 287 441 l 1
 120 587 l 1
 177 596 l 1
 251 531 l 1
 252 562 271 579 309 579 c 0
 314 579 362 575 390 541 c 1
 440 552 456 584 503 613 c 0
 506 615 509 616 513 616 c 0
 522 616 535 612 546 606 c 1
 565 611 588 613 612 615 c 2
 642 618 l 1
340 481 m 1
 351 490 l 1
 349 491 348 492 340 496 c 1
 340 495 339 493 339 490 c 0
 339 488 339 485 340 481 c 1
EndSplineSet
Substitution2: "Contextual Form 0001-1" ja.0001
EndChar

StartChar: jha
Encoding: 25 2333 25
Width: 663
VWidth: 0
Flags: W
HStem: 319 51<330 371.852> 480 133<129.234 193.951>
VStem: 241 88<123.142 319 363.627 504.593>
AnchorPoint: "virama" 316 -120 basechar 0
AnchorPoint: "repha" 249 540 basechar 0
AnchorPoint: "aakaara" 543 411 basechar 0
AnchorPoint: "ekaara" 120 582 basechar 0
AnchorPoint: "iikaara" 408 582 basechar 0
AnchorPoint: "bindu" 316 740 basechar 0
LayerCount: 2
Fore
SplineSet
108 183 m 0
 108 189 115 192 123 192 c 0
 134 192 152 188 172 174 c 0
 197 156 219 137 238 123 c 1
 239 126 241 131 241 140 c 2
 240 315 l 1
 244 513 l 1
 244 517 l 1
 236 520 223 526 207 539 c 1
 203 527 204 507 194 486 c 0
 193 484 189 480 179 480 c 0
 174 480 169 480 161 483 c 0
 145 488 115 505 107 524 c 2
 66 623 l 1
 129 602 l 1
 134 607 139 609 145 611 c 0
 155 615 158 613 160 613 c 0
 195 613 235 580 243 572 c 1
 285 577 318 598 372 612 c 0
 374 613 377 613 379 613 c 0
 405 613 452 584 452 562 c 0
 452 558 450 555 449 554 c 0
 395 514 334 519 332 471 c 1
 330 370 l 1
 342 367 356 362 374 354 c 0
 383 350 388 346 391 345 c 1
 391 350 l 2
 391 438 488 438 509 441 c 2
 538 445 l 1
 606 384 l 1
 577 381 l 2
 551 378 479 380 479 310 c 0
 479 253 493 287 528 222 c 0
 530 217 535 206 520 204 c 0
 519 204 518 204 517 204 c 0
 505 204 479 210 457 230 c 0
 408 274 397 294 372 310 c 0
 369 311 356 311 329 319 c 1
 328 273 l 1
 329 100 l 2
 329 75 323 60 300 58 c 1
 327 37 l 1
 372 5 400 -4 467 -43 c 2
 510 -68 l 1
 488 -102 l 1
 445 -77 l 2
 399 -50 354 -33 285 17 c 0
 212 70 181 109 125 158 c 0
 119 164 108 175 108 183 c 0
EndSplineSet
Substitution2: "Contextual Form 0001-1" jha.0001
EndChar

StartChar: Ja
Encoding: 26 2334 26
Width: 834
VWidth: 0
Flags: W
HStem: 313 51<501 542.852> 473 128<298.653 364.905> 570 60<191.311 243.782>
VStem: 412 88<117.189 313 357.627 498.108>
AnchorPoint: "virama" 442 -120 basechar 0
AnchorPoint: "repha" 420 534 basechar 0
AnchorPoint: "aakaara" 714 405 basechar 0
AnchorPoint: "ekaara" 120 549 basechar 0
AnchorPoint: "iikaara" 579 576 basechar 0
AnchorPoint: "bindu" 442 740 basechar 0
LayerCount: 2
Fore
SplineSet
156 630 m 1xb0
 166 630 l 2xb0
 181 630 201 628 226 617 c 0
 251 606 271 591 285 580 c 1
 289 590 297 601 323 601 c 0
 346 601 383 583 404 565 c 1
 450 570 483 590 543 606 c 1
 548 606 l 2
 557 606 575 603 596 589 c 0
 608 581 624 566 624 556 c 0
 624 553 623 550 620 548 c 0
 568 509 505 514 503 465 c 1
 501 364 l 1
 513 361 527 356 545 348 c 0
 554 344 559 340 562 339 c 1
 562 344 l 2
 562 432 659 432 680 435 c 2
 709 439 l 1
 777 378 l 1
 748 375 l 2
 722 372 650 374 650 304 c 0
 650 247 664 281 699 216 c 0
 701 211 706 200 691 198 c 0
 690 198 689 198 688 198 c 0
 676 198 650 204 628 224 c 0
 579 268 568 288 543 304 c 0
 540 305 527 305 500 313 c 1
 499 267 l 1
 500 94 l 2
 500 72 497 55 471 52 c 1
 525 6 555 -1 638 -49 c 2
 681 -74 l 1
 659 -108 l 1
 616 -83 l 2
 568 -55 522 -37 456 11 c 0
 381 66 350 105 296 152 c 0
 284 162 280 170 280 176 c 0
 280 182 285 185 290 186 c 1
 294 186 l 2
 311 186 334 174 343 168 c 0
 372 148 394 128 409 117 c 1
 411 121 412 127 412 134 c 2
 411 309 l 1
 415 507 l 1
 415 511 l 1
 413 512 411 512 409 513 c 0
 389 522 378 531 374 534 c 1
 369 523 372 499 365 480 c 0
 363 475 359 473 352 473 c 0xd0
 341 473 324 479 314 485 c 0
 295 495 287 506 284 509 c 0
 261 537 257 549 254 552 c 0
 240 562 233 567 230 569 c 1
 228 569 227 570 226 570 c 2
 221 570 l 1
 202 567 190 542 161 521 c 2
 144 509 l 1
 62 564 l 1
 79 577 l 2
 102 594 108 626 156 630 c 1xb0
EndSplineSet
Substitution2: "Contextual Form 0001-1" Ja.0001
EndChar

StartChar: Ta
Encoding: 27 2335 27
Width: 803
VWidth: 0
Flags: W
HStem: -33 60<366.137 559.184> 501 60<342.234 405.825>
VStem: 76 88<167.471 244.446> 403 88<446.721 479.298>
AnchorPoint: "virama" 400 -120 basechar 0
AnchorPoint: "repha" 393 531 basechar 0
AnchorPoint: "aakaara" 684 378 basechar 0
AnchorPoint: "iikaara" 639 585 basechar 0
AnchorPoint: "ekaara" 168 585 basechar 0
AnchorPoint: "bindu" 400 740 basechar 0
LayerCount: 2
Fore
SplineSet
636 618 m 1
 702 557 l 1
 672 555 l 1
 603 549 572 551 572 503 c 2
 572 496 l 1
 574 464 632 426 687 399 c 2
 732 377 l 1
 725 335 l 1
 681 357 l 2
 636 380 551 427 509 480 c 1
 498 465 491 451 491 441 c 2
 491 434 l 2
 491 421 485 410 462 390 c 0
 373 313 270 331 213 276 c 0
 178 242 164 214 164 191 c 0
 164 171 173 154 185 141 c 0
 252 63 295 46 408 30 c 0
 421 28 433 27 444 27 c 0
 526 27 615 63 638 97 c 2
 649 114 l 1
 735 63 l 1
 724 47 l 2
 695 4 603 -33 504 -33 c 0
 489 -33 474 -33 456 -30 c 0
 328 -12 212 34 114 147 c 1
 89 174 76 203 76 231 c 0
 76 263 92 294 129 330 c 0
 197 396 298 374 378 444 c 0
 401 464 403 470 403 474 c 2
 403 481 l 2
 403 486 403 492 406 501 c 1
 384 502 356 506 324 525 c 0
 318 529 311 533 303 539 c 1
 282 536 269 509 260 446 c 0
 259 442 256 437 246 437 c 0
 241 437 235 438 227 441 c 0
 211 446 181 463 173 482 c 2
 114 626 l 1
 200 598 l 1
 205 587 l 1
 216 597 228 600 249 600 c 0
 263 600 278 598 295 591 c 0
 322 580 337 566 342 562 c 1
 347 561 351 561 355 561 c 2
 363 561 l 1
 404 562 417 565 428 569 c 0
 443 575 457 588 497 613 c 0
 500 615 503 616 507 616 c 0
 517 616 529 612 540 606 c 1
 559 611 582 613 606 615 c 2
 636 618 l 1
EndSplineSet
Substitution2: "Contextual Form 0001-1" Ta.0001
EndChar

StartChar: Tha
Encoding: 28 2336 28
Width: 822
VWidth: 0
Flags: W
HStem: -30 60<311.532 513.04>
VStem: 76 88<149.573 320.067> 658 88<148.27 290.377>
AnchorPoint: "virama" 406 -120 basechar 0
AnchorPoint: "aakaara" 656 537 basechar 0
AnchorPoint: "repha" 432 585 basechar 0
AnchorPoint: "iikaara" 432 585 basechar 0
AnchorPoint: "ekaara" 366 528 basechar 0
AnchorPoint: "bindu" 406 740 basechar 0
LayerCount: 2
Fore
SplineSet
425 512 m 1
 302 417 164 418 164 202 c 0
 164 153 184 115 205 93 c 0
 235 60 292 34 376 30 c 1
 392 30 l 2
 518 30 653 96 658 222 c 1
 658 231 l 1
 657 238 l 1
 653 388 518 470 427 511 c 1
 425 512 l 1
458 541 m 1
 593 473 746 351 746 191 c 2
 746 180 l 1
 741 39 598 -30 452 -30 c 2
 433 -30 l 1
 342 -26 216 10 136 96 c 0
 95 140 76 187 76 242 c 0
 76 503 280 479 390 611 c 1
 403 627 l 1
 488 574 l 1
 474 559 l 2
 468 552 463 546 458 541 c 1
EndSplineSet
Substitution2: "Contextual Form 0001-1" Tha.0001
EndChar

StartChar: Da
Encoding: 29 2337 29
Width: 633
VWidth: 0
Flags: W
HStem: 447 145<152.374 204.952>
VStem: 331 88<70.3587 317>
AnchorPoint: "virama" 343 -120 basechar 0
AnchorPoint: "repha" 303 513 basechar 0
AnchorPoint: "aakaara" 504 588 basechar 0
AnchorPoint: "iikaara" 504 588 basechar 0
AnchorPoint: "ekaara" 120 573 basechar 0
AnchorPoint: "bindu" 343 740 basechar 0
LayerCount: 2
Fore
SplineSet
336 483 m 1
 329 483 l 2
 297 483 254 508 234 527 c 1
 221 517 221 482 205 452 c 0
 204 450 201 447 192 447 c 0
 187 447 182 448 174 450 c 0
 158 455 127 472 119 491 c 2
 65 614 l 1
 151 586 l 1
 152 584 l 1
 160 592 167 592 186 592 c 0
 229 592 275 552 282 545 c 1
 351 555 391 589 466 617 c 0
 469 618 472 619 475 619 c 0
 502 619 548 588 548 567 c 0
 548 564 547 563 546 562 c 0
 488 498 455 455 403 400 c 1
 419 380 421 364 421 338 c 0
 421 325 420 311 420 292 c 0
 420 275 420 256 419 237 c 0
 414 41 423 41 387 12 c 0
 379 5 371 2 365 0 c 1
 404 -20 445 -31 512 -61 c 2
 556 -81 l 1
 559 -127 l 1
 514 -107 l 2
 454 -80 398 -69 312 -16 c 0
 240 28 209 68 168 102 c 0
 163 107 151 119 151 128 c 0
 151 137 156 138 166 138 c 0
 176 138 189 135 207 124 c 0
 248 99 275 71 290 59 c 1
 293 60 298 61 304 66 c 0
 335 91 326 76 331 279 c 0
 332 292 332 304 332 317 c 1
 218 233 l 2
 216 232 213 231 207 231 c 0
 197 231 180 234 161 247 c 0
 149 255 132 270 132 281 c 0
 132 284 133 286 135 288 c 0
 196 342 234 369 291 426 c 0
 312 447 330 465 347 484 c 1
 336 483 l 1
EndSplineSet
Substitution2: "Contextual Form 0001-1" Da.0001
EndChar

StartChar: Dha
Encoding: 30 2338 30
Width: 914
VWidth: 0
Flags: W
HStem: -33 60<537.631 637.047> 249 60<650.284 698.459> 501 60<433.119 508.362> 540 60<377.486 421.181>
VStem: 750 88<118.834 200.775>
AnchorPoint: "virama" 448 -120 basechar 0
AnchorPoint: "repha" 480 531 basechar 0
AnchorPoint: "aakaara" 666 591 basechar 0
AnchorPoint: "iikaara" 666 591 basechar 0
AnchorPoint: "ekaara" 264 579 basechar 0
AnchorPoint: "bindu" 448 740 basechar 0
LayerCount: 2
Fore
SplineSet
637 622 m 0xe8
 663 622 710 591 710 571 c 0
 710 568 709 565 708 564 c 0
 628 490 594 434 502 374 c 0
 407 312 335 285 249 247 c 1
 286 240 340 221 373 199 c 0
 461 142 468 85 479 77 c 0
 547 28 536 27 557 27 c 0
 562 27 569 29 576 30 c 0
 663 51 730 84 748 166 c 0
 749 173 750 178 750 182 c 0
 750 192 748 201 745 207 c 0
 735 229 719 238 685 249 c 1
 667 249 637 210 594 190 c 2
 573 180 l 1
 495 238 l 1
 516 248 l 2
 551 264 568 309 625 309 c 0
 632 309 641 309 660 303 c 0
 719 284 804 239 830 179 c 0
 835 167 838 156 838 142 c 0
 838 135 837 129 836 122 c 0
 816 30 740 -8 648 -30 c 0
 639 -32 629 -33 617 -33 c 0
 541 -33 466 35 439 55 c 0
 367 107 350 164 342 171 c 1
 291 196 248 185 141 204 c 0
 129 206 75 232 75 255 c 0
 75 258 77 261 81 263 c 0
 237 341 389 381 509 501 c 1
 505 501 l 2xe8
 493 501 474 503 450 514 c 0
 430 523 415 535 410 538 c 1
 408 538 403 540 394 540 c 2
 388 540 l 1
 379 539 377 502 358 467 c 0
 357 465 352 458 332 463 c 0
 317 467 286 482 274 502 c 2
 206 618 l 1
 288 597 l 1
 295 586 l 1
 301 595 307 599 327 600 c 1
 334 600 l 2xd8
 362 600 388 595 414 582 c 0
 432 573 443 564 448 561 c 1
 449 561 l 1
 517 566 554 596 629 620 c 0
 631 621 634 622 637 622 c 0xe8
EndSplineSet
Substitution2: "Contextual Form 0001-1" Dha.0001
EndChar

StartChar: Na
Encoding: 31 2339 31
Width: 888
VWidth: 0
Flags: W
HStem: 461 61<220.466 279.934>
VStem: 76 88<114.767 362.245> 284 89<217.882 458.41> 446 88<-9.88843 151.669 213 461> 593 88<228.693 455.025>
AnchorPoint: "virama" 431 -120 basechar 0
AnchorPoint: "repha" 484 591 basechar 0
AnchorPoint: "aakaara" 769 153 basechar 0
AnchorPoint: "iikaara" 691 582 basechar 0
AnchorPoint: "ekaara" 148 417 basechar 0
AnchorPoint: "bindu" 481 740 basechar 0
LayerCount: 2
Fore
SplineSet
530 -101 m 1
 533 -148 l 1
 489 -128 l 2
 450 -111 402 -103 350 -91 c 0
 282 -75 187 -39 135 42 c 0
 89 112 76 174 76 237 c 0
 76 301 90 366 104 439 c 0
 115 497 170 522 232 522 c 0
 246 522 263 520 285 510 c 0
 365 474 373 419 373 377 c 0
 373 366 372 357 372 349 c 0
 372 305 366 256 360 216 c 1
 374 222 385 225 400 225 c 0
 411 225 429 220 444 213 c 1
 440 611 l 2
 440 618 445 621 453 621 c 0
 462 621 475 618 484 614 c 0
 513 601 525 582 527 576 c 0
 533 559 534 542 535 529 c 1
 588 553 608 609 659 612 c 1
 661 612 l 2
 686 612 736 584 736 562 c 0
 736 561 735 559 735 558 c 0
 706 471 681 398 681 314 c 0
 681 285 684 255 690 225 c 0
 691 217 694 213 695 211 c 1
 706 206 748 193 790 163 c 2
 829 135 l 1
 787 114 l 1
 748 143 l 2
 744 146 708 148 648 194 c 0
 619 216 606 238 602 261 c 0
 596 293 593 323 593 354 c 0
 593 394 597 431 606 469 c 1
 592 463 574 459 550 459 c 0
 546 459 541 458 530 461 c 1
 534 -20 l 2
 534 -25 530 -30 519 -30 c 0
 493 -30 447 -3 446 20 c 0
 444 71 435 125 427 153 c 1
 390 135 343 102 341 101 c 0
 339 100 336 99 330 99 c 0
 323 99 314 100 301 106 c 0
 285 114 257 133 257 149 c 0
 257 185 284 297 284 389 c 0
 284 416 281 443 275 461 c 1
 238 457 200 437 192 395 c 0
 178 322 164 258 164 197 c 0
 164 137 178 81 215 24 c 0
 242 -18 255 -20 312 -33 c 0
 355 -43 413 -50 485 -82 c 1
 530 -101 l 1
EndSplineSet
Substitution2: "Contextual Form 0001-1" Na.0001
EndChar

StartChar: ta
Encoding: 32 2340 32
Width: 630
VWidth: 0
Flags: W
HStem: 458 150<148.376 211.951>
VStem: 313 88<22.3895 396>
AnchorPoint: "virama" 301 -120 basechar 0
AnchorPoint: "repha" 330 537 basechar 0
AnchorPoint: "aakaara" 510 597 basechar 0
AnchorPoint: "iikaara" 510 597 basechar 0
AnchorPoint: "ekaara" 123 582 basechar 0
AnchorPoint: "bindu" 301 740 basechar 0
LayerCount: 2
Fore
SplineSet
481 628 m 0
 506 628 554 597 554 577 c 0
 554 573 552 569 549 568 c 0
 482 534 434 529 386 492 c 1
 397 479 400 472 400 468 c 0
 400 465 398 463 398 460 c 2
 401 67 l 2
 402 -50 426 -19 517 -68 c 2
 561 -92 l 1
 547 -130 l 1
 503 -106 l 2
 452 -78 313 -35 313 107 c 1
 310 396 l 1
 264 338 206 256 162 205 c 0
 160 203 156 201 149 201 c 0
 139 201 126 204 108 215 c 0
 95 223 75 239 75 251 c 0
 75 253 76 255 77 257 c 0
 156 360 184 435 282 527 c 1
 268 534 252 545 247 548 c 1
 214 548 230 512 212 465 c 0
 211 462 207 458 198 458 c 0
 194 458 188 459 181 461 c 0
 165 466 136 482 126 502 c 2
 67 622 l 1
 148 598 l 1
 156 608 165 608 187 608 c 0
 202 608 216 604 229 600 c 0
 268 586 291 568 292 568 c 0
 293 568 294 567 295 567 c 2
 299 567 l 1
 365 572 401 602 473 626 c 0
 475 627 478 628 481 628 c 0
EndSplineSet
Substitution2: "Contextual Form 0001-1" ta.0001
EndChar

StartChar: tha
Encoding: 33 2341 33
Width: 739
VWidth: 0
Flags: W
HStem: -30 60<180.848 341.984> 552 60<281.676 409.918>
VStem: 76 88<57.2761 173.653> 110 88<395.544 475.497> 415 88<121 304.574>
AnchorPoint: "virama" 362 -120 basechar 0
AnchorPoint: "repha" 346 582 basechar 0
AnchorPoint: "aakaara" 538 585 basechar 0
AnchorPoint: "iikaara" 538 585 basechar 0
AnchorPoint: "ekaara" 245 560 basechar 0
AnchorPoint: "bindu" 362 740 basechar 0
LayerCount: 2
Fore
SplineSet
431 -0 m 1xd8
 401 -20 356 -30 305 -30 c 0
 303 -30 301 -30 299 -30 c 0
 258 -30 173 -29 119 29 c 0
 84 68 76 102 76 137 c 0xe8
 76 178 91 219 121 254 c 0
 153 292 187 310 223 322 c 1
 144 359 110 416 110 460 c 0
 110 471 111 483 116 495 c 0
 149 576 224 608 315 612 c 1
 324 612 l 2
 382 612 444 574 459 565 c 1
 467 584 485 594 495 610 c 2
 506 627 l 1
 592 576 l 1
 581 560 l 1
 564 533 545 526 543 504 c 0
 519 243 503 248 503 101 c 1
 504 75 l 1
 506 73 l 1
 504 71 l 1
 504 52 l 1
 505 -14 525 -44 530 -49 c 1
 537 -53 573 -60 622 -84 c 2
 667 -106 l 1
 660 -148 l 1
 616 -126 l 2
 608 -122 553 -115 493 -73 c 0
 461 -51 442 -28 431 -0 c 1xd8
427 307 m 1
 334 259 269 277 205 202 c 0
 178 170 164 133 164 97 c 0
 164 73 171 52 180 37 c 1
 198 33 222 30 245 30 c 0
 274 30 300 33 320 41 c 0
 374 61 369 83 407 114 c 1
 415 121 l 1
 415 141 l 2
 415 219 419 255 427 307 c 1
442 413 m 1
 446 443 449 478 453 522 c 1
 395 547 418 552 384 552 c 2
 377 552 l 1
 299 548 234 521 204 447 c 0
 200 437 198 428 198 420 c 0xd8
 198 407 202 396 206 387 c 0
 217 366 225 365 230 364 c 0
 262 355 275 351 290 351 c 0
 315 351 351 366 419 412 c 0
 422 414 426 415 430 415 c 0
 434 415 438 414 442 413 c 1
EndSplineSet
Substitution2: "Contextual Form 0001-1" tha.0001
EndChar

StartChar: da
Encoding: 34 2342 34
Width: 723
VWidth: 0
Flags: W
HStem: 513 54<316.427 356.829> 532 61<294.624 326.858> 552 60<549.477 612.011>
VStem: 292 88<22.2372 141.8>
AnchorPoint: "virama" 373 -120 basechar 0
AnchorPoint: "repha" 369 537 basechar 0
AnchorPoint: "aakaara" 588 582 basechar 0
AnchorPoint: "iikaara" 588 582 basechar 0
AnchorPoint: "ekaara" 195 564 basechar 0
AnchorPoint: "bindu" 373 740 basechar 0
LayerCount: 2
Fore
SplineSet
332 340 m 1x30
 363 331 385 314 407 300 c 1
 455 341 503 358 562 397 c 1
 581 409 l 1
 662 353 l 1
 644 341 l 2
 578 296 529 283 480 238 c 1
 483 236 l 1
 472 231 l 1
 468 227 463 222 459 217 c 0
 411 163 380 125 380 56 c 0
 380 -1 417 -12 453 -81 c 1
 467 -109 l 1
 383 -85 l 1
 369 -57 l 2
 348 -16 292 25 292 96 c 0
 292 172 325 214 374 268 c 1
 366 276 360 282 356 285 c 1
 287 306 238 303 143 318 c 0
 135 319 76 340 76 369 c 0
 76 374 79 378 90 378 c 2
 95 378 l 2
 122 378 144 372 169 372 c 0
 206 372 258 384 323 467 c 0
 351 503 360 510 360 512 c 0
 360 513 359 513 358 513 c 0x90
 341 518 325 527 316 532 c 0
 315 532 312 531 309 529 c 0
 286 517 296 486 281 447 c 0
 280 445 277 441 267 441 c 0
 263 441 256 442 249 444 c 0
 233 449 203 464 194 484 c 2
 140 605 l 1
 219 580 l 1
 223 585 225 584 231 587 c 0
 239 591 246 593 258 593 c 0x50
 289 593 320 574 335 567 c 1
 338 567 l 1x90
 421 574 468 594 553 612 c 0
 555 612 557 612 559 612 c 0
 585 612 632 585 632 562 c 0
 632 556 628 553 625 552 c 0
 488 512 496 526 409 415 c 0
 381 379 354 355 330 340 c 1
 332 340 l 1x30
EndSplineSet
Substitution2: "Contextual Form 0001-1" da.0001
EndChar

StartChar: dha
Encoding: 35 2343 35
Width: 816
VWidth: 0
Flags: W
HStem: -30 60<246.018 409.828> 518 60<386.731 542.617>
VStem: 76 88<113.306 293.021> 535 87<101 412.984> 543 90<263.386 516.989>
AnchorPoint: "virama" 395 -120 basechar 0
AnchorPoint: "repha" 466 548 basechar 0
AnchorPoint: "aakaara" 634 594 basechar 0
AnchorPoint: "iikaara" 634 594 basechar 0
AnchorPoint: "ekaara" 259 471 basechar 0
AnchorPoint: "bindu" 445 740 basechar 0
LayerCount: 2
Fore
SplineSet
603 636 m 1xf0
 689 585 l 1
 677 568 l 2
 656 539 634 533 633 510 c 0xe8
 627 371 622 276 622 160 c 1
 624 10 l 1
 626 -44 660 -55 700 -75 c 2
 745 -97 l 1
 738 -139 l 1
 694 -117 l 2
 648 -94 565 -48 542 17 c 1
 492 -5 453 -30 358 -30 c 0
 293 -30 201 -5 136 61 c 0
 91 107 76 151 76 226 c 0
 76 335 128 419 217 498 c 0
 283 556 362 578 443 578 c 0
 474 578 504 576 537 570 c 2
 548 568 l 1
 556 592 578 602 591 620 c 2
 603 636 l 1xf0
543 516 m 1
 530 517 516 518 503 518 c 0
 435 518 363 499 301 444 c 0
 214 366 164 288 164 186 c 0
 164 169 165 152 168 135 c 0
 173 99 189 74 202 61 c 0
 216 46 242 30 298 30 c 0
 403 30 426 69 519 96 c 1
 535 101 l 1xf0
 534 200 l 1
 534 307 538 396 543 516 c 1
EndSplineSet
Substitution2: "Contextual Form 0001-1" dha.0001
EndChar

StartChar: na
Encoding: 36 2344 36
Width: 688
VWidth: 0
Flags: W
HStem: 244 60<164.023 227.784> 480 138<238.381 302.906>
VStem: 76 88<314.328 350> 368 88<3.52081 361.124>
AnchorPoint: "virama" 350 -120 basechar 0
AnchorPoint: "repha" 406 534 basechar 0
AnchorPoint: "aakaara" 568 597 basechar 0
AnchorPoint: "iikaara" 568 597 basechar 0
AnchorPoint: "ekaara" 223 594 basechar 0
AnchorPoint: "bindu" 350 740 basechar 0
LayerCount: 2
Fore
SplineSet
538 628 m 0
 565 628 612 598 612 577 c 0
 612 573 609 569 607 568 c 2
 559 545 l 1
 537 533 516 520 489 512 c 1
 474 505 458 497 446 488 c 1
 425 475 412 458 401 440 c 1
 405 438 411 434 413 433 c 0
 453 406 457 384 457 360 c 0
 457 353 456 346 456 339 c 2
 453 191 l 2
 453 165 454 126 456 55 c 0
 457 6 470 -15 473 -18 c 1
 477 -20 508 -34 549 -57 c 2
 593 -81 l 1
 576 -118 l 1
 533 -93 l 2
 509 -80 468 -68 423 -32 c 0
 376 6 370 39 368 95 c 0
 366 166 365 206 365 233 c 2
 368 362 l 1
 357 333 342 304 316 276 c 0
 296 255 275 244 243 244 c 0
 221 244 196 249 170 261 c 0
 159 266 150 272 143 276 c 0
 93 307 76 341 76 364 c 0
 76 368 76 374 77 378 c 2
 83 397 l 1
 171 350 l 1
 165 330 l 2
 165 329 164 328 164 324 c 0
 164 316 169 308 171 306 c 1
 173 306 176 304 183 304 c 0
 196 304 214 311 232 330 c 0
 274 375 280 430 306 478 c 1
 303 483 l 1
 301 481 298 480 292 480 c 0
 288 480 282 481 275 483 c 0
 259 488 228 503 219 523 c 2
 168 635 l 1
 237 613 l 1
 242 617 246 617 252 618 c 0
 253 618 254 618 255 618 c 0
 258 618 262 619 265 619 c 0
 319 619 375 569 379 565 c 1
 383 565 l 1
 394 566 404 568 412 570 c 1
 481 602 l 2
 496 610 512 619 530 626 c 0
 533 627 535 628 538 628 c 0
303 483 m 1
 308 482 l 1
 318 500 332 517 351 533 c 1
 338 542 327 552 320 558 c 1
 309 555 317 523 306 487 c 0
 306 486 305 484 303 483 c 1
EndSplineSet
Substitution2: "Contextual Form 0001-1" na.0001
EndChar

StartChar: pa
Encoding: 37 2346 37
Width: 813
VWidth: 0
Flags: W
HStem: 162 60<297.291 420.478> 502 108<282.987 340.601>
VStem: 169 88<292.568 461.047> 517 85<-2.61823 198 310 555.334>
AnchorPoint: "virama" 403 -120 basechar 0
AnchorPoint: "repha" 240 528 basechar 0
AnchorPoint: "aakaara" 594 597 basechar 0
AnchorPoint: "iikaara" 594 597 basechar 0
AnchorPoint: "ekaara" 120 585 basechar 0
AnchorPoint: "bindu" 403 740 basechar 0
LayerCount: 2
Fore
SplineSet
176 538 m 1
 188 506 l 1
 193 521 l 2
 193 522 193 522 194 524 c 1
 190 527 183 533 176 538 c 1
315 610 m 0
 341 610 389 579 389 559 c 0
 389 556 388 552 386 551 c 0
 375 542 365 538 355 533 c 1
 338 522 322 508 298 502 c 1
 290 494 284 486 281 475 c 0
 271 438 257 392 257 353 c 0
 257 316 266 283 285 246 c 0
 291 235 296 230 297 229 c 0
 303 227 323 222 347 222 c 2
 365 222 l 1
 416 225 442 268 500 301 c 1
 517 310 l 1
 514 566 l 2
 514 597 539 606 551 623 c 2
 563 639 l 1
 648 588 l 1
 637 571 l 1
 620 547 602 542 602 526 c 2
 608 40 l 1
 608 -84 618 -31 709 -91 c 2
 750 -118 l 1
 719 -146 l 1
 677 -119 l 2
 649 -101 520 -62 520 80 c 1
 519 198 l 1
 496 180 469 164 427 162 c 1
 407 162 l 2
 374 162 327 163 270 198 c 0
 242 216 217 240 201 270 c 0
 179 314 169 352 169 393 c 0
 169 413 171 434 176 457 c 1
 174 457 171 459 170 459 c 0
 154 464 124 482 116 501 c 2
 107 522 l 1
 99 536 86 556 86 574 c 0
 86 575 86 576 86 577 c 2
 66 626 l 1
 132 604 l 1
 175 603 213 563 218 559 c 1
 232 573 256 580 275 589 c 1
 285 596 295 602 306 608 c 0
 309 609 311 610 315 610 c 0
EndSplineSet
Substitution2: "Contextual Form 0001-1" pa.0001
EndChar

StartChar: pha
Encoding: 38 2347 38
Width: 819
VWidth: 0
Flags: W
HStem: 276 60<470.838 645.617> 508 60<238.937 333.5>
VStem: 76 88<154.353 265.371> 272 88<64.7296 174.915> 655 88<148.19 259.259>
AnchorPoint: "virama" 418 -120 basechar 0
AnchorPoint: "repha" 411 513 basechar 0
AnchorPoint: "aakaara" 651 585 basechar 0
AnchorPoint: "iikaara" 651 585 basechar 0
AnchorPoint: "ekaara" 138 540 basechar 0
AnchorPoint: "bindu" 418 740 basechar 0
LayerCount: 2
Fore
SplineSet
236 436 m 1
 268 456 301 482 334 501 c 1
 332 502 325 506 323 507 c 0
 322 507 319 508 311 508 c 0
 304 508 293 507 278 504 c 0
 239 497 234 485 234 466 c 0
 234 458 236 449 236 436 c 1
622 616 m 0
 648 616 695 585 695 565 c 0
 695 560 692 557 690 556 c 0
 558 498 473 491 362 410 c 0
 338 392 314 377 292 362 c 0
 220 313 164 269 164 186 c 0
 164 108 200 109 278 64 c 1
 274 87 272 106 272 124 c 0
 272 263 374 336 525 336 c 0
 566 336 604 334 650 313 c 0
 662 308 673 301 682 295 c 0
 738 257 743 222 743 190 c 0
 743 80 678 66 627 43 c 1
 605 34 l 1
 528 91 l 1
 549 101 l 1
 605 126 655 129 655 230 c 0
 655 248 650 262 646 269 c 1
 636 272 614 276 585 276 c 0
 456 276 360 212 360 84 c 0
 360 55 366 22 377 -16 c 0
 378 -18 380 -29 365 -30 c 1
 363 -30 l 2
 351 -30 324 -23 302 -2 c 0
 274 25 76 96 76 226 c 0
 76 308 124 357 185 401 c 1
 172 407 149 421 143 437 c 2
 84 581 l 1
 170 553 l 1
 170 552 l 1
 185 563 228 568 251 568 c 0
 273 568 292 564 311 557 c 0
 330 549 341 543 344 541 c 1
 347 541 349 540 352 540 c 0
 357 540 366 541 376 543 c 0
 469 559 519 587 614 615 c 0
 616 616 619 616 622 616 c 0
EndSplineSet
Substitution2: "Contextual Form 0001-1" pha.0001
EndChar

StartChar: ba
Encoding: 39 2348 39
Width: 630
VWidth: 0
Flags: W
HStem: 87 60<172.146 249.418> 559 60<191.5 274.575>
VStem: 77 87<168.798 264.186> 317 88<-6.4375 101 244 357.116>
AnchorPoint: "virama" 293 -120 basechar 0
AnchorPoint: "ekaara" 157 588 basechar 0
AnchorPoint: "iikaara" 511 606 basechar 0
AnchorPoint: "aakaara" 511 606 basechar 0
AnchorPoint: "repha" 346 543 basechar 0
AnchorPoint: "bindu" 343 740 basechar 0
LayerCount: 2
Fore
SplineSet
250 87 m 0
 178 87 83 152 77 223 c 1
 77 224 l 2
 77 227 76 230 76 237 c 0
 76 298 113 339 158 375 c 0
 236 438 203 377 300 532 c 1
 301 533 l 1
 276 546 262 559 260 559 c 0
 240 559 250 534 231 495 c 0
 230 493 226 489 216 489 c 0
 212 489 206 490 199 492 c 0
 183 497 152 514 144 533 c 2
 121 586 l 1
 104 596 l 1
 111 608 l 1
 102 629 l 1
 120 623 l 1
 124 630 l 1
 154 612 l 1
 165 609 l 1
 172 617 183 619 200 619 c 0
 216 619 235 615 250 609 c 0
 287 594 307 575 310 573 c 1
 315 573 l 2
 334 573 352 578 366 584 c 1
 379 593 394 599 411 605 c 1
 430 615 450 626 473 635 c 0
 476 636 478 637 481 637 c 0
 508 637 555 606 555 586 c 0
 555 582 554 579 552 578 c 0
 531 563 509 555 489 548 c 1
 466 536 l 2
 460 533 453 530 445 527 c 1
 433 518 425 506 423 489 c 0
 411 326 404 251 404 105 c 1
 405 7 l 2
 406 -44 429 -6 519 -95 c 1
 550 -125 l 1
 486 -127 l 1
 455 -97 l 2
 450 -92 318 -28 317 47 c 2
 316 101 l 1
 297 92 275 87 250 87 c 0
317 244 m 1
 318 294 322 339 325 389 c 1
 295 349 290 361 240 321 c 0
 196 286 164 249 164 197 c 0
 164 195 165 188 165 184 c 0
 167 162 179 150 182 148 c 0
 183 148 186 147 190 147 c 0
 236 147 285 190 305 229 c 2
 314 246 l 1
 317 244 l 1
EndSplineSet
Substitution2: "Contextual Form 0001-1" ba.0001
EndChar

StartChar: bha
Encoding: 40 2349 40
Width: 798
VWidth: 0
Flags: W
HStem: 501 60<370.563 445.774> 546 60<312.203 349.143>
VStem: 260 88<187.377 275.098> 486 88<42.0679 246.363> 507 88<96.8996 320.805>
AnchorPoint: "virama" 403 -120 basechar 0
AnchorPoint: "repha" 420 531 basechar 0
AnchorPoint: "aakaara" 606 591 basechar 0
AnchorPoint: "iikaara" 606 591 basechar 0
AnchorPoint: "ekaara" 204 579 basechar 0
AnchorPoint: "bindu" 403 740 basechar 0
LayerCount: 2
Fore
SplineSet
577 622 m 0xa8
 603 622 650 591 650 571 c 0
 650 568 649 565 648 564 c 0
 582 503 546 455 485 405 c 1
 507 398 527 378 536 369 c 0
 588 317 595 274 595 228 c 0xa8
 595 215 594 204 593 192 c 0
 589 144 574 108 574 75 c 0
 574 30 594 -9 697 -81 c 1
 737 -110 l 1
 699 -133 l 1
 659 -105 l 2
 524 -11 486 59 486 115 c 0xb0
 486 163 507 211 507 268 c 0
 507 295 485 362 478 362 c 0
 466 362 446 356 426 346 c 0
 376 320 348 293 348 244 c 0
 348 218 356 184 376 139 c 2
 388 112 l 1
 302 140 l 1
 290 167 l 2
 271 212 261 247 260 276 c 1
 229 262 196 248 159 229 c 2
 139 219 l 1
 60 276 l 1
 81 287 l 1
 192 343 260 361 361 430 c 0
 396 454 423 477 448 501 c 1
 445 501 l 2xa8
 432 501 412 503 388 514 c 0
 361 526 343 542 339 544 c 0
 337 544 334 546 324 546 c 2
 319 546 l 1
 311 545 314 507 299 468 c 0
 298 464 292 458 272 463 c 0
 257 467 226 482 214 502 c 2
 146 618 l 1
 228 597 l 1
 229 596 l 1
 234 605 239 605 258 606 c 1
 264 606 l 2x68
 291 606 317 600 342 588 c 0
 366 576 381 565 386 561 c 1
 389 561 l 1
 457 565 494 596 569 620 c 0
 571 621 574 622 577 622 c 0xa8
EndSplineSet
Substitution2: "Contextual Form 0001-1" bha.0001
EndChar

StartChar: ma
Encoding: 41 2350 41
Width: 786
VWidth: 0
Flags: W
HStem: 195 60<276.927 400.487>
VStem: 152 88<383.56 448.335> 192 88<259.534 364.141> 492 89<-6.2674 141.712 178 561.919>
AnchorPoint: "virama" 376 -120 basechar 0
AnchorPoint: "repha" 249 528 basechar 0
AnchorPoint: "aakaara" 567 597 basechar 0
AnchorPoint: "iikaara" 567 597 basechar 0
AnchorPoint: "ekaara" 129 585 basechar 0
AnchorPoint: "bindu" 376 740 basechar 0
LayerCount: 2
Fore
SplineSet
185 538 m 1x90
 194 516 l 1
 196 518 198 520 203 524 c 1
 199 527 192 532 185 538 c 1x90
324 610 m 0
 350 610 398 579 398 559 c 0
 398 556 397 552 395 551 c 0
 352 518 327 503 287 471 c 0
 271 459 262 449 255 440 c 0
 243 426 240 415 240 406 c 0xd0
 240 383 280 349 280 289 c 0
 280 278 279 266 276 255 c 1
 291 255 l 2
 385 255 438 218 492 178 c 1
 487 566 l 2
 487 597 512 606 524 623 c 2
 536 639 l 1
 621 588 l 1
 610 571 l 1
 593 547 575 542 575 526 c 2
 581 40 l 1
 581 -84 591 -31 682 -91 c 2
 723 -118 l 1
 692 -146 l 1
 650 -119 l 2
 622 -101 493 -62 493 80 c 1
 492 128 l 1
 403 191 426 195 375 195 c 2
 333 195 l 1
 287 192 238 164 208 139 c 1
 189 115 181 111 162 88 c 0
 159 85 155 83 150 83 c 0
 137 83 118 92 107 99 c 0
 82 114 76 128 76 135 c 0
 76 137 76 138 77 139 c 0
 87 156 104 175 124 192 c 1
 134 206 156 233 166 252 c 0
 184 284 192 309 192 329 c 0xb0
 192 375 152 398 152 446 c 0xd0
 152 453 153 462 156 470 c 1
 147 476 130 488 125 501 c 2
 116 522 l 1
 108 536 95 556 95 574 c 0
 95 575 95 576 95 577 c 2
 75 626 l 1
 141 604 l 1
 184 603 222 563 227 559 c 1
 256 564 276 589 315 608 c 0
 318 609 320 610 324 610 c 0
EndSplineSet
Substitution2: "Contextual Form 0001-1" ma.0001
EndChar

StartChar: ya
Encoding: 42 2351 42
Width: 824
VWidth: 0
Flags: W
HStem: 82 60<187.698 282.5> 181 59<409.221 472.75> 496 108<324.914 382.734>
VStem: 76 88<181.773 283.395> 530 89<-6.2674 144.428 184 561.919>
AnchorPoint: "virama" 414 -120 basechar 0
AnchorPoint: "repha" 281 522 basechar 0
AnchorPoint: "aakaara" 605 597 basechar 0
AnchorPoint: "iikaara" 605 597 basechar 0
AnchorPoint: "ekaara" 161 579 basechar 0
AnchorPoint: "bindu" 414 740 basechar 0
LayerCount: 2
Fore
SplineSet
229 501 m 1
 230 505 232 512 235 518 c 1
 231 521 224 527 217 532 c 1
 229 501 l 1
393 241 m 0
 443 241 510 201 530 184 c 1
 525 566 l 2
 525 597 550 606 562 623 c 2
 574 639 l 1
 659 588 l 1
 648 571 l 1
 631 547 613 542 613 526 c 2
 619 40 l 1
 619 -84 629 -31 720 -91 c 2
 761 -118 l 1
 730 -146 l 1
 688 -119 l 2
 660 -101 531 -62 531 80 c 1
 530 132 l 1
 491 154 464 178 461 180 c 0
 460 180 459 181 454 181 c 0
 396 181 391 96 303 84 c 0
 296 83 289 82 276 82 c 0
 183 82 76 154 76 259 c 0
 76 292 87 324 113 351 c 0
 156 397 217 383 263 390 c 1
 251 410 239 430 232 450 c 1
 206 450 168 470 157 495 c 2
 148 516 l 1
 140 530 127 550 127 568 c 0
 127 569 127 570 127 571 c 2
 107 620 l 1
 173 598 l 1
 216 597 254 557 259 553 c 1
 261 554 l 1
 276 567 295 574 315 583 c 1
 325 590 335 596 347 602 c 0
 350 603 352 604 356 604 c 0
 382 604 430 573 430 553 c 0
 430 550 429 546 427 545 c 0
 416 536 405 531 395 526 c 1
 379 515 362 502 339 496 c 1
 327 484 315 457 315 438 c 0
 315 401 358 361 358 342 c 0
 358 338 356 335 350 333 c 1
 276 315 237 340 197 297 c 0
 174 273 164 247 164 219 c 0
 164 193 177 160 191 146 c 1
 195 145 204 142 216 142 c 0
 221 142 228 143 235 144 c 0
 287 151 297 231 380 240 c 0
 381 240 382 240 383 240 c 0
 385 240 389 241 393 241 c 0
EndSplineSet
Substitution2: "Contextual Form 0001-1" ya.0001
EndChar

StartChar: ra
Encoding: 43 2352 43
Width: 576
VWidth: 0
Flags: W
HStem: 492 127<127.328 193.952>
VStem: 241 88<135.142 516.593>
AnchorPoint: "repha" 249 552 basechar 0
AnchorPoint: "aakaara" 408 594 basechar 0
AnchorPoint: "virama" 277 -120 basechar 0
AnchorPoint: "iikaara" 408 594 basechar 0
AnchorPoint: "ekaara" 120 594 basechar 0
AnchorPoint: "bindu" 277 740 basechar 0
LayerCount: 2
Fore
SplineSet
244 528 m 1
 229 535 217 541 201 553 c 1
 197 544 200 521 194 499 c 0
 193 497 190 492 179 492 c 0
 174 492 169 493 161 495 c 0
 145 500 115 517 107 536 c 2
 66 635 l 1
 127 615 l 1
 134 619 141 619 150 619 c 0
 183 619 222 591 232 583 c 1
 281 588 313 609 372 624 c 0
 374 625 377 625 379 625 c 0
 405 625 452 596 452 574 c 0
 452 570 450 567 449 566 c 0
 395 526 334 531 332 483 c 1
 328 285 l 1
 329 112 l 2
 329 87 323 72 300 70 c 1
 327 49 l 1
 372 17 400 8 467 -31 c 2
 510 -56 l 1
 488 -90 l 1
 445 -65 l 2
 399 -38 354 -21 285 29 c 0
 212 82 181 121 125 170 c 0
 119 176 108 187 108 195 c 0
 108 201 115 204 123 204 c 0
 134 204 152 200 172 186 c 0
 197 168 219 149 238 135 c 1
 239 138 241 143 241 152 c 2
 240 327 l 1
 244 525 l 1
 244 528 l 1
EndSplineSet
Substitution2: "Contextual Form 0001-1" ra.0001
EndChar

StartChar: la
Encoding: 44 2354 44
Width: 804
VWidth: 0
Flags: W
HStem: -9 60<210.605 372.37> -1 60<288.446 470.473> 492 135<338.235 403.951> 567 61<416.3 442.906>
VStem: 76 88<89.7058 160.905> 380 88<202.5 284.086> 509 88<140.578 492.256> 525 89<137 333.23>
AnchorPoint: "aakaara" 678 594 basechar 0
AnchorPoint: "virama" 400 -120 basechar 0
AnchorPoint: "repha" 521 545 basechar 0
AnchorPoint: "iikaara" 678 594 basechar 0
AnchorPoint: "ekaara" 321 600 basechar 0
AnchorPoint: "bindu" 500 740 basechar 0
LayerCount: 2
Fore
SplineSet
649 625 m 0x1e
 675 625 722 594 722 574 c 0
 722 571 721 568 720 567 c 0
 673 524 622 522 611 472 c 0
 600 424 597 384 597 345 c 0x1e
 597 261 614 184 614 79 c 0
 614 72 608 69 600 69 c 0
 594 69 586 70 580 72 c 2
 361 147 l 2
 338 156 307 180 307 195 c 0
 307 199 309 202 315 204 c 1
 373 219 380 233 380 251 c 0
 380 272 373 290 367 300 c 1
 363 299 362 299 359 298 c 0
 265 264 213 221 170 132 c 0
 166 123 164 116 164 109 c 0
 164 89 176 73 180 70 c 0
 181 70 182 69 182 69 c 1
 219 54 239 51 257 51 c 0x9d
 281 51 304 59 344 59 c 0
 406 59 503 38 683 -43 c 2
 727 -63 l 1
 729 -109 l 1
 685 -89 l 2
 518 -14 448 -1 404 -1 c 0x4d
 374 -1 355 -9 317 -9 c 0
 289 -9 250 -4 192 20 c 0
 184 23 172 29 159 36 c 0
 108 66 85 102 78 131 c 0
 77 136 76 142 76 149 c 0
 76 159 77 169 82 180 c 0
 126 272 185 321 283 356 c 0
 290 359 302 361 313 361 c 0
 330 361 355 358 386 340 c 0
 402 331 416 319 427 308 c 0
 458 276 468 244 468 211 c 0
 468 194 463 179 443 166 c 1
 525 137 l 1x8d
 523 230 509 303 509 385 c 0
 509 425 512 468 523 517 c 1
 514 519 497 523 480 532 c 0
 456 544 438 559 428 567 c 1
 426 567 l 1x9e
 413 564 420 533 404 498 c 0
 403 496 399 492 390 492 c 0
 386 492 381 492 374 494 c 0
 358 499 328 514 318 534 c 2
 265 640 l 1
 338 619 l 1
 343 625 349 625 359 627 c 1
 362 627 l 2x2e
 365 627 369 628 372 628 c 0
 389 628 409 623 427 615 c 0
 464 597 481 579 485 576 c 1
 487 576 488 575 489 575 c 2
 491 575 l 1
 569 576 575 602 641 623 c 0
 643 624 646 625 649 625 c 0x1e
EndSplineSet
Substitution2: "Contextual Form 0001-1" la.0001
EndChar

StartChar: va
Encoding: 45 2357 45
Width: 594
VWidth: 0
Flags: W
HStem: 489 133<126.552 193.951>
VStem: 82 88<228.946 342.231> 280 88<-6.4375 104.185 140 357.116>
AnchorPoint: "virama" 256 -120 basechar 0
AnchorPoint: "ekaara" 120 588 basechar 0
AnchorPoint: "iikaara" 474 606 basechar 0
AnchorPoint: "aakaara" 474 606 basechar 0
AnchorPoint: "repha" 309 543 basechar 0
AnchorPoint: "bindu" 306 740 basechar 0
LayerCount: 2
Fore
SplineSet
444 637 m 0
 471 637 518 606 518 586 c 0
 518 582 517 579 515 578 c 0
 494 563 472 555 452 548 c 1
 429 536 l 2
 423 533 416 530 408 527 c 1
 396 518 388 506 386 489 c 0
 374 326 367 251 367 105 c 1
 368 7 l 2
 369 -44 392 -6 482 -95 c 1
 513 -125 l 1
 449 -127 l 1
 418 -97 l 2
 413 -92 281 -28 280 47 c 1
 280 93 l 1
 253 108 213 125 157 168 c 0
 97 214 82 267 82 320 c 0
 82 367 96 387 138 429 c 0
 167 458 202 468 268 519 c 1
 277 527 l 1
 249 540 230 555 221 562 c 1
 202 561 212 534 194 495 c 0
 193 493 189 489 179 489 c 0
 175 489 169 490 162 492 c 0
 146 497 115 514 107 533 c 2
 84 586 l 1
 67 596 l 1
 74 608 l 1
 65 629 l 1
 83 623 l 1
 87 630 l 1
 116 613 l 1
 126 610 l 1
 132 617 145 622 163 622 c 0
 179 622 197 618 212 612 c 0
 250 597 270 576 275 573 c 1
 278 573 l 2
 297 573 315 578 329 584 c 1
 342 593 357 599 374 605 c 1
 393 615 413 626 436 635 c 0
 439 636 441 637 444 637 c 0
290 423 m 1
 259 403 238 391 222 375 c 0
 179 332 170 322 170 280 c 0
 170 228 197 190 202 186 c 0
 229 165 249 157 279 140 c 1
 279 145 l 2
 279 255 283 326 290 423 c 1
EndSplineSet
Substitution2: "Contextual Form 0001-1" va.0001
EndChar

StartChar: za
Encoding: 46 2358 46
Width: 894
VWidth: 0
Flags: W
HStem: 549 60<348.287 521.545>
VStem: 187 88<446.02 502.178> 246 88<63.0556 258.011> 562 88<72.0214 357.838>
AnchorPoint: "virama" 436 -120 basechar 0
AnchorPoint: "repha" 425 578 basechar 0
AnchorPoint: "aakaara" 765 591 basechar 0
AnchorPoint: "iikaara" 765 591 basechar 0
AnchorPoint: "ekaara" 264 537 basechar 0
AnchorPoint: "bindu" 436 740 basechar 0
LayerCount: 2
Fore
SplineSet
458 313 m 1xd0
 388 373 l 1
 415 378 l 2
 438 382 474 406 513 437 c 1
 507 440 l 1
 514 459 l 2
 522 480 526 498 526 514 c 0
 526 527 522 538 519 544 c 1
 510 546 495 549 475 549 c 0
 411 549 329 525 304 509 c 0
 288 499 275 474 275 451 c 2
 275 446 l 1xd0
 284 455 l 1
 368 402 l 1
 354 387 l 1
 349 382 l 1
 359 370 l 1
 341 372 l 1
 326 355 314 338 303 322 c 1
 304 321 l 1
 330 280 334 229 334 177 c 0
 334 96 320 16 301 -8 c 2
 288 -24 l 1
 203 28 l 1
 215 44 l 2
 228 60 246 140 246 217 c 0xb0
 246 231 245 245 244 259 c 1
 222 245 194 234 154 228 c 2
 126 224 l 1
 57 284 l 1
 86 288 l 2
 154 298 180 326 208 363 c 1
 205 368 l 1
 211 367 l 1
 220 379 229 392 240 406 c 1
 239 407 237 408 236 409 c 0
 186 445 187 473 187 491 c 0
 187 521 201 550 224 565 c 0
 256 586 337 609 415 609 c 0
 447 609 481 608 524 588 c 0
 535 583 546 576 554 571 c 0
 583 552 598 534 606 516 c 1
 654 559 698 600 724 619 c 2
 741 631 l 1
 823 576 l 1
 806 563 l 2
 778 542 732 497 680 450 c 1
 685 447 l 1
 680 427 l 2
 670 390 656 374 656 343 c 0
 656 277 650 226 650 178 c 0
 650 128 655 80 676 24 c 0
 696 -31 705 6 801 -76 c 2
 836 -106 l 1
 782 -116 l 1
 747 -86 l 2
 735 -76 620 -28 590 54 c 0
 567 116 562 167 562 218 c 0
 562 261 567 305 568 358 c 1
 538 337 509 322 485 318 c 2
 458 313 l 1xd0
EndSplineSet
Substitution2: "Contextual Form 0001-1" za.0001
EndChar

StartChar: Sa
Encoding: 47 2359 47
Width: 813
VWidth: 0
Flags: W
HStem: 162 60<297.291 463.066> 503 107<283.906 342.142>
VStem: 169 88<292.568 461.955> 496 106<250.476 314.856> 517 85<-2.61823 176 348 555.334>
AnchorPoint: "virama" 403 -120 basechar 0
AnchorPoint: "repha" 240 528 basechar 0
AnchorPoint: "aakaara" 594 597 basechar 0
AnchorPoint: "iikaara" 594 597 basechar 0
AnchorPoint: "ekaara" 120 585 basechar 0
AnchorPoint: "bindu" 403 740 basechar 0
LayerCount: 2
Fore
SplineSet
315 610 m 0xe8
 341 610 389 579 389 559 c 0
 389 556 388 552 386 551 c 0
 374 542 363 536 352 531 c 1
 337 521 322 510 300 503 c 1
 290 494 283 483 279 468 c 0
 266 425 257 388 257 353 c 0
 257 316 266 283 285 246 c 0
 291 235 296 230 297 229 c 0
 303 227 323 222 347 222 c 2
 365 222 l 1
 428 225 496 240 496 292 c 0xf0
 496 305 493 312 491 315 c 1
 480 320 422 336 371 375 c 2
 332 404 l 1
 377 422 l 1
 415 393 l 2
 421 389 462 385 517 348 c 1
 514 566 l 2
 514 597 539 606 551 623 c 2
 563 639 l 1
 648 588 l 1
 637 571 l 1
 620 547 602 542 602 526 c 2
 608 40 l 1
 608 -84 618 -31 709 -91 c 2
 750 -118 l 1
 719 -146 l 1
 677 -119 l 2
 649 -101 520 -62 520 80 c 1
 519 176 l 1
 490 166 457 163 427 162 c 1
 407 162 l 2
 374 162 327 163 270 198 c 0
 242 216 217 240 201 270 c 0
 179 314 169 352 169 393 c 0
 169 413 171 434 176 457 c 1
 174 457 171 459 170 459 c 0
 154 464 124 482 116 501 c 2
 66 626 l 1
 153 597 l 1
 155 592 l 1
 160 592 147 591 147 591 c 1
 168 591 199 583 225 564 c 1
 239 574 255 580 272 588 c 1
 283 595 293 602 306 608 c 0
 309 609 311 610 315 610 c 0xe8
EndSplineSet
Substitution2: "Contextual Form 0001-1" Sa.0001
EndChar

StartChar: sa
Encoding: 48 2360 48
Width: 900
VWidth: 0
Flags: W
HStem: 261 60<108 186.125> 291 60<362.583 456.368>
VStem: 199 88<194.216 263.556> 599 87<20.2076 168 226 536.451>
AnchorPoint: "virama" 436 -120 basechar 0
AnchorPoint: "repha" 381 540 basechar 0
AnchorPoint: "aakaara" 687 594 basechar 0
AnchorPoint: "iikaara" 687 594 basechar 0
AnchorPoint: "ekaara" 246 579 basechar 0
AnchorPoint: "bindu" 436 740 basechar 0
LayerCount: 2
Fore
SplineSet
327 520 m 1x30
 330 524 335 528 341 533 c 1
 340 534 339 534 337 535 c 1
 333 533 329 529 327 520 c 1x30
474 622 m 0
 500 622 548 590 548 571 c 0
 548 567 547 564 545 563 c 0
 518 543 519 530 468 505 c 0
 409 476 402 459 397 439 c 0
 392 418 392 390 361 351 c 1
 456 349 517 298 599 226 c 1
 604 543 l 2
 604 580 630 593 644 619 c 2
 653 636 l 1
 740 587 l 1
 730 569 l 2
 713 537 692 527 692 501 c 2
 686 84 l 1
 686 -62 718 -37 787 -74 c 2
 831 -98 l 1
 816 -136 l 1
 773 -112 l 2
 711 -78 598 -36 598 126 c 1
 599 168 l 1
 587 178 l 1
 460 287 475 291 425 291 c 2
 402 291 l 1x70
 357 290 327 290 313 271 c 0
 295 247 287 228 287 211 c 0
 287 170 318 157 366 131 c 2
 410 107 l 1
 398 68 l 1
 354 91 l 2
 297 121 199 181 199 251 c 0
 199 255 199 260 200 264 c 1
 189 262 179 261 169 261 c 0
 156 261 142 262 125 269 c 2
 81 287 l 1
 71 336 l 1
 108 321 l 1
 109 321 l 2xb0
 142 321 231 356 261 387 c 0
 287 414 297 434 302 451 c 1
 300 451 297 453 296 453 c 0
 280 458 250 476 242 495 c 2
 192 620 l 1
 266 595 l 1
 273 598 277 597 285 597 c 0
 309 597 341 583 357 572 c 1
 397 580 420 601 466 620 c 0
 469 621 471 622 474 622 c 0
EndSplineSet
Substitution2: "Contextual Form 0001-1" sa.0001
EndChar

StartChar: ha
Encoding: 49 2361 49
Width: 822
VWidth: 0
Flags: W
HStem: 297 60<397.382 500.306> 546 60<276.89 315.975>
VStem: 285 88<240.281 272.998>
AnchorPoint: "virama" 427 -120 basechar 0
AnchorPoint: "repha" 381 531 basechar 0
AnchorPoint: "aakaara" 579 597 basechar 0
AnchorPoint: "iikaara" 579 597 basechar 0
AnchorPoint: "ekaara" 165 579 basechar 0
AnchorPoint: "bindu" 427 740 basechar 0
LayerCount: 2
Fore
SplineSet
550 628 m 0
 576 628 623 597 623 577 c 0
 623 573 622 570 620 569 c 0
 530 509 480 473 388 416 c 0
 311 368 262 341 193 302 c 1
 227 285 258 264 285 240 c 1
 284 246 285 251 285 255 c 0
 285 322 328 357 405 357 c 0
 460 357 492 347 530 322 c 0
 659 237 593 55 634 -9 c 0
 656 -44 665 -33 729 -88 c 2
 764 -118 l 1
 710 -128 l 1
 675 -98 l 2
 657 -83 593 -52 554 9 c 0
 490 110 529 246 497 294 c 1
 491 295 481 297 465 297 c 0
 410 297 373 272 373 215 c 0
 373 184 385 146 397 118 c 1
 408 101 415 86 419 73 c 0
 419 71 420 70 420 69 c 0
 420 62 413 60 405 60 c 0
 372 60 337 94 333 101 c 0
 325 116 319 129 314 141 c 1
 294 173 239 224 214 243 c 0
 185 265 186 256 117 291 c 0
 116 292 111 293 100 301 c 0
 89 309 75 323 75 333 c 0
 75 336 77 338 80 340 c 0
 169 391 221 418 308 472 c 2
 365 508 l 1
 333 520 309 541 304 545 c 0
 303 545 299 546 291 546 c 2
 286 546 l 1
 277 545 277 506 260 468 c 0
 259 465 253 458 233 463 c 0
 218 467 187 482 175 502 c 2
 107 618 l 1
 189 597 l 1
 193 591 l 1
 198 602 203 605 225 606 c 1
 231 606 l 2
 258 606 285 600 311 587 c 0
 333 576 345 565 351 561 c 1
 424 566 463 600 541 626 c 0
 543 627 547 628 550 628 c 0
EndSplineSet
Substitution2: "Contextual Form 0001-1" ha.0001
EndChar

StartChar: kSa
Encoding: 50 -1 50
Width: 891
VWidth: 0
Flags: W
HStem: 79 60<317.283 484.932> 421 125<377.25 468.206> 458 149<227.328 293.952>
VStem: 75 210<202.5 280.19> 497 107<154.518 208.856> 517 87<34 87 242 332>
AnchorPoint: "repha" 416 516 basechar 0
AnchorPoint: "aakaara" 622 588 basechar 0
AnchorPoint: "iikaara" 622 588 basechar 0
AnchorPoint: "ekaara" 202 582 basechar 0
AnchorPoint: "bindu" 423 740 basechar 0
AnchorPoint: "virama" 423 -120 basechar 0
LayerCount: 2
Fore
SplineSet
593 619 m 0xd4
 619 619 666 589 666 568 c 0
 666 564 664 560 661 559 c 0
 584 519 531 501 470 466 c 1
 607 419 703 298 779 256 c 2
 823 232 l 1
 806 195 l 1
 763 220 l 1
 688 261 641 300 604 332 c 1
 609 -6 l 2
 609 -33 616 -49 620 -55 c 1
 631 -60 660 -67 695 -83 c 2
 739 -103 l 1
 738 -148 l 1
 693 -127 l 2
 685 -123 633 -115 579 -76 c 0
 531 -41 521 -9 521 34 c 2
 520 87 l 1
 490 81 455 82 430 80 c 0
 421 79 410 79 400 79 c 0
 378 79 345 79 298 105 c 0
 277 117 254 133 241 153 c 1
 214 186 201 215 198 241 c 1
 161 211 l 2
 159 209 155 208 149 208 c 0
 139 208 123 211 104 224 c 0
 92 232 75 247 75 258 c 0
 75 261 76 263 78 265 c 0
 140 318 182 362 232 406 c 1
 231 427 l 1
 247 420 l 1
 279 449 325 481 368 509 c 1
 344 523 327 538 318 546 c 1xd4
 298 544 309 508 294 465 c 0
 293 462 290 458 280 458 c 0
 276 458 270 459 264 461 c 0
 249 465 218 481 208 501 c 2
 146 622 l 1
 227 599 l 1
 234 607 241 607 258 607 c 2
 261 607 l 2xb4
 277 607 296 603 313 595 c 0
 357 576 381 550 385 546 c 1
 461 549 502 588 584 617 c 0
 586 618 590 619 593 619 c 0xd4
285 215 m 0
 285 190 296 166 317 141 c 1
 323 140 331 139 340 139 c 0
 350 139 357 139 364 140 c 0
 432 146 497 139 497 188 c 0xd8
 497 199 494 206 492 209 c 1
 480 215 426 230 376 267 c 2
 337 296 l 1
 381 314 l 1
 420 285 l 2
 425 281 464 277 517 242 c 1
 514 403 l 1
 493 414 470 421 439 421 c 0
 433 421 428 421 421 420 c 0
 397 418 362 390 320 352 c 1
 317 297 285 257 285 215 c 0
EndSplineSet
Substitution2: "Contextual Form 0001-1" kSa.0001
LCarets2: 2 0 0 
Ligature2: "kSa-1" ka virAma Sa
EndChar

StartChar: avagrAha
Encoding: 52 2365 52
Width: 603
VWidth: 0
Flags: W
HStem: -30 60<271.278 385.436> 552 60<277.773 407.889>
VStem: 131 88<429.279 500.803> 431 88<77.7254 171.182>
LayerCount: 2
Fore
SplineSet
491 495 m 0
 450 495 399 548 394 552 c 1
 391 552 l 1
 317 546 258 543 227 479 c 0
 222 468 219 461 219 451 c 0
 219 417 246 393 285 347 c 0
 322 303 410 292 486 188 c 0
 508 158 519 128 519 98 c 0
 519 79 514 58 502 38 c 0
 472 -12 436 -30 357 -30 c 0
 239 -30 130 107 103 125 c 2
 62 152 l 1
 96 179 l 1
 137 151 l 1
 275 59 243 30 297 30 c 0
 364 30 387 41 416 88 c 0
 427 105 431 123 431 138 c 0
 431 162 421 184 408 202 c 0
 366 258 302 251 213 355 c 0
 182 391 131 441 131 491 c 0
 131 504 133 517 139 529 c 0
 174 602 254 606 328 612 c 1
 335 612 l 2
 365 612 408 593 425 580 c 1
 431 589 436 596 439 603 c 2
 447 622 l 1
 534 574 l 1
 527 555 l 2
 520 537 504 521 503 514 c 1
 505 511 506 507 506 504 c 0
 506 499 501 495 491 495 c 0
EndSplineSet
EndChar

StartChar: AT
Encoding: 53 2366 53
Width: 80
VWidth: 0
GlyphClass: 4
Flags: W
HStem: 410 283
VStem: -219 88<560.347 618.515>
AnchorPoint: "aakaara" -175 591 mark 0
LayerCount: 2
Fore
SplineSet
-67 693 m 1
 -1 632 l 1
 -31 630 l 1
 -100 624 -131 626 -131 578 c 2
 -131 571 l 1
 -129 539 -71 501 -16 474 c 2
 29 452 l 1
 22 410 l 1
 -22 432 l 2
 -83 463 -215 539 -219 611 c 1
 -219 618 l 2
 -219 681 -162 684 -97 690 c 2
 -67 693 l 1
EndSplineSet
Substitution2: "Contextual Form 0001-1" AT.0001
Substitution2: "Contextual Form 0003-1" AT.0003
Substitution2: "Contextual Form 0002-1" AT.0002
EndChar

StartChar: AT.0001
Encoding: 54 -1 54
Width: 80
VWidth: 0
GlyphClass: 4
Flags: W
HStem: 339 221
VStem: -140 88<408.264 493.36>
AnchorPoint: "aakaara" -180 378 mark 0
LayerCount: 2
Fore
SplineSet
-228 379 m 1
 -221 421 l 1
 -179 400 l 1
 -159 410 -142 414 -141 433 c 0
 -140 442 -140 447 -140 454 c 0
 -140 481 -145 493 -166 531 c 1
 -181 560 l 1
 -98 537 l 1
 -82 509 l 2
 -60 469 -52 445 -52 414 c 0
 -52 408 -52 399 -53 389 c 0
 -55 364 -76 353 -96 344 c 0
 -101 341 -110 339 -121 339 c 0
 -139 339 -164 348 -183 357 c 2
 -228 379 l 1
EndSplineSet
EndChar

StartChar: AT.0002
Encoding: 55 -1 55
Width: 80
VWidth: 0
GlyphClass: 4
Flags: W
HStem: 381 60<-183 -140.984>
VStem: -243 243
AnchorPoint: "aakaara" -180 411 mark 0
LayerCount: 2
Fore
SplineSet
-183 381 m 1
 -243 441 l 1
 -203 441 l 2
 -190 441 -176 440 -158 435 c 0
 -148 432 -137 427 -129 423 c 0
 -93 404 -78 381 -73 370 c 0
 -28 276 -25 217 -5 121 c 2
 0 97 l 1
 -88 132 l 1
 -93 157 l 1
 -113 249 -115 304 -150 381 c 1
 -183 381 l 1
EndSplineSet
EndChar

StartChar: AT.0003
Encoding: 56 -1 56
Width: 80
VWidth: 0
GlyphClass: 4
Flags: W
HStem: 122 60<-195.406 -145.272>
VStem: -134 88<194.064 331.931>
AnchorPoint: "aakaara" -180 153 mark 0
LayerCount: 2
Fore
SplineSet
-196 130 m 1
 -241 189 l 1
 -202 183 l 1
 -202 183 -198 182 -193 182 c 0
 -169 182 -138 198 -136 226 c 0
 -134 244 -134 256 -134 269 c 0
 -134 356 -164 353 -182 434 c 1
 -188 458 l 1
 -99 423 l 1
 -94 398 l 1
 -80 336 -46 324 -46 229 c 0
 -46 216 -46 201 -48 182 c 0
 -52 143 -87 122 -133 122 c 0
 -135 122 -137 122 -139 122 c 0
 -143 122 -149 122 -158 123 c 2
 -196 130 l 1
EndSplineSet
EndChar

StartChar: iT
Encoding: 57 2367 57
Width: 164
VWidth: 0
GlyphClass: 4
Flags: W
HStem: 549 60<241.021 311.308>
VStem: 75 88<65.0298 429.34>
LayerCount: 2
Fore
SplineSet
75 297 m 0
 75 424 90 609 239 609 c 0
 250 609 266 608 290 598 c 0
 307 591 324 579 329 576 c 1
 368 565 l 1
 396 509 l 1
 354 521 l 2
 332 527 308 542 297 549 c 1
 292 549 286 547 279 546 c 0
 188 527 163 378 163 257 c 0
 163 243 164 229 164 217 c 0
 170 9 211 -39 238 -53 c 2
 282 -77 l 1
 268 -115 l 1
 224 -91 l 2
 96 -21 82 66 76 257 c 0
 76 269 75 281 75 297 c 0
EndSplineSet
Substitution2: "Contextual Form 0001-1" iT.0001
EndChar

StartChar: iT.0001
Encoding: 58 -1 58
Width: 140
VWidth: 0
GlyphClass: 4
Flags: W
HStem: 566 60<286.021 382.647>
VStem: 76 88<125.859 407.629>
LayerCount: 2
Fore
SplineSet
471 567 m 1
 505 510 l 1
 464 520 l 2
 414 532 372 564 372 564 c 2
 370 564 365 566 359 566 c 0
 351 566 337 564 323 561 c 0
 218 539 164 368 164 322 c 0
 164 199 189 23 236 -52 c 2
 254 -81 l 1
 172 -61 l 1
 154 -32 l 2
 93 66 76 236 76 362 c 0
 76 416 121 594 253 621 c 0
 269 624 283 626 299 626 c 0
 369 626 420 580 430 578 c 2
 471 567 l 1
EndSplineSet
EndChar

StartChar: IT
Encoding: 59 2368 59
Width: 180
VWidth: 0
GlyphClass: 4
Flags: W
VStem: -105 88<73.0782 277.148> -68 88<293.086 567.34>
AnchorPoint: "iikaara" -180 576 mark 0
LayerCount: 2
Fore
SplineSet
-143 654 m 2x40
 -133 654 l 1
 -119 653 -104 649 -86 642 c 0
 36 590 14 481 18 439 c 0
 19 425 20 412 20 400 c 0x40
 20 297 -17 225 -17 136 c 0
 -17 113 -15 66 -3 54 c 0
 1 51 33 41 75 15 c 2
 118 -11 l 1
 91 -42 l 1
 49 -15 l 2
 34 -6 -13 8 -53 40 c 0
 -96 75 -105 110 -105 176 c 0x80
 -105 271 -68 343 -68 440 c 0
 -68 451 -69 463 -70 477 c 0
 -74 517 -77 565 -89 593 c 1
 -112 591 -135 574 -136 555 c 1
 -136 533 l 1
 -225 575 l 1
 -224 597 l 2
 -223 631 -190 654 -143 654 c 2x40
EndSplineSet
Substitution2: "Contextual Form 0001-1" IT.0001
Substitution2: "Contextual Form 0004-1" IT.0004
Substitution2: "Contextual Form 0003-1" IT.0003
Substitution2: "Contextual Form 0002-1" IT.0002
EndChar

StartChar: IT.0001
Encoding: 60 -1 60
Width: 180
VWidth: 0
GlyphClass: 4
Flags: W
HStem: 594 60<-128.782 -58.3495>
VStem: -28 88<70.3207 249.858> 13 88<287.848 486.285>
AnchorPoint: "iikaara" -180 576 mark 0
LayerCount: 2
Fore
SplineSet
-143 654 m 2xa0
 -133 654 l 1
 -112 653 -88 646 -64 635 c 0
 61 578 101 465 101 373 c 0xa0
 101 281 60 210 60 124 c 0
 60 104 63 63 73 53 c 0
 77 50 109 40 151 14 c 2
 194 -12 l 1
 167 -43 l 1
 125 -16 l 2
 110 -7 63 7 23 39 c 0
 -18 73 -28 103 -28 164 c 0xc0
 -28 257 13 328 13 413 c 0
 13 515 -51 584 -63 590 c 0
 -65 591 -69 593 -78 594 c 1
 -83 594 l 2
 -107 594 -135 576 -136 555 c 1
 -136 533 l 1
 -225 575 l 1
 -224 597 l 2
 -223 631 -190 654 -143 654 c 2xa0
EndSplineSet
EndChar

StartChar: IT.0002
Encoding: 61 -1 61
Width: 180
VWidth: 0
GlyphClass: 4
Flags: W
HStem: 594 60<-128.782 -59.0311>
VStem: 28 88<106.444 437.616>
AnchorPoint: "iikaara" -180 576 mark 0
LayerCount: 2
Fore
SplineSet
-143 654 m 2
 -133 654 l 1
 -118 653 -104 650 -89 645 c 0
 27 605 70 503 93 442 c 0
 115 385 117 336 117 291 c 2
 116 211 l 2
 116 167 119 123 136 76 c 0
 149 39 145 63 223 15 c 2
 266 -11 l 1
 239 -42 l 1
 197 -15 l 2
 194 -13 76 32 50 106 c 0
 31 159 28 208 28 253 c 2
 29 333 l 2
 29 377 26 422 7 472 c 0
 -29 568 -66 593 -78 594 c 1
 -83 594 l 2
 -107 594 -135 576 -136 555 c 1
 -136 533 l 1
 -225 575 l 1
 -224 597 l 2
 -223 631 -190 654 -143 654 c 2
EndSplineSet
EndChar

StartChar: IT.0003
Encoding: 62 -1 62
Width: 180
VWidth: 0
GlyphClass: 4
Flags: W
HStem: 594 60<-128.782 -39.9498>
AnchorPoint: "iikaara" -180 576 mark 0
LayerCount: 2
Fore
SplineSet
-143 654 m 2
 -133 654 l 1
 -118 653 -104 651 -89 648 c 0
 2 628 122 561 184 465 c 0
 276 323 218 208 277 83 c 0
 295 45 300 62 377 15 c 2
 420 -11 l 1
 393 -42 l 1
 351 -15 l 2
 347 -12 227 32 191 109 c 0
 123 255 177 370 104 483 c 0
 62 548 2 578 -51 590 c 0
 -60 592 -69 593 -78 594 c 1
 -83 594 l 2
 -107 594 -135 576 -136 555 c 1
 -136 533 l 1
 -225 575 l 1
 -224 597 l 2
 -223 631 -190 654 -143 654 c 2
EndSplineSet
EndChar

StartChar: IT.0004
Encoding: 63 -1 63
Width: 180
VWidth: 0
GlyphClass: 4
Flags: W
HStem: 594 60<-128.782 -30.0114>
VStem: 50 88<63.3207 243.07> 94 88<294.809 479.724>
AnchorPoint: "iikaara" -180 576 mark 0
LayerCount: 2
Fore
SplineSet
-143 654 m 2xa0
 -133 654 l 1
 -103 652 -68 646 -30 633 c 0
 53 605 137 543 165 469 c 0
 178 434 182 404 182 376 c 0xa0
 182 285 138 208 138 117 c 0
 138 97 141 56 151 46 c 0
 155 43 187 33 229 7 c 2
 272 -19 l 1
 245 -50 l 1
 203 -23 l 2
 188 -14 141 0 101 32 c 0
 60 66 50 96 50 157 c 0xc0
 50 255 94 332 94 416 c 0
 94 442 90 470 79 499 c 0
 59 551 26 568 -10 580 c 0
 -31 587 -55 592 -77 594 c 1
 -83 594 l 2
 -107 594 -135 576 -136 555 c 1
 -136 533 l 1
 -225 575 l 1
 -224 597 l 2
 -223 631 -190 654 -143 654 c 2xa0
EndSplineSet
EndChar

StartChar: uT
Encoding: 64 2369 64
Width: 0
VWidth: 0
GlyphClass: 4
Flags: W
HStem: -228 60<-343.622 -207> -30 60<-295 -242.235>
VStem: -230 88<-146.496 -43.4435>
AnchorPoint: "ukaara" -292 0 mark 0
LayerCount: 2
Fore
SplineSet
-295 -30 m 1
 -355 30 l 1
 -322 30 l 2
 -296 30 -269 27 -236 12 c 0
 -226 8 -218 3 -211 -1 c 0
 -142 -45 -142 -89 -142 -128 c 0
 -142 -194 -182 -228 -232 -228 c 0
 -398 -228 -485 -103 -525 -77 c 2
 -566 -50 l 1
 -532 -23 l 1
 -491 -51 l 1
 -354 -143 -409 -168 -292 -168 c 0
 -272 -168 -230 -146 -230 -88 c 0
 -230 -64 -236 -43 -242 -32 c 1
 -247 -31 -253 -30 -262 -30 c 2
 -295 -30 l 1
EndSplineSet
Substitution2: "Contextual Form 0004-1" uT.0004
Substitution2: "Contextual Form 0001-1" uT.0001
Substitution2: "Contextual Form 0003-1" uT.0003
Substitution2: "Contextual Form 0002-1" uT.0002
EndChar

StartChar: uT.0001
Encoding: 65 -1 65
Width: 0
VWidth: 0
GlyphClass: 4
Flags: W
HStem: -228 60<-343.622 -207>
VStem: -337 88<8.59485 140> -230 88<-146.496 -43.4435>
AnchorPoint: "ukaara" -293 138 mark 0
LayerCount: 2
Fore
SplineSet
-337 181 m 1
 -249 140 l 1
 -249 118 l 1
 -248 17 l 1
 -233 11 -222 5 -211 -1 c 0
 -142 -45 -142 -89 -142 -128 c 0
 -142 -194 -182 -228 -232 -228 c 0
 -398 -228 -485 -103 -525 -77 c 2
 -566 -50 l 1
 -532 -23 l 1
 -491 -51 l 1
 -354 -143 -409 -168 -292 -168 c 0
 -272 -168 -230 -146 -230 -88 c 0
 -230 -64 -236 -43 -242 -32 c 1
 -247 -31 -253 -30 -262 -30 c 1
 -262 -30 -320 -15 -334 11 c 0
 -339 20 -340 48 -340 76 c 0
 -340 114 -337 155 -337 159 c 2
 -337 181 l 1
EndSplineSet
EndChar

StartChar: uT.0002
Encoding: 66 -1 66
Width: 0
VWidth: 0
GlyphClass: 4
Flags: W
HStem: 259 175
VStem: -232 280
AnchorPoint: "ukaara" -180 333 mark 0
LayerCount: 2
Fore
SplineSet
-205 379 m 1
 -232 434 l 1
 -190 422 l 2
 -180 419 -159 420 -121 403 c 0
 -109 398 -99 392 -93 388 c 0
 -34 351 -13 322 12 301 c 2
 48 271 l 1
 -5 259 l 1
 -40 289 l 2
 -82 324 -97 342 -118 356 c 1
 -122 357 -135 358 -162 366 c 2
 -205 379 l 1
EndSplineSet
EndChar

StartChar: uT.0003
Encoding: 67 -1 67
Width: 0
VWidth: 0
GlyphClass: 4
Flags: W
VStem: -289 88<-27.9977 108>
AnchorPoint: "ukaara" -245 106 mark 0
LayerCount: 2
Fore
SplineSet
-425 21 m 0
 -425 27 -418 30 -410 30 c 0
 -399 30 -381 26 -361 12 c 0
 -335 -6 -307 -25 -300 -28 c 0
 -298 -28 -289 -25 -289 -1 c 2
 -289 149 l 1
 -201 108 l 1
 -201 -41 l 2
 -201 -67 -209 -82 -228 -87 c 1
 -220 -93 -214 -96 -208 -100 c 0
 -157 -133 -125 -148 -63 -184 c 2
 -20 -209 l 1
 -42 -243 l 1
 -85 -218 l 2
 -136 -188 -175 -170 -240 -128 c 0
 -309 -83 -343 -52 -400 -11 c 0
 -409 -4 -425 11 -425 21 c 0
EndSplineSet
EndChar

StartChar: uT.0004
Encoding: 68 -1 68
Width: 0
VWidth: 0
Flags: W
HStem: -228 60<-343.622 -207>
VStem: -230 88<-146.496 -44.191>
AnchorPoint: "ukaara" -210 50 mark 0
LayerCount: 2
Fore
SplineSet
-231 90 m 1
 -151 33 l 1
 -210 -2 l 1
 -142 -46 -142 -89 -142 -128 c 0
 -142 -194 -182 -228 -232 -228 c 0
 -398 -228 -485 -103 -525 -77 c 2
 -566 -50 l 1
 -532 -23 l 1
 -491 -51 l 1
 -354 -143 -409 -168 -292 -168 c 0
 -272 -168 -230 -146 -230 -88 c 0
 -230 -64 -236 -43 -242 -32 c 1
 -245 -32 -248 -31 -254 -31 c 0
 -256 -31 -258 -30 -262 -30 c 0
 -263 -30 -334 12 -334 13 c 0
 -334 14 -335 15 -335 16 c 0
 -335 35 -264 70 -251 78 c 2
 -231 90 l 1
EndSplineSet
EndChar

StartChar: UT
Encoding: 69 2370 69
Width: 0
VWidth: 0
GlyphClass: 4
Flags: W
HStem: -228 60<-343.622 -207> -30 60<-295 -242.235>
VStem: -230 88<-145.717 -115>
AnchorPoint: "ukaara" -292 0 mark 0
LayerCount: 2
Fore
SplineSet
-295 -30 m 1
 -355 30 l 1
 -322 30 l 2
 -296 30 -269 27 -236 12 c 1
 -198 -3 -164 -38 -153 -62 c 1
 -138 -66 -111 -79 -101 -86 c 0
 -42 -123 -21 -152 4 -173 c 2
 40 -203 l 1
 -13 -215 l 1
 -48 -185 l 2
 -90 -150 -105 -132 -126 -118 c 0
 -128 -117 -133 -117 -142 -115 c 1
 -142 -128 l 2
 -142 -194 -182 -228 -232 -228 c 0
 -398 -228 -485 -103 -525 -77 c 2
 -566 -50 l 1
 -532 -23 l 1
 -491 -51 l 1
 -354 -143 -409 -168 -292 -168 c 0
 -272 -168 -230 -146 -230 -88 c 0
 -230 -74 -232 -61 -235 -50 c 1
 -240 -40 l 1
 -238 -41 l 1
 -239 -38 -241 -34 -242 -32 c 1
 -247 -31 -253 -30 -262 -30 c 2
 -295 -30 l 1
EndSplineSet
Substitution2: "Contextual Form 0004-1" UT.0004
Substitution2: "Contextual Form 0001-1" UT.0001
Substitution2: "Contextual Form 0003-1" UT.0003
Substitution2: "Contextual Form 0002-1" UT.0002
EndChar

StartChar: UT.0001
Encoding: 70 -1 70
Width: 0
VWidth: 0
GlyphClass: 4
Flags: W
HStem: -228 60<-343.622 -207>
VStem: -337 88<8.59485 140> -230 88<-145.717 -115>
AnchorPoint: "ukaara" -293 138 mark 0
LayerCount: 2
Fore
SplineSet
-337 181 m 1
 -249 140 l 1
 -249 118 l 1
 -248 17 l 1
 -233 11 -222 5 -211 -1 c 0
 -179 -21 -162 -42 -153 -62 c 1
 -138 -66 -111 -79 -101 -86 c 0
 -42 -123 -21 -152 4 -173 c 2
 40 -203 l 1
 -13 -215 l 1
 -48 -185 l 2
 -90 -150 -105 -132 -126 -118 c 0
 -128 -117 -133 -117 -142 -115 c 1
 -142 -128 l 2
 -142 -194 -182 -228 -232 -228 c 0
 -398 -228 -485 -103 -525 -77 c 2
 -566 -50 l 1
 -532 -23 l 1
 -491 -51 l 1
 -354 -143 -409 -168 -292 -168 c 0
 -272 -168 -230 -146 -230 -88 c 0
 -230 -74 -232 -61 -235 -50 c 1
 -240 -40 l 1
 -238 -41 l 1
 -239 -38 -241 -34 -242 -32 c 1
 -247 -31 -253 -30 -262 -30 c 1
 -262 -30 -320 -15 -334 11 c 0
 -339 20 -340 48 -340 76 c 0
 -340 114 -337 155 -337 159 c 2
 -337 181 l 1
EndSplineSet
EndChar

StartChar: UT.0002
Encoding: 71 -1 71
Width: 0
VWidth: 0
GlyphClass: 4
Flags: W
HStem: 198 294
VStem: -236 280
AnchorPoint: "ukaara" -180 333 mark 0
LayerCount: 2
Fore
SplineSet
-41 492 m 1
 38 436 l 1
 19 425 l 2
 -17 404 -37 401 -63 378 c 0
 -81 362 -89 347 -100 329 c 1
 -97 327 l 1
 -38 290 -17 261 8 240 c 2
 44 210 l 1
 -9 198 l 1
 -44 228 l 2
 -86 263 -101 281 -122 295 c 1
 -123 295 l 1
 -128 288 l 1
 -149 300 l 1
 -154 301 -159 303 -166 305 c 2
 -209 318 l 1
 -236 373 l 1
 -198 362 l 1
 -181 386 -174 408 -147 432 c 0
 -118 458 -93 463 -61 481 c 2
 -41 492 l 1
EndSplineSet
EndChar

StartChar: UT.0003
Encoding: 72 -1 72
Width: 0
VWidth: 0
GlyphClass: 4
Flags: W
VStem: -289 88<-27.9977 4 44.2029 61 76 158>
AnchorPoint: "ukaara" -245 156 mark 0
LayerCount: 2
Fore
SplineSet
-425 21 m 0
 -425 27 -418 30 -410 30 c 0
 -399 30 -381 26 -361 12 c 0
 -335 -6 -307 -25 -300 -28 c 0
 -298 -28 -289 -25 -289 -1 c 2
 -289 61 l 1
 -298 79 l 1
 -289 76 l 1
 -289 199 l 1
 -201 158 l 1
 -201 54 l 1
 -188 48 -167 39 -159 33 c 0
 -100 -4 -79 -33 -54 -54 c 2
 -18 -84 l 1
 -71 -96 l 1
 -106 -66 l 2
 -148 -31 -163 -13 -184 1 c 0
 -186 2 -192 2 -201 4 c 1
 -201 -41 l 2
 -201 -67 -209 -82 -228 -87 c 1
 -220 -93 -214 -96 -208 -100 c 0
 -157 -133 -125 -148 -63 -184 c 2
 -20 -209 l 1
 -42 -243 l 1
 -85 -218 l 2
 -136 -188 -175 -170 -240 -128 c 0
 -309 -83 -343 -52 -400 -11 c 0
 -409 -4 -425 11 -425 21 c 0
EndSplineSet
EndChar

StartChar: UT.0004
Encoding: 73 -1 73
Width: 0
VWidth: 0
Flags: W
HStem: -228 60<-345.797 -206>
AnchorPoint: "ukaara" -210 50 mark 0
LayerCount: 2
Fore
SplineSet
-566 -50 m 1
 -532 -23 l 1
 -491 -51 l 1
 -351 -144 -409 -168 -292 -168 c 0
 -271 -168 -230 -144 -230 -88 c 0
 -230 -73 -232 -60 -235 -50 c 1
 -240 -40 l 1
 -238 -40 l 1
 -239 -37 -241 -34 -242 -32 c 1
 -246 -31 -250 -31 -254 -31 c 0
 -257 -31 -260 -30 -262 -30 c 0
 -316 -30 -335 -19 -335 -4 c 0
 -335 28 -251 78 -251 78 c 1
 -231 90 l 1
 -151 33 l 1
 -210 -2 l 1
 -179 -22 -162 -42 -153 -62 c 1
 -138 -66 -111 -79 -101 -86 c 0
 -42 -123 -21 -152 4 -173 c 2
 40 -203 l 1
 -13 -215 l 1
 -48 -185 l 2
 -90 -150 -105 -132 -126 -118 c 0
 -128 -117 -133 -117 -142 -115 c 1
 -142 -128 l 2
 -142 -192 -180 -228 -232 -228 c 0
 -396 -228 -482 -105 -525 -77 c 2
 -566 -50 l 1
EndSplineSet
EndChar

StartChar: RT
Encoding: 74 2371 74
Width: 0
VWidth: 0
GlyphClass: 4
Flags: W
HStem: -235 60<-484.85 -339.219> -30 60<-426.259 -383>
VStem: -576 88<-166.694 -85.7543>
AnchorPoint: "ukaara" -386 0 mark 0
LayerCount: 2
Fore
SplineSet
-383 30 m 1
 -323 -30 l 1
 -356 -30 l 2
 -405 -30 -475 -67 -486 -130 c 0
 -487 -137 -488 -141 -488 -144 c 0
 -488 -157 -485 -166 -483 -172 c 1
 -474 -174 -460 -175 -446 -175 c 0
 -370 -175 -297 -139 -243 -107 c 1
 -224 -95 l 1
 -144 -152 l 1
 -163 -163 l 1
 -218 -196 -291 -235 -386 -235 c 0
 -419 -235 -465 -235 -519 -199 c 0
 -528 -193 -538 -185 -546 -176 c 0
 -571 -150 -576 -129 -576 -104 c 0
 -576 -98 -575 -93 -574 -86 c 0
 -562 -12 -489 30 -416 30 c 2
 -383 30 l 1
EndSplineSet
Substitution2: "Contextual Form 0001-1" RT.0001
EndChar

StartChar: RT.0001
Encoding: 75 -1 75
Width: 0
VWidth: 0
GlyphClass: 4
Flags: W
HStem: -235 60<-484.85 -339.219>
VStem: -576 88<-166.694 -85.4744> -430 88<27.2611 161>
AnchorPoint: "ukaara" -386 159 mark 0
LayerCount: 2
Fore
SplineSet
-576 -104 m 0
 -576 -22 -500 24 -430 30 c 1
 -430 202 l 1
 -342 161 l 1
 -342 -20 l 2
 -342 -28 -350 -30 -356 -30 c 0
 -405 -30 -475 -67 -486 -130 c 0
 -487 -137 -488 -141 -488 -144 c 0
 -488 -157 -485 -166 -483 -172 c 1
 -474 -174 -460 -175 -446 -175 c 0
 -370 -175 -297 -139 -243 -107 c 1
 -224 -95 l 1
 -144 -152 l 1
 -163 -163 l 1
 -218 -196 -291 -235 -386 -235 c 0
 -419 -235 -465 -235 -519 -199 c 0
 -528 -193 -538 -185 -546 -176 c 0
 -571 -150 -576 -129 -576 -104 c 0
EndSplineSet
EndChar

StartChar: eT
Encoding: 77 2375 77
Width: 0
VWidth: 0
GlyphClass: 4
Flags: W
HStem: 585 60<-429.231 -365.877>
VStem: -524 88<542.717 607.5>
AnchorPoint: "ekaara" -279 549 mark 0
LayerCount: 2
Fore
SplineSet
-450 645 m 2
 -442 645 l 1
 -372 637 -296 593 -250 552 c 2
 -216 522 l 1
 -275 515 l 1
 -308 546 l 2
 -322 559 -360 585 -390 585 c 0
 -398 585 -436 570 -436 547 c 0
 -436 545 -436 542 -435 541 c 0
 -424 532 -400 517 -388 496 c 2
 -371 468 l 1
 -454 489 l 1
 -469 515 l 1
 -474 518 -493 532 -506 547 c 0
 -521 564 -524 577 -524 587 c 0
 -524 628 -482 645 -450 645 c 2
EndSplineSet
Substitution2: "Contextual Form 0001-1" eT.0001
EndChar

StartChar: eT.0001
Encoding: 78 -1 78
Width: 0
VWidth: 0
GlyphClass: 4
Flags: W
HStem: 585 60<-469.728 -365.877>
AnchorPoint: "ekaara" -279 549 mark 0
LayerCount: 2
Fore
SplineSet
-455 645 m 2
 -442 645 l 1
 -372 637 -296 593 -250 552 c 2
 -216 522 l 1
 -275 515 l 1
 -308 546 l 2
 -326 562 -356 580 -390 585 c 1
 -395 585 l 2
 -415 585 -468 578 -487 546 c 0
 -488 545 -488 544 -488 542 c 1
 -484 539 -451 521 -437 496 c 2
 -422 468 l 1
 -505 490 l 1
 -518 514 l 1
 -523 517 -549 534 -564 552 c 0
 -575 566 -577 575 -577 581 c 0
 -577 587 -575 592 -573 596 c 0
 -548 638 -486 645 -455 645 c 2
EndSplineSet
EndChar

StartChar: aiT
Encoding: 79 2376 79
Width: 0
VWidth: 0
GlyphClass: 4
Flags: W
HStem: 585 60<-429.231 -362.003> 744 60<-354.984 -291.365>
VStem: -524 88<542.717 607.5> -458 88<693.834 740.5>
AnchorPoint: "ekaara" -279 549 mark 0
LayerCount: 2
Fore
SplineSet
-450 645 m 2xe0
 -442 645 l 1
 -404 641 -364 626 -330 608 c 1
 -334 629 -335 629 -341 634 c 1
 -356 637 -390 649 -414 672 c 0
 -427 684 -458 711 -458 737 c 0
 -458 744 -457 750 -455 754 c 0
 -439 787 -411 804 -369 804 c 2
 -365 804 l 1
 -296 802 -229 739 -219 731 c 2
 -182 702 l 1
 -228 685 l 1
 -266 714 l 2
 -299 740 -299 744 -307 744 c 2
 -309 744 l 2
 -330 744 -353 733 -367 704 c 0
 -368 701 -370 699 -370 697 c 0xd0
 -370 693 -368 691 -367 690 c 0
 -363 689 -336 683 -309 662 c 0
 -242 610 -245 589 -235 531 c 0
 -235 529 -233 520 -246 519 c 1
 -248 519 l 2
 -260 519 -286 526 -308 546 c 0
 -322 559 -360 585 -390 585 c 0
 -398 585 -436 570 -436 547 c 0
 -436 545 -436 542 -435 541 c 0
 -424 532 -400 517 -388 496 c 2
 -371 468 l 1
 -454 489 l 1
 -469 515 l 1
 -474 518 -493 532 -506 547 c 0
 -521 564 -524 577 -524 587 c 0
 -524 628 -482 645 -450 645 c 2xe0
EndSplineSet
Substitution2: "Contextual Form 0001-1" aiT.0001
EndChar

StartChar: aiT.0001
Encoding: 80 -1 80
Width: 0
VWidth: 0
GlyphClass: 4
Flags: W
HStem: 585 60<-469.728 -362.44> 744 60<-356.366 -291.365>
VStem: -458 88<694.32 740.5>
AnchorPoint: "ekaara" -279 549 mark 0
LayerCount: 2
Fore
SplineSet
-455 645 m 2
 -442 645 l 1
 -404 641 -364 626 -330 608 c 1
 -334 629 -335 629 -341 634 c 1
 -356 637 -390 649 -414 672 c 0
 -428 685 -458 712 -458 737 c 0
 -458 744 -457 749 -455 753 c 0
 -440 786 -412 804 -370 804 c 2
 -365 804 l 1
 -296 802 -229 739 -219 731 c 2
 -182 702 l 1
 -228 685 l 1
 -266 714 l 2
 -299 740 -299 744 -307 744 c 2
 -310 744 l 2
 -331 744 -354 734 -367 705 c 0
 -368 702 -370 700 -370 697 c 0
 -370 693 -368 691 -367 689 c 1
 -365 689 -342 688 -309 662 c 0
 -242 610 -245 589 -235 531 c 0
 -235 529 -233 520 -246 519 c 1
 -248 519 l 2
 -260 519 -286 526 -308 546 c 0
 -326 562 -356 580 -390 585 c 1
 -395 585 l 2
 -415 585 -468 578 -487 546 c 0
 -488 545 -488 544 -488 542 c 1
 -484 539 -451 521 -437 496 c 2
 -422 468 l 1
 -505 490 l 1
 -518 514 l 1
 -523 517 -549 534 -564 552 c 0
 -575 566 -577 575 -577 581 c 0
 -577 587 -575 592 -573 596 c 0
 -548 638 -486 645 -455 645 c 2
EndSplineSet
EndChar

StartChar: virAma
Encoding: 83 2381 83
Width: 0
VWidth: 0
GlyphClass: 4
Flags: W
HStem: -87 60<-375.729 -271.955>
AnchorPoint: "virama" -305 0 mark 0
LayerCount: 2
Fore
SplineSet
-449 -174 m 1
 -535 -123 l 1
 -523 -106 l 2
 -497 -70 -438 -27 -369 -27 c 0
 -249 -27 -139 -139 -105 -157 c 2
 -61 -181 l 1
 -73 -220 l 1
 -117 -197 l 2
 -257 -123 -237 -87 -309 -87 c 0
 -352 -87 -414 -126 -437 -158 c 2
 -449 -174 l 1
EndSplineSet
EndChar

StartChar: candra
Encoding: 84 2373 84
Width: 0
VWidth: 0
Flags: W
HStem: 540 60<-542.771 -424.713>
AnchorPoint: "bindumark" -475 740 basemark 0
AnchorPoint: "bindumark" -475 570 mark 0
AnchorPoint: "bindu" -475 570 mark 0
LayerCount: 2
Fore
SplineSet
-738 701 m 1
 -705 728 l 1
 -664 700 l 1
 -538 616 -571 600 -518 600 c 2
 -506 600 l 1
 -413 607 -383 644 -299 743 c 1
 -286 759 l 1
 -201 706 l 1
 -215 691 l 1
 -298 594 -331 548 -443 540 c 1
 -458 540 l 2
 -570 540 -665 653 -696 674 c 2
 -738 701 l 1
EndSplineSet
EndChar

StartChar: zUnya
Encoding: 86 2406 86
Width: 700
VWidth: 0
Flags: W
HStem: 558 62<299.744 435.959>
VStem: 82 88<247.226 414.659> 530 88<247.087 442.638>
LayerCount: 2
Fore
SplineSet
349 51 m 1
 396 92 431 116 474 176 c 0
 499 212 530 289 530 369 c 0
 530 395 526 422 518 448 c 0
 496 519 463 542 442 550 c 0
 434 553 424 556 409 558 c 1
 406 558 l 1
 402 559 394 560 383 560 c 0
 321 560 263 526 218 460 c 0
 185 413 170 367 170 319 c 0
 170 289 175 257 188 222 c 0
 218 137 260 136 349 51 c 1
314 19 m 1
 303 32 l 1
 249 90 142 139 102 252 c 0
 88 291 82 326 82 359 c 0
 82 412 98 463 132 512 c 0
 178 580 238 620 323 620 c 0
 361 620 395 613 426 602 c 0
 534 562 585 485 606 416 c 0
 615 386 618 357 618 329 c 0
 618 243 588 163 560 124 c 0
 510 54 469 32 415 -18 c 1
 391 -41 l 1
 307 12 l 1
 314 19 l 1
EndSplineSet
EndChar

StartChar: eka
Encoding: 87 2407 87
Width: 700
VWidth: 0
Flags: W
HStem: 227 47<252.294 332.644> 542 60<317.735 408.119>
VStem: 131 88<337.091 451.984> 406 88<62.4737 237.629> 433 88<266.471 493.653>
LayerCount: 2
Fore
SplineSet
415 239 m 1xf0
 393 226 370 214 339 214 c 0
 322 214 302 218 282 227 c 0
 281 227 280 228 280 228 c 1
 176 277 131 349 131 417 c 0
 131 425 132 429 132 433 c 0
 140 517 195 562 270 591 c 0
 289 598 308 602 329 602 c 0
 366 602 402 588 428 573 c 0
 467 550 486 524 495 504 c 0
 516 459 521 420 521 384 c 0xe8
 521 336 512 289 507 235 c 2
 505 214 l 1
 503 180 494 145 494 109 c 0
 494 83 500 57 511 38 c 0
 548 -25 569 -3 676 -84 c 2
 714 -113 l 1
 667 -130 l 1
 630 -100 l 2
 597 -74 484 -34 429 60 c 0
 411 92 406 120 406 149 c 0
 406 181 412 212 415 239 c 1xf0
423 322 m 1
 428 359 433 391 433 424 c 0
 433 458 427 492 409 530 c 0
 407 534 406 537 404 540 c 1
 401 541 396 542 389 542 c 0
 378 542 363 539 346 533 c 0
 277 506 227 465 220 391 c 0
 220 387 219 381 219 377 c 0
 219 315 254 286 277 274 c 1
 279 274 l 2
 307 274 355 310 382 326 c 2
 401 338 l 1
 423 322 l 1
EndSplineSet
EndChar

StartChar: dvi
Encoding: 88 2408 88
Width: 700
VWidth: 0
Flags: W
HStem: 36 60<323 358.646> 556 59<286.818 402.975>
VStem: 505 88<272.22 430.515>
LayerCount: 2
Fore
SplineSet
56 194 m 0
 56 201 62 204 72 204 c 0
 81 204 94 201 110 192 c 0
 238 120 202 98 261 96 c 1
 272 96 l 2
 337 96 389 123 433 185 c 0
 476 247 505 303 505 366 c 0
 505 388 501 413 492 439 c 0
 469 512 434 537 410 546 c 0
 400 549 387 553 368 555 c 0
 361 555 358 556 356 556 c 0
 288 556 217 491 183 437 c 2
 172 420 l 1
 86 470 l 1
 97 487 l 1
 132 543 197 616 296 616 c 0
 309 616 310 615 311 615 c 2
 315 615 l 1
 341 612 367 606 393 597 c 0
 502 557 557 478 580 407 c 0
 590 377 593 351 593 326 c 0
 593 256 563 196 519 133 c 0
 474 68 416 36 332 36 c 2
 323 36 l 1
 334 30 343 25 351 21 c 0
 424 -15 478 -18 586 -51 c 2
 629 -64 l 1
 654 -119 l 1
 612 -105 l 1
 528 -79 456 -78 343 -21 c 0
 220 41 165 103 81 163 c 0
 71 170 56 183 56 194 c 0
EndSplineSet
EndChar

StartChar: tri
Encoding: 89 2409 89
Width: 700
VWidth: 0
Flags: W
HStem: 254 97<257.077 365.421> 543 60<309.25 447.502>
VStem: 498 88<133.478 226.401> 506 88<411.941 476.603>
LayerCount: 2
Fore
SplineSet
594 420 m 0xd0
 594 365 539 321 492 302 c 1
 554 257 586 206 586 157 c 0xe0
 586 143 584 129 580 117 c 0
 550 29 468 3 378 -5 c 1
 430 -26 478 -40 550 -68 c 1
 594 -84 l 1xd0
 608 -135 l 1
 564 -118 l 2
 479 -85 417 -73 313 -21 c 0
 226 23 184 65 126 104 c 0
 117 110 99 125 99 137 c 0
 99 143 104 147 114 147 c 0
 122 147 132 145 146 138 c 0
 271 76 241 54 293 54 c 2
 301 54 l 1
 387 60 463 82 492 165 c 0
 495 175 498 186 498 197 c 0xe0
 498 243 465 274 440 289 c 1
 431 288 423 287 416 286 c 2
 384 282 l 1
 384 282 311 254 257 254 c 0
 226 254 201 263 201 293 c 0
 201 306 207 304 217 310 c 0
 248 330 281 338 313 342 c 1
 334 348 353 351 373 351 c 2
 383 351 l 1
 386 352 390 352 394 353 c 0
 440 365 506 415 506 460 c 0
 506 468 503 478 501 481 c 2
 501 481 500 481 500 482 c 0
 476 526 460 533 443 538 c 0
 433 541 419 543 400 543 c 2
 392 543 l 1
 315 540 255 496 207 433 c 2
 195 417 l 1
 109 469 l 1
 121 485 l 2
 170 550 232 600 332 603 c 1
 340 603 l 2
 462 603 546 526 583 460 c 0
 594 442 594 430 594 420 c 0xd0
EndSplineSet
EndChar

StartChar: catur
Encoding: 90 2410 90
Width: 700
VWidth: 0
Flags: W
HStem: -30 60<260.021 447.599>
VStem: 106 88<89.366 180.408> 122 88<426.523 483.807> 492 88<443.066 503.628> 506 88<80.8563 191.177>
LayerCount: 2
Fore
SplineSet
387 303 m 1xc8
 374 297 361 290 348 284 c 1
 285 248 194 196 194 120 c 0
 194 116 195 110 196 102 c 0
 204 57 223 51 231 48 c 0
 250 40 290 32 333 30 c 1
 348 30 l 2
 427 30 506 57 506 149 c 0
 506 225 448 272 410 292 c 0
 405 295 399 298 392 301 c 0
 391 301 390 302 387 303 c 1xc8
255 619 m 1
 336 564 l 1
 319 551 l 1
 278 522 210 481 210 441 c 0
 210 434 213 427 215 423 c 0
 235 385 234 393 298 377 c 0
 309 374 319 371 329 368 c 1
 338 372 l 1
 408 398 453 403 486 468 c 0
 490 477 492 483 492 489 c 0
 492 522 460 536 414 582 c 1
 383 612 l 1
 448 613 l 1
 478 582 l 2
 496 564 580 506 580 449 c 0xb0
 580 440 579 431 574 420 c 0
 543 358 494 341 439 322 c 1
 532 268 594 190 594 109 c 0
 594 3 503 -30 408 -30 c 2
 390 -30 l 1
 343 -28 294 -23 240 -1 c 0
 161 32 117 86 108 138 c 0
 107 146 106 153 106 160 c 0xc8
 106 250 202 302 265 338 c 1
 212 357 158 397 131 447 c 0
 125 459 122 470 122 481 c 0xa0
 122 539 198 579 237 607 c 1
 255 619 l 1
EndSplineSet
EndChar

StartChar: paJca
Encoding: 91 2411 91
Width: 700
VWidth: 0
Flags: W
HStem: 162 60<255.675 408.796>
VStem: 128 88<292.653 589> 457 87<62.1406 168> 465 88<358.196 596.531>
LayerCount: 2
Fore
SplineSet
401 39 m 1xe0
 444 53 457 90 457 132 c 1xe0
 456 168 l 1
 441 163 422 162 403 162 c 0
 385 162 367 164 350 165 c 0
 321 167 275 167 218 203 c 1
 193 221 170 242 157 272 c 1
 132 336 128 390 128 443 c 2
 129 532 l 2
 129 554 128 579 126 605 c 2
 124 628 l 1
 213 589 l 1
 214 565 l 2
 216 538 217 513 217 490 c 2
 216 401 l 2
 216 347 222 285 249 232 c 1
 268 226 320 222 343 222 c 0
 377 222 405 228 420 261 c 0
 478 384 447 471 465 610 c 0
 466 616 471 618 478 618 c 0
 488 618 502 614 512 609 c 0
 544 593 553 573 553 567 c 2xd0
 544 174 l 1
 544 154 l 1
 545 92 l 2
 545 50 538 17 499 -10 c 0
 495 -13 493 -14 491 -15 c 1
 520 -27 552 -40 593 -59 c 2
 638 -79 l 1
 637 -124 l 1
 593 -103 l 2
 535 -76 487 -64 406 -17 c 0
 351 15 334 41 299 70 c 0
 286 81 282 89 282 95 c 0
 282 101 286 104 291 105 c 0
 293 105 295 105 297 105 c 0
 317 105 342 89 352 81 c 0
 373 63 383 53 401 39 c 1xe0
EndSplineSet
EndChar

StartChar: SaS
Encoding: 92 2412 92
Width: 700
VWidth: 0
Flags: W
HStem: -30 60<245 443.71> 557 60<276.227 434.164>
VStem: 84 88<103.413 252.344> 104 88<443.306 506.5>
LayerCount: 2
Fore
SplineSet
494 118 m 0xe0
 494 124 491 127 491 131 c 1
 437 164 l 2
 431 168 408 184 408 198 c 0
 408 203 412 209 423 209 c 0
 430 209 438 206 450 201 c 0
 475 190 515 172 547 142 c 1
 587 113 622 82 656 54 c 2
 692 24 l 1
 640 12 l 1
 580 62 l 1
 580 60 579 57 578 54 c 0
 550 -13 472 -30 408 -30 c 2
 380 -30 l 2
 317 -30 268 -28 193 19 c 0
 106 73 84 128 84 204 c 0xe0
 84 259 97 310 149 344 c 0
 164 353 178 359 199 360 c 1
 191 367 182 378 171 389 c 0
 144 417 104 460 104 500 c 0
 104 513 108 526 120 538 c 0
 176 594 237 617 315 617 c 0
 334 617 353 615 374 613 c 0
 395 611 419 604 447 589 c 0
 525 547 556 487 576 471 c 2
 613 442 l 1
 566 426 l 1
 528 455 l 1
 467 503 443 544 434 551 c 0
 433 551 428 553 424 553 c 0
 403 555 389 557 375 557 c 0
 312 557 257 537 204 484 c 0
 195 475 192 468 192 460 c 0xd0
 192 436 213 411 237 387 c 0
 277 345 265 352 342 333 c 0
 371 326 393 306 400 295 c 0
 403 290 405 286 405 283 c 0
 405 276 397 274 390 274 c 0
 389 274 388 274 387 274 c 0
 322 278 286 300 266 300 c 0
 256 300 243 297 229 288 c 0
 184 259 172 215 172 164 c 0
 172 86 197 64 221 49 c 0
 249 31 250 30 320 30 c 2
 348 30 l 2
 400 30 466 44 490 102 c 0
 493 109 494 114 494 118 c 0xe0
EndSplineSet
EndChar

StartChar: sapta
Encoding: 93 2413 93
Width: 700
VWidth: 0
Flags: W
HStem: -30 60<317.268 416.992> 253 60<290.004 369.819> 591 60<321.57 424.497>
VStem: 155 88<375.433 519.302> 492 90<154.431 304>
LayerCount: 2
Fore
SplineSet
494 304 m 1
 459 284 428 253 374 253 c 0
 361 253 349 255 338 257 c 0
 337 257 336 258 335 258 c 0
 319 262 304 267 290 274 c 0
 177 326 155 406 155 482 c 0
 155 533 172 578 216 610 c 0
 252 637 291 651 336 651 c 0
 375 651 434 634 482 592 c 0
 585 499 574 412 580 313 c 2
 582 280 l 1
 582 258 l 2
 582 178 568 115 525 38 c 0
 498 -11 491 -30 380 -30 c 0
 360 -30 332 -24 302 -5 c 0
 152 91 242 167 75 225 c 2
 32 240 l 1
 12 293 l 1
 55 279 l 1
 252 211 301 71 329 30 c 1
 422 31 411 37 439 88 c 0
 481 163 494 221 494 298 c 2
 494 304 l 1
492 339 m 1
 492 353 l 1
 486 459 478 535 424 584 c 0
 422 586 421 591 396 591 c 0
 368 591 331 579 298 554 c 0
 259 525 243 488 243 442 c 0
 243 354 282 322 289 319 c 0
 294 317 305 313 314 313 c 0
 343 313 380 342 421 364 c 2
 442 375 l 1
 492 339 l 1
EndSplineSet
EndChar

StartChar: aSTa
Encoding: 94 2414 94
Width: 700
VWidth: 0
Flags: W
HStem: -30 60<243.471 432.635>
VStem: 107 88<105.628 275.368> 502 88<84.9077 157.15>
LayerCount: 2
Fore
SplineSet
257 502 m 1
 271 513 l 1
 268 515 260 521 252 529 c 1
 252 523 254 513 257 502 c 1
107 216 m 0
 107 301 162 405 213 461 c 1
 203 467 183 480 177 494 c 2
 121 626 l 1
 184 605 l 1
 190 608 195 608 203 608 c 0
 256 608 299 552 299 552 c 1
 327 561 348 588 386 608 c 0
 389 609 392 611 396 611 c 0
 424 611 470 579 470 559 c 0
 470 556 469 554 468 553 c 0
 380 468 307 443 249 341 c 0
 215 281 195 231 195 176 c 0
 195 152 200 126 207 101 c 0
 216 70 230 50 238 41 c 0
 240 39 241 30 286 30 c 0
 382 30 412 31 473 78 c 0
 495 96 502 117 502 141 c 0
 502 158 497 198 487 208 c 0
 484 210 473 215 460 222 c 0
 431 237 422 255 422 263 c 0
 422 270 428 272 435 272 c 0
 444 272 456 268 464 265 c 0
 487 255 506 249 537 232 c 0
 581 208 600 194 631 175 c 2
 674 150 l 1
 650 117 l 1
 582 158 l 1
 588 138 590 121 590 101 c 0
 590 72 582 45 555 24 c 0
 491 -26 443 -30 346 -30 c 0
 293 -30 222 -11 172 41 c 0
 143 71 129 99 119 133 c 0
 111 162 107 189 107 216 c 0
EndSplineSet
EndChar

StartChar: nava
Encoding: 95 2415 95
Width: 700
VWidth: 0
Flags: W
HStem: 173 60<287.601 432> 196 60<240 344.794> 576 60<298.014 421.725>
VStem: 76 88<268.509 450.63> 497 88<322.344 487.524>
LayerCount: 2
Fore
SplineSet
240 196 m 1x78
 181 257 l 1
 215 256 l 1x78
 284 255 329 233 358 233 c 0
 373 233 390 238 410 251 c 0
 470 293 497 347 497 414 c 0
 497 459 487 497 473 523 c 0
 454 558 443 563 422 569 c 0
 405 574 393 576 378 576 c 0
 328 576 277 549 227 504 c 0
 176 458 164 409 164 345 c 0
 164 338 165 328 165 320 c 0
 168 250 191 215 228 182 c 0
 262 152 287 190 411 107 c 0
 511 40 548 -16 611 -73 c 1
 645 -103 l 1
 586 -110 l 1
 553 -79 l 1
 473 -6 443 37 377 81 c 0
 367 88 260 94 170 174 c 0
 104 234 80 287 77 360 c 0
 77 368 76 375 76 385 c 0
 76 452 88 509 143 558 c 0
 194 604 246 636 318 636 c 0
 429 636 524 563 557 500 c 0
 577 463 585 422 585 374 c 0
 585 301 557 240 492 195 c 0
 469 180 446 173 418 173 c 0xb8
 361 173 317 195 273 196 c 1
 240 196 l 1x78
EndSplineSet
EndChar

StartChar: begin
Encoding: 96 182 96
Width: 898
VWidth: 0
Flags: W
HStem: 68 60<560.625 666> 338 60<115.4 182.676 618.472 705.629>
VStem: 496 88<268.73 304.25> 734 88<219.3 307.084>
LayerCount: 2
Fore
SplineSet
636 206 m 1
 559 220 l 1
 537 250 l 2
 533 256 522 261 506 283 c 0
 497 296 496 305 496 312 c 0
 496 319 498 324 500 328 c 0
 525 371 558 398 613 398 c 0
 626 398 634 397 639 396 c 1
 642 396 l 1
 665 392 690 384 715 372 c 0
 784 340 822 292 822 252 c 0
 822 248 822 242 821 239 c 0
 807 155 762 68 666 68 c 0
 660 68 651 68 641 70 c 0
 531 92 433 119 339 247 c 0
 289 315 261 305 135 341 c 2
 93 353 l 1
 63 409 l 1
 105 397 l 2
 192 372 327 357 417 233 c 0
 484 141 492 151 600 129 c 1
 600 129 601 128 606 128 c 0
 665 128 720 201 733 283 c 0
 734 286 734 287 734 292 c 0
 734 322 719 326 716 327 c 0
 710 330 687 338 673 338 c 0
 643 338 609 318 586 278 c 0
 585 275 584 274 584 272 c 0
 584 271 585 269 585 268 c 0
 587 266 602 254 615 236 c 2
 636 206 l 1
EndSplineSet
EndChar

StartChar: daNDa
Encoding: 97 2404 97
Width: 643
VWidth: 0
Flags: W
LayerCount: 2
Fore
SplineSet
347 367 m 1
 436 323 l 1
 433 302 l 1
 412 143 385 72 343 38 c 1
 374 31 403 21 425 9 c 0
 476 -20 489 -44 494 -47 c 2
 533 -76 l 1
 491 -96 l 1
 452 -67 l 2
 428 -49 413 -33 406 -27 c 1
 337 -6 288 -9 193 6 c 0
 183 8 158 15 139 34 c 0
 132 40 125 50 125 57 c 0
 125 62 129 66 138 66 c 2
 166 68 l 1
 259 73 309 76 345 346 c 1
 347 367 l 1
EndSplineSet
EndChar

StartChar: dvidaNDa
Encoding: 98 2405 98
Width: 754
VWidth: 0
Flags: W
VStem: 465 88<-146.216 -77 -19 73.5857>
LayerCount: 2
Fore
SplineSet
544 216 m 1
 631 167 l 1
 621 149 l 2
 583 80 553 92 553 -98 c 0
 553 -131 557 -148 560 -154 c 1
 566 -158 582 -166 600 -178 c 2
 641 -205 l 1
 610 -233 l 1
 568 -206 l 2
 551 -195 527 -185 498 -158 c 0
 468 -130 465 -110 465 -77 c 1
 452 -67 l 2
 428 -49 413 -33 406 -27 c 1
 337 -6 288 -9 193 6 c 0
 183 8 158 15 139 34 c 0
 132 40 125 50 125 57 c 0
 125 62 129 66 138 66 c 2
 166 68 l 1
 259 73 309 76 345 346 c 1
 347 367 l 1
 436 323 l 1
 433 302 l 1
 412 143 385 72 343 38 c 1
 374 31 403 21 425 9 c 0
 443 -1 456 -11 466 -19 c 1
 471 133 503 141 535 199 c 1
 544 216 l 1
EndSplineSet
EndChar

StartChar: ka.0001
Encoding: 99 -1 99
Width: 891
VWidth: 0
Flags: W
HStem: 458 149<227.328 293.952>
VStem: 392 89<98 410>
AnchorPoint: "ukaara" 437 100 basechar 0
AnchorPoint: "repha" 416 516 basechar 0
AnchorPoint: "aakaara" 622 588 basechar 0
AnchorPoint: "iikaara" 622 588 basechar 0
AnchorPoint: "ekaara" 202 582 basechar 0
AnchorPoint: "bindu" 423 740 basechar 0
AnchorPoint: "virama" 423 -20 basechar 0
LayerCount: 2
Fore
SplineSet
593 619 m 0
 619 619 666 589 666 568 c 0
 666 564 664 560 661 559 c 0
 584 519 531 501 470 466 c 1
 607 419 703 298 779 256 c 2
 823 232 l 1
 806 195 l 1
 763 220 l 1
 592 315 561 396 481 416 c 1
 482 269 l 1
 481 57 l 1
 392 98 l 1
 394 309 l 1
 393 410 l 1
 338 378 251 282 161 211 c 0
 159 209 155 208 149 208 c 0
 139 208 123 211 104 224 c 0
 92 232 75 247 75 258 c 0
 75 261 76 263 78 265 c 0
 178 351 226 413 338 490 c 0
 348 497 357 502 368 509 c 1
 344 523 327 538 318 546 c 1
 298 544 309 508 294 465 c 0
 293 462 290 458 280 458 c 0
 276 458 270 459 264 461 c 0
 249 465 218 481 208 501 c 2
 146 622 l 1
 227 599 l 1
 234 607 241 607 258 607 c 2
 261 607 l 2
 277 607 296 603 313 595 c 0
 357 576 381 550 385 546 c 1
 461 549 502 588 584 617 c 0
 586 618 590 619 593 619 c 0
EndSplineSet
EndChar

StartChar: kha.0001
Encoding: 100 -1 100
Width: 885
VWidth: 0
Flags: W
VStem: 187 88<446.971 500.46> 246 88<146.458 258.011> 387 88<176.587 328.604> 577 88<216 437.48> 588 88<-3 124.292>
AnchorPoint: "ukaara" 632 0 basechar 0
AnchorPoint: "virama" 436 -120 basechar 0
AnchorPoint: "repha" 456 483 basechar 0
AnchorPoint: "aakaara" 765 591 basechar 0
AnchorPoint: "iikaara" 765 591 basechar 0
AnchorPoint: "ekaara" 264 537 basechar 0
AnchorPoint: "bindu" 436 740 basechar 0
LayerCount: 2
Fore
SplineSet
284 455 m 1xa8
 368 402 l 1
 354 387 l 1
 349 382 l 1
 359 370 l 1
 341 372 l 1
 326 355 314 338 303 322 c 1
 304 321 l 1
 330 280 334 229 334 177 c 0
 334 93 270 49 256 31 c 2
 243 15 l 1
 158 67 l 1
 170 83 l 2
 187 105 246 143 246 217 c 0x60
 246 231 245 245 244 259 c 1
 222 245 194 234 154 228 c 2
 126 224 l 1
 57 284 l 1
 86 288 l 2
 154 298 180 326 208 363 c 1
 205 368 l 1
 211 367 l 1
 220 379 229 392 240 406 c 1
 239 407 237 408 236 409 c 0
 187 444 187 473 187 491 c 0
 187 531 208 577 263 577 c 0
 275 577 288 575 299 571 c 0
 403 537 367 513 426 513 c 0
 511 513 643 558 724 619 c 1
 741 631 l 1
 823 576 l 1
 806 563 l 2
 772 537 730 515 686 497 c 1
 683 479 l 2
 676 436 666 414 665 375 c 1
 665 333 l 2xb0
 665 205 672 119 676 -20 c 1
 677 -43 l 1
 588 -3 l 1
 588 20 l 1
 587 59 585 94 584 127 c 1
 568 120 550 114 524 114 c 2
 518 114 l 1
 503 115 482 116 451 133 c 0
 438 140 423 151 412 163 c 0
 389 188 387 220 387 260 c 0
 387 302 396 339 412 387 c 1
 424 419 442 436 461 455 c 1
 397 465 338 506 321 517 c 1
 302 515 275 482 275 451 c 2
 275 446 l 1
 284 455 l 1xa8
582 464 m 1
 577 463 571 462 566 461 c 1
 580 453 l 1
 581 457 581 460 582 464 c 1
580 216 m 1
 578 265 577 315 577 373 c 2
 577 417 l 2x30
 577 425 577 432 578 439 c 1
 574 433 l 1
 543 394 515 380 500 339 c 0
 484 292 475 259 475 220 c 0
 475 206 476 190 478 176 c 1
 502 181 525 198 560 209 c 1
 580 216 l 1
EndSplineSet
EndChar

StartChar: ga.0001
Encoding: 101 -1 101
Width: 885
VWidth: 0
Flags: W
HStem: 453 60<396.777 551.234>
VStem: 187 88<446.971 500.46> 246 88<146.458 258.011> 577 88<-2 463.344>
AnchorPoint: "ukaara" 624 0 basechar 0
AnchorPoint: "virama" 436 -120 basechar 0
AnchorPoint: "repha" 456 483 basechar 0
AnchorPoint: "aakaara" 765 591 basechar 0
AnchorPoint: "iikaara" 765 591 basechar 0
AnchorPoint: "ekaara" 264 537 basechar 0
AnchorPoint: "bindu" 436 740 basechar 0
LayerCount: 2
Fore
SplineSet
284 455 m 1xd0
 368 402 l 1
 354 387 l 1
 349 382 l 1
 359 370 l 1
 341 372 l 1
 326 355 314 338 303 322 c 1
 304 321 l 1
 330 280 334 229 334 177 c 0
 334 93 270 49 256 31 c 2
 243 15 l 1
 158 67 l 1
 170 83 l 2
 187 105 246 143 246 217 c 0xb0
 246 231 245 245 244 259 c 1
 222 245 194 234 154 228 c 2
 126 224 l 1
 57 284 l 1
 86 288 l 2
 154 298 180 326 208 363 c 1
 205 368 l 1
 211 367 l 1
 220 379 229 392 240 406 c 1
 239 407 237 408 236 409 c 0
 187 444 187 473 187 491 c 0
 187 531 208 577 263 577 c 0
 275 577 288 575 299 571 c 0
 403 537 367 513 426 513 c 0
 511 513 643 558 724 619 c 1
 741 631 l 1
 823 576 l 1
 806 563 l 2
 772 537 730 515 686 497 c 1
 683 479 l 2
 676 436 666 414 665 375 c 2
 663 268 l 1
 669 -43 l 1
 580 -2 l 1
 575 308 l 1
 577 417 l 2
 577 436 579 450 582 464 c 1
 549 457 516 453 486 453 c 0
 413 453 340 505 321 517 c 1
 302 515 275 482 275 451 c 2
 275 446 l 1
 284 455 l 1xd0
EndSplineSet
EndChar

StartChar: gha.0001
Encoding: 102 -1 102
Width: 786
VWidth: 0
Flags: W
HStem: 138 63<469.595 544.763> 183 60<243.609 314.83>
VStem: 143 88<262.576 448.546> 362 83<308.355 516.91> 571 88<-2 139 228.378 525>
AnchorPoint: "ukaara" 614 0 basechar 0
AnchorPoint: "virama" 418 -120 basechar 0
AnchorPoint: "repha" 468 570 basechar 0
AnchorPoint: "aakaara" 666 585 basechar 0
AnchorPoint: "iikaara" 666 585 basechar 0
AnchorPoint: "ekaara" 120 555 basechar 0
AnchorPoint: "bindu" 418 740 basechar 0
LayerCount: 2
Fore
SplineSet
478 201 m 1xb8
 482 201 491 198 495 198 c 0
 518 198 553 218 561 253 c 0
 566 274 570 286 571 299 c 1
 571 440 l 1
 570 494 l 2
 570 511 570 528 571 548 c 1
 571 569 l 2
 571 571 571 575 574 577 c 2
 643 625 l 1
 724 570 l 1
 661 525 l 1
 659 507 l 1
 659 399 l 1
 660 312 l 2
 660 287 659 272 659 257 c 2
 658 -43 l 1
 570 -2 l 1
 570 139 l 1
 565 138 560 138 555 138 c 0xb8
 511 138 482 152 455 168 c 0
 431 182 414 197 401 212 c 1
 378 191 344 183 306 183 c 2
 300 183 l 2
 283 183 255 185 217 208 c 0
 207 214 195 223 185 233 c 0
 171 248 164 261 160 275 c 0
 152 307 143 358 143 398 c 0
 143 413 144 428 147 446 c 1
 142 449 122 462 116 476 c 2
 101 513 l 1
 95 524 89 535 87 546 c 1
 66 596 l 1
 102 584 l 1
 107 587 113 589 122 589 c 0
 155 589 194 557 199 552 c 1
 221 568 240 580 267 593 c 0
 270 594 273 595 276 595 c 0
 302 595 350 564 350 544 c 0
 350 541 349 538 348 537 c 0
 304 493 263 485 245 435 c 0
 234 404 231 382 231 358 c 0
 231 323 240 272 247 243 c 1x78
 285 243 319 254 334 291 c 0
 347 322 353 351 357 378 c 1
 357 413 359 451 362 487 c 0
 363 509 364 533 367 559 c 2
 369 580 l 1
 384 573 l 1
 397 585 416 588 427 597 c 2
 443 611 l 1
 526 556 l 1
 509 543 l 1
 484 522 462 523 458 503 c 0
 455 488 453 471 451 454 c 1
 450 409 452 368 445 325 c 1
 445 269 450 263 451 258 c 0
 458 231 471 208 478 201 c 1xb8
EndSplineSet
EndChar

StartChar: Ga.0001
Encoding: 103 -1 103
Width: 810
VWidth: 0
Flags: W
VStem: 384 88<-2 99.4358>
AnchorPoint: "ukaara" 428 0 basechar 0
AnchorPoint: "virama" 406 -120 basechar 0
AnchorPoint: "repha" 387 507 basechar 0
AnchorPoint: "aakaara" 690 378 basechar 0
AnchorPoint: "iikaara" 645 585 basechar 0
AnchorPoint: "ekaara" 183 561 basechar 0
AnchorPoint: "bindu" 406 740 basechar 0
LayerCount: 2
Fore
SplineSet
340 481 m 1
 351 490 l 1
 349 491 348 492 340 496 c 1
 340 495 339 493 339 490 c 0
 339 488 339 485 340 481 c 1
642 618 m 1
 708 557 l 1
 678 555 l 1
 609 549 578 551 578 503 c 2
 578 496 l 1
 580 464 638 426 693 399 c 2
 738 377 l 1
 731 335 l 1
 687 357 l 2
 638 382 542 436 505 494 c 1
 362 380 l 1
 296 331 252 304 193 264 c 1
 222 253 254 239 289 219 c 0
 354 181 408 146 462 89 c 0
 470 80 472 74 472 70 c 2
 472 -43 l 1
 384 -2 l 1
 384 102 l 1
 349 136 326 150 267 185 c 0
 225 209 198 214 122 247 c 0
 110 253 75 274 75 290 c 0
 75 293 76 296 79 298 c 0
 157 352 204 379 280 436 c 1
 287 441 l 1
 120 587 l 1
 177 596 l 1
 251 531 l 1
 252 562 271 579 309 579 c 0
 314 579 362 575 390 541 c 1
 440 552 456 584 503 613 c 0
 506 615 509 616 513 616 c 0
 522 616 535 612 546 606 c 1
 565 611 588 613 612 615 c 2
 642 618 l 1
EndSplineSet
EndChar

StartChar: ca.0001
Encoding: 104 -1 104
Width: 672
VWidth: 0
Flags: W
HStem: 489 132<213.283 270.952>
VStem: 361 88<-2 104 180 376.574>
AnchorPoint: "ukaara" 406 0 basechar 0
AnchorPoint: "virama" 334 -120 basechar 0
AnchorPoint: "repha" 387 543 basechar 0
AnchorPoint: "aakaara" 552 606 basechar 0
AnchorPoint: "iikaara" 552 606 basechar 0
AnchorPoint: "ekaara" 198 588 basechar 0
AnchorPoint: "bindu" 384 740 basechar 0
LayerCount: 2
Fore
SplineSet
522 637 m 0
 549 637 596 606 596 586 c 0
 596 582 595 579 593 578 c 0
 572 563 550 555 530 548 c 1
 507 536 l 2
 501 533 494 530 486 527 c 1
 474 518 466 506 464 489 c 0
 453 342 449 253 449 125 c 1
 451 -43 l 1
 362 -2 l 1
 361 104 l 1
 343 122 l 2
 290 174 287 189 273 196 c 0
 241 213 216 209 136 230 c 1
 124 230 75 260 75 278 c 0
 75 281 76 284 79 286 c 0
 153 337 202 357 267 417 c 0
 307 454 321 487 350 531 c 1
 331 541 316 554 308 560 c 1
 293 555 292 525 271 494 c 0
 270 493 267 489 258 489 c 0
 254 489 247 490 240 492 c 0
 224 497 193 514 185 533 c 2
 143 629 l 1
 213 606 l 1
 219 615 227 619 242 621 c 0
 243 621 244 621 245 621 c 0
 248 622 250 622 254 622 c 0
 305 622 353 579 359 574 c 1
 378 574 394 579 407 584 c 1
 420 593 435 599 452 605 c 1
 471 615 491 626 514 635 c 0
 517 636 519 637 522 637 c 0
361 180 m 1
 361 251 363 311 366 378 c 1
 361 373 356 368 351 363 c 0
 301 316 260 293 213 264 c 1
 237 257 261 249 285 236 c 0
 319 218 343 199 361 180 c 1
EndSplineSet
EndChar

StartChar: cha.0001
Encoding: 105 -1 105
Width: 813
VWidth: 0
Flags: W
HStem: 164 60<173.894 257.792> 360 60<193.272 290.278 535.05 634.755> 497 135<274.332 337.951>
VStem: 76 88<252.445 331.939> 347 86<-2 194> 649 88<266.554 336.97>
AnchorPoint: "ukaara" 394 0 basechar 0
AnchorPoint: "virama" 400 -120 basechar 0
AnchorPoint: "repha" 402 570 basechar 0
AnchorPoint: "aakaara" 546 612 basechar 0
AnchorPoint: "iikaara" 546 612 basechar 0
AnchorPoint: "ekaara" 264 597 basechar 0
AnchorPoint: "bindu" 400 740 basechar 0
LayerCount: 2
Fore
SplineSet
347 194 m 1
 320 179 289 164 247 164 c 0
 229 164 202 168 171 185 c 0
 152 196 135 209 122 222 c 0
 88 256 76 292 76 328 c 0
 76 393 142 417 205 420 c 1
 212 420 l 2
 228 420 250 417 277 405 c 0
 310 390 332 373 346 361 c 1
 347 412 350 466 355 531 c 0
 356 543 359 554 365 563 c 1
 361 566 362 564 360 566 c 1
 349 556 352 530 338 503 c 0
 337 500 333 497 324 497 c 0
 319 497 314 499 306 501 c 0
 290 506 259 523 251 542 c 2
 209 638 l 1
 274 617 l 1
 281 626 293 632 309 632 c 0
 339 632 375 607 383 601 c 1
 427 606 456 627 509 642 c 0
 511 643 514 643 517 643 c 0
 543 643 590 613 590 592 c 0
 590 588 589 585 587 584 c 0
 524 540 447 542 443 489 c 0
 440 451 439 418 437 386 c 1
 465 403 503 420 547 420 c 0
 583 420 636 402 665 383 c 0
 720 347 737 309 737 277 c 2
 737 270 l 1
 730 190 643 169 569 165 c 1
 563 165 l 2
 507 165 452 211 433 232 c 1
 439 -43 l 1
 350 -2 l 1
 347 194 l 1
345 311 m 1
 304 334 283 355 277 359 c 1
 275 359 274 360 272 360 c 2
 268 360 l 1
 217 357 164 337 164 288 c 0
 164 261 177 235 186 224 c 1
 187 224 l 2
 193 224 193 224 196 225 c 0
 260 236 303 272 345 311 c 1
453 280 m 1
 480 258 496 237 507 225 c 1
 572 229 643 249 649 312 c 1
 649 317 l 2
 649 341 634 355 634 355 c 1
 629 358 618 360 607 360 c 0
 602 360 596 359 588 357 c 0
 532 345 492 315 453 280 c 1
EndSplineSet
EndChar

StartChar: ja.0001
Encoding: 106 -1 106
Width: 810
VWidth: 0
Flags: W
VStem: 384 88<-2 99.4358>
AnchorPoint: "ukaara" 428 0 basechar 0
AnchorPoint: "virama" 406 -120 basechar 0
AnchorPoint: "repha" 387 507 basechar 0
AnchorPoint: "aakaara" 690 378 basechar 0
AnchorPoint: "iikaara" 645 585 basechar 0
AnchorPoint: "ekaara" 183 561 basechar 0
AnchorPoint: "bindu" 406 740 basechar 0
LayerCount: 2
Fore
SplineSet
340 481 m 1
 351 490 l 1
 349 491 348 492 340 496 c 1
 340 495 339 493 339 490 c 0
 339 488 339 485 340 481 c 1
642 618 m 1
 708 557 l 1
 678 555 l 1
 609 549 578 551 578 503 c 2
 578 496 l 1
 580 464 638 426 693 399 c 2
 738 377 l 1
 731 335 l 1
 687 357 l 2
 638 382 542 436 505 494 c 1
 397 407 l 1
 390 402 l 1
 418 385 449 367 487 337 c 0
 556 283 588 247 642 198 c 2
 675 168 l 1
 615 162 l 1
 582 192 l 2
 522 247 495 277 437 323 c 0
 411 344 395 350 355 375 c 1
 293 329 250 303 193 264 c 1
 222 253 254 239 289 219 c 0
 354 181 408 146 462 89 c 0
 470 80 472 74 472 70 c 2
 472 -43 l 1
 384 -2 l 1
 384 102 l 1
 349 136 326 150 267 185 c 0
 225 209 198 214 122 247 c 0
 110 253 75 274 75 290 c 0
 75 293 76 296 79 298 c 0
 157 352 204 379 280 436 c 1
 287 441 l 1
 120 587 l 1
 177 596 l 1
 251 531 l 1
 252 562 271 579 309 579 c 0
 314 579 362 575 390 541 c 1
 440 552 456 584 503 613 c 0
 506 615 509 616 513 616 c 0
 522 616 535 612 546 606 c 1
 565 611 588 613 612 615 c 2
 642 618 l 1
EndSplineSet
EndChar

StartChar: jha.0001
Encoding: 107 -1 107
Width: 663
VWidth: 0
Flags: W
HStem: 319 51<330 371.852> 480 133<129.234 193.951>
VStem: 241 88<123.142 319 363.627 504.593>
AnchorPoint: "ukaara" 282 0 basechar 0
AnchorPoint: "virama" 316 -120 basechar 0
AnchorPoint: "repha" 249 540 basechar 0
AnchorPoint: "aakaara" 543 411 basechar 0
AnchorPoint: "ekaara" 120 582 basechar 0
AnchorPoint: "iikaara" 408 582 basechar 0
AnchorPoint: "bindu" 316 740 basechar 0
LayerCount: 2
Fore
SplineSet
379 613 m 0
 405 613 452 584 452 562 c 0
 452 558 450 555 449 554 c 0
 395 514 334 519 332 471 c 1
 330 370 l 1
 342 367 356 362 374 354 c 0
 383 350 388 346 391 345 c 1
 391 350 l 2
 391 438 488 438 509 441 c 2
 538 445 l 1
 606 384 l 1
 577 381 l 2
 551 378 479 380 479 310 c 0
 479 253 493 287 528 222 c 0
 530 217 535 206 520 204 c 0
 519 204 518 204 517 204 c 0
 505 204 479 210 457 230 c 0
 408 274 397 294 372 310 c 0
 369 311 356 311 329 319 c 1
 328 273 l 1
 329 100 l 2
 329 74 324 58 296 58 c 0
 285 58 272 62 265 64 c 1
 343 -35 l 1
 268 -25 l 1
 116 167 l 2
 113 171 109 177 109 182 c 0
 109 187 113 192 123 192 c 0
 134 192 152 188 172 174 c 0
 197 156 219 137 238 123 c 1
 239 126 241 131 241 140 c 2
 240 315 l 1
 244 513 l 1
 244 517 l 1
 236 520 223 526 207 539 c 1
 203 527 204 507 194 486 c 0
 193 484 189 480 179 480 c 0
 174 480 169 480 161 483 c 0
 145 488 115 505 107 524 c 2
 66 623 l 1
 129 602 l 1
 134 607 139 609 145 611 c 0
 155 615 158 613 160 613 c 0
 195 613 235 580 243 572 c 1
 285 577 318 598 372 612 c 0
 374 613 377 613 379 613 c 0
EndSplineSet
EndChar

StartChar: Ja.0001
Encoding: 108 -1 108
Width: 834
VWidth: 0
Flags: W
HStem: 313 51<501 542.852> 473 128<298.653 364.905> 570 60<191.311 243.782>
VStem: 412 88<117.189 313 357.627 498.108>
AnchorPoint: "ukaara" 456 0 basechar 0
AnchorPoint: "virama" 442 -120 basechar 0
AnchorPoint: "repha" 420 534 basechar 0
AnchorPoint: "aakaara" 714 405 basechar 0
AnchorPoint: "ekaara" 120 549 basechar 0
AnchorPoint: "iikaara" 579 576 basechar 0
AnchorPoint: "bindu" 442 740 basechar 0
LayerCount: 2
Fore
SplineSet
156 630 m 1xb0
 166 630 l 2xb0
 181 630 201 628 226 617 c 0
 251 606 271 591 285 580 c 1
 289 590 297 601 323 601 c 0
 346 601 383 583 404 565 c 1
 450 570 483 590 543 606 c 1
 548 606 l 2
 557 606 575 603 596 589 c 0
 608 581 624 566 624 556 c 0
 624 553 623 550 620 548 c 0
 568 509 505 514 503 465 c 1
 501 364 l 1
 513 361 527 356 545 348 c 0
 554 344 559 340 562 339 c 1
 562 344 l 2
 562 432 659 432 680 435 c 2
 709 439 l 1
 777 378 l 1
 748 375 l 2
 722 372 650 374 650 304 c 0
 650 247 664 281 699 216 c 0
 701 211 706 200 691 198 c 0
 690 198 689 198 688 198 c 0
 676 198 650 204 628 224 c 0
 579 268 568 288 543 304 c 0
 540 305 527 305 500 313 c 1
 499 267 l 1
 500 94 l 2
 500 71 497 52 467 52 c 0
 462 52 456 52 442 56 c 1
 518 -34 l 1
 445 -26 l 1
 288 160 l 2
 282 167 279 172 279 176 c 0
 279 183 287 186 295 186 c 0
 296 186 297 186 298 186 c 0
 317 184 338 172 343 168 c 0
 372 148 394 128 409 117 c 1
 411 121 412 127 412 134 c 2
 411 309 l 1
 415 507 l 1
 415 511 l 1
 413 512 411 512 409 513 c 0
 389 522 378 531 374 534 c 1
 369 523 372 499 365 480 c 0
 363 475 359 473 352 473 c 0xd0
 341 473 324 479 314 485 c 0
 295 495 287 506 284 509 c 0
 261 537 257 549 254 552 c 0
 240 562 233 567 230 569 c 1
 228 569 227 570 226 570 c 2
 221 570 l 1
 202 567 190 542 161 521 c 2
 144 509 l 1
 62 564 l 1
 79 577 l 2
 102 594 108 626 156 630 c 1xb0
EndSplineSet
EndChar

StartChar: Ta.0001
Encoding: 109 -1 109
Width: 805
VWidth: 0
Flags: W
HStem: 34 60<268.667 557.475> 501 60<344.234 407.149>
VStem: 76 88<167.498 242.102> 405 88<446.721 479.298>
AnchorPoint: "ukaara" 433 64 basechar 0
AnchorPoint: "virama" 402 -120 basechar 0
AnchorPoint: "repha" 395 531 basechar 0
AnchorPoint: "aakaara" 686 378 basechar 0
AnchorPoint: "iikaara" 641 585 basechar 0
AnchorPoint: "ekaara" 170 585 basechar 0
AnchorPoint: "bindu" 402 740 basechar 0
LayerCount: 2
Fore
SplineSet
638 618 m 1
 704 557 l 1
 674 555 l 1
 605 549 574 551 574 503 c 2
 574 496 l 1
 576 464 634 426 689 399 c 2
 734 377 l 1
 727 335 l 1
 683 357 l 2
 638 380 553 427 511 480 c 1
 500 465 493 451 493 441 c 2
 493 434 l 2
 493 421 487 410 464 390 c 0
 375 313 272 331 215 276 c 0
 179 241 164 211 164 187 c 0
 164 166 175 154 182 147 c 0
 233 101 280 96 403 94 c 1
 413 94 l 2
 507 94 614 123 639 161 c 2
 650 178 l 1
 736 127 l 1
 725 111 l 1
 693 62 579 34 473 34 c 2
 463 34 l 1
 361 36 243 31 121 142 c 0
 90 170 76 200 76 227 c 0
 76 260 93 293 131 330 c 0
 199 396 300 374 380 444 c 0
 403 464 405 470 405 474 c 2
 405 481 l 2
 405 486 405 492 408 501 c 1
 386 502 358 506 326 525 c 0
 320 529 313 533 305 539 c 1
 284 536 271 509 262 446 c 0
 261 442 258 437 248 437 c 0
 243 437 237 438 229 441 c 0
 213 446 183 463 175 482 c 2
 116 626 l 1
 202 598 l 1
 207 587 l 1
 218 597 230 600 251 600 c 0
 265 600 280 598 297 591 c 0
 324 580 339 566 344 562 c 1
 349 561 353 561 357 561 c 2
 365 561 l 1
 408 562 420 564 431 569 c 0
 445 575 460 589 499 613 c 0
 502 615 505 616 509 616 c 0
 519 616 531 612 542 606 c 1
 561 611 584 613 608 615 c 2
 638 618 l 1
EndSplineSet
EndChar

StartChar: Tha.0001
Encoding: 110 -1 110
Width: 822
VWidth: 0
Flags: W
HStem: 27 60<265.905 560.09>
VStem: 76 88<158.677 320.067> 658 88<163.054 290.377>
AnchorPoint: "ukaara" 406 58 basechar 0
AnchorPoint: "virama" 406 -120 basechar 0
AnchorPoint: "aakaara" 656 537 basechar 0
AnchorPoint: "repha" 432 585 basechar 0
AnchorPoint: "iikaara" 432 585 basechar 0
AnchorPoint: "ekaara" 366 528 basechar 0
AnchorPoint: "bindu" 406 740 basechar 0
LayerCount: 2
Fore
SplineSet
425 512 m 1
 302 417 164 418 164 202 c 0
 164 163 179 138 188 128 c 0
 205 110 272 92 377 88 c 0
 391 88 401 87 410 87 c 0
 528 87 653 115 658 222 c 1
 658 231 l 1
 657 238 l 1
 653 388 518 470 427 511 c 1
 425 512 l 1
458 541 m 1
 593 473 746 351 746 191 c 2
 746 180 l 1
 741 55 597 27 470 27 c 0
 457 27 446 28 435 28 c 0
 358 31 210 33 119 131 c 0
 87 165 76 200 76 242 c 0
 76 503 280 479 390 611 c 1
 403 627 l 1
 488 574 l 1
 474 559 l 2
 468 552 463 546 458 541 c 1
EndSplineSet
EndChar

StartChar: Da.0001
Encoding: 111 -1 111
Width: 624
VWidth: 0
Flags: W
HStem: 447 145<152.374 204.952>
VStem: 331 88<70.4871 317>
AnchorPoint: "ukaara" 363 0 basechar 0
AnchorPoint: "virama" 343 -120 basechar 0
AnchorPoint: "repha" 303 513 basechar 0
AnchorPoint: "aakaara" 504 588 basechar 0
AnchorPoint: "iikaara" 504 588 basechar 0
AnchorPoint: "ekaara" 120 573 basechar 0
AnchorPoint: "bindu" 343 740 basechar 0
LayerCount: 2
Fore
SplineSet
475 619 m 0
 502 619 548 588 548 567 c 0
 548 564 547 563 546 562 c 0
 488 498 455 455 403 400 c 1
 419 380 421 364 421 338 c 0
 421 325 420 311 420 292 c 0
 420 275 420 256 419 237 c 0
 414 48 423 41 391 15 c 1
 394 14 l 1
 418 -41 l 1
 375 -27 l 2
 342 -16 309 -1 280 18 c 0
 266 26 257 31 251 36 c 0
 217 61 198 81 187 89 c 0
 186 90 183 91 180 93 c 0
 170 99 150 116 150 128 c 0
 150 136 156 138 166 138 c 0
 181 138 208 125 224 113 c 0
 249 96 266 82 279 71 c 0
 285 66 289 63 292 60 c 1
 295 61 299 62 304 66 c 0
 335 91 326 76 331 279 c 0
 332 292 332 304 332 317 c 1
 218 233 l 2
 216 232 213 231 207 231 c 0
 197 231 180 234 161 247 c 0
 149 255 132 270 132 281 c 0
 132 284 133 286 135 288 c 0
 196 342 234 369 291 426 c 0
 312 447 330 465 347 484 c 1
 336 483 l 1
 329 483 l 2
 297 483 254 508 234 527 c 1
 221 517 221 482 205 452 c 0
 204 450 201 447 192 447 c 0
 187 447 182 448 174 450 c 0
 158 455 127 472 119 491 c 2
 65 614 l 1
 151 586 l 1
 152 584 l 1
 160 592 167 592 186 592 c 0
 229 592 275 552 282 545 c 1
 351 555 391 589 466 617 c 0
 469 618 472 619 475 619 c 0
EndSplineSet
EndChar

StartChar: Dha.0001
Encoding: 112 -1 112
Width: 914
VWidth: 0
Flags: W
HStem: 20 60<545.5 690.633> 501 60<433.119 508.362> 540 60<377.486 421.181>
VStem: 751 88<129.182 213.09>
AnchorPoint: "ukaara" 612 50 basechar 0
AnchorPoint: "virama" 448 -120 basechar 0
AnchorPoint: "repha" 480 531 basechar 0
AnchorPoint: "aakaara" 666 591 basechar 0
AnchorPoint: "iikaara" 666 591 basechar 0
AnchorPoint: "ekaara" 264 579 basechar 0
AnchorPoint: "bindu" 448 740 basechar 0
LayerCount: 2
Fore
SplineSet
839 148 m 2xd0
 839 42 731 28 645 20 c 1
 631 20 l 2
 552 20 474 86 453 97 c 0
 369 142 372 159 354 166 c 0
 287 189 238 186 141 204 c 0
 129 206 75 232 75 255 c 0
 75 258 77 261 81 263 c 0
 237 341 389 381 509 501 c 1
 505 501 l 2xd0
 493 501 474 503 450 514 c 0
 430 523 415 535 410 538 c 1
 408 538 403 540 394 540 c 2
 388 540 l 1
 379 539 377 502 358 467 c 0
 357 465 352 458 332 463 c 0
 317 467 286 482 274 502 c 2
 206 618 l 1
 288 597 l 1
 295 586 l 1
 301 595 307 599 327 600 c 1
 334 600 l 2xb0
 362 600 388 595 414 582 c 0
 432 573 443 564 448 561 c 1
 449 561 l 1
 517 566 554 596 629 620 c 0
 631 621 634 622 637 622 c 0
 663 622 710 591 710 571 c 0
 710 568 709 565 708 564 c 0
 628 490 594 434 502 374 c 0
 404 310 329 282 240 243 c 1
 271 238 300 230 336 218 c 0
 419 188 460 137 465 135 c 0
 556 86 535 80 571 80 c 2
 581 80 l 1
 660 87 732 97 748 167 c 0
 750 175 751 181 751 188 c 0
 751 239 716 258 681 274 c 1
 663 273 634 234 594 214 c 2
 573 204 l 1
 495 261 l 1
 516 272 l 1
 550 288 566 334 622 334 c 2
 626 334 l 2
 634 334 646 334 669 324 c 0
 747 291 831 229 839 160 c 1
 839 148 l 2xd0
EndSplineSet
EndChar

StartChar: Na.0001
Encoding: 113 -1 113
Width: 888
VWidth: 0
Flags: W
HStem: 461 61<220.466 279.934>
VStem: 76 88<114.767 362.245> 284 89<217.882 458.41> 446 88<-9.88843 151.669 213 461> 593 88<228.693 455.025>
AnchorPoint: "ukaara" 490 0 basechar 0
AnchorPoint: "virama" 431 -120 basechar 0
AnchorPoint: "repha" 484 591 basechar 0
AnchorPoint: "aakaara" 769 153 basechar 0
AnchorPoint: "iikaara" 691 582 basechar 0
AnchorPoint: "ekaara" 148 417 basechar 0
AnchorPoint: "bindu" 481 740 basechar 0
LayerCount: 2
Fore
SplineSet
234 -5 m 1
 154 13 l 1
 135 42 l 2
 89 112 76 174 76 237 c 0
 76 301 90 366 104 439 c 0
 115 497 170 522 232 522 c 0
 246 522 263 520 285 510 c 0
 365 474 373 419 373 377 c 0
 373 366 372 357 372 349 c 0
 372 305 366 256 360 216 c 1
 374 222 385 225 400 225 c 0
 411 225 429 220 444 213 c 1
 440 611 l 2
 440 618 445 621 453 621 c 0
 462 621 475 618 484 614 c 0
 513 601 525 582 527 576 c 0
 533 559 534 542 535 529 c 1
 588 553 608 609 659 612 c 1
 661 612 l 2
 686 612 736 584 736 562 c 0
 736 561 735 559 735 558 c 0
 706 471 681 398 681 314 c 0
 681 285 684 255 690 225 c 0
 691 217 694 213 695 211 c 1
 706 206 748 193 790 163 c 2
 829 135 l 1
 787 114 l 1
 748 143 l 2
 744 146 708 148 648 194 c 0
 619 216 606 238 602 261 c 0
 596 293 593 323 593 354 c 0
 593 394 597 431 606 469 c 1
 592 463 574 459 550 459 c 0
 546 459 541 458 530 461 c 1
 534 -20 l 2
 534 -25 530 -30 519 -30 c 0
 493 -30 447 -3 446 20 c 0
 444 71 435 125 427 153 c 1
 390 135 343 102 341 101 c 0
 339 100 336 99 330 99 c 0
 323 99 314 100 301 106 c 0
 285 114 257 133 257 149 c 0
 257 185 284 297 284 389 c 0
 284 416 281 443 275 461 c 1
 238 457 200 437 192 395 c 0
 178 322 164 258 164 197 c 0
 164 137 178 81 215 24 c 2
 234 -5 l 1
EndSplineSet
EndChar

StartChar: ta.0001
Encoding: 114 -1 114
Width: 630
VWidth: 0
Flags: W
HStem: 459 149<148.376 210.952>
VStem: 309 88<98 395>
AnchorPoint: "ukaara" 353 100 basechar 0
AnchorPoint: "virama" 301 -20 basechar 0
AnchorPoint: "repha" 330 537 basechar 0
AnchorPoint: "aakaara" 510 597 basechar 0
AnchorPoint: "iikaara" 510 597 basechar 0
AnchorPoint: "ekaara" 123 582 basechar 0
AnchorPoint: "bindu" 301 740 basechar 0
LayerCount: 2
Fore
SplineSet
149 201 m 0
 129 201 75 228 75 251 c 0
 75 253 76 255 77 257 c 0
 155 361 184 435 282 527 c 1
 268 534 252 545 247 548 c 1
 215 548 235 508 211 464 c 0
 210 462 207 459 198 459 c 0
 194 459 188 459 181 461 c 0
 165 466 136 482 126 502 c 2
 67 622 l 1
 148 598 l 1
 156 608 165 608 187 608 c 0
 202 608 216 604 229 600 c 0
 268 586 291 568 292 568 c 0
 293 568 294 567 295 567 c 0
 369 567 421 609 473 626 c 0
 475 627 478 628 481 628 c 0
 506 628 554 597 554 577 c 0
 554 573 552 569 549 568 c 0
 482 534 435 529 386 492 c 1
 397 479 400 472 400 468 c 0
 400 465 398 463 398 460 c 2
 397 57 l 1
 308 98 l 1
 309 120 l 1
 309 395 l 1
 263 337 205 256 162 205 c 0
 160 203 156 201 149 201 c 0
EndSplineSet
EndChar

StartChar: tha.0001
Encoding: 115 -1 115
Width: 658
VWidth: 0
Flags: W
HStem: -30 60<180.848 342.227> 552 60<281.676 409.918>
VStem: 76 88<57.2761 173.653> 110 88<395.544 475.497> 415 88<121 304.902>
AnchorPoint: "ukaara" 458 0 basechar 0
AnchorPoint: "virama" 362 -120 basechar 0
AnchorPoint: "repha" 346 582 basechar 0
AnchorPoint: "aakaara" 538 585 basechar 0
AnchorPoint: "iikaara" 538 585 basechar 0
AnchorPoint: "ekaara" 245 560 basechar 0
AnchorPoint: "bindu" 362 740 basechar 0
LayerCount: 2
Fore
SplineSet
422 -6 m 1xd8
 393 -23 350 -30 305 -30 c 0
 303 -30 301 -30 299 -30 c 0
 258 -30 173 -29 119 29 c 0
 84 68 76 102 76 137 c 0xe8
 76 178 91 219 121 254 c 0
 153 292 187 310 223 322 c 1
 144 359 110 416 110 460 c 0
 110 471 111 483 116 495 c 0
 149 576 224 608 315 612 c 1
 324 612 l 2
 382 612 444 574 459 565 c 1
 467 584 485 594 495 610 c 2
 506 627 l 1
 592 576 l 1
 581 560 l 1
 564 533 545 526 543 504 c 0
 523 269 506 201 503 75 c 1
 506 73 l 1
 503 70 l 1
 503 56 502 42 502 27 c 2
 502 -43 l 1
 422 -6 l 1xd8
415 121 m 1
 417 189 423 240 431 309 c 1
 337 259 270 278 205 202 c 0
 178 170 164 133 164 97 c 0
 164 73 171 52 180 37 c 1
 198 33 222 30 245 30 c 0
 274 30 300 33 320 41 c 0
 374 61 369 83 407 114 c 1
 415 121 l 1
442 413 m 1
 445 445 449 481 453 522 c 1
 395 547 418 552 384 552 c 2
 377 552 l 1
 299 548 234 521 204 447 c 0
 200 437 198 428 198 420 c 0xd8
 198 407 202 396 206 387 c 0
 217 366 225 365 230 364 c 0
 262 355 275 351 290 351 c 0
 315 351 351 366 419 412 c 0
 422 414 426 415 430 415 c 0
 434 415 438 414 442 413 c 1
EndSplineSet
EndChar

StartChar: da.0001
Encoding: 116 -1 116
Width: 723
VWidth: 0
Flags: W
HStem: 513 54<316.427 356.829> 532 61<294.624 326.858> 552 60<549.477 612.011>
VStem: 317 88<48 161.261>
AnchorPoint: "ukaara" 361 50 basechar 0
AnchorPoint: "virama" 373 -70 basechar 0
AnchorPoint: "repha" 369 537 basechar 0
AnchorPoint: "aakaara" 588 582 basechar 0
AnchorPoint: "iikaara" 588 582 basechar 0
AnchorPoint: "ekaara" 195 564 basechar 0
AnchorPoint: "bindu" 373 740 basechar 0
LayerCount: 2
Fore
SplineSet
332 340 m 1x30
 361 331 385 317 404 302 c 1
 451 345 505 358 562 397 c 2
 580 409 l 1
 662 353 l 1
 644 341 l 2
 577 296 525 286 479 239 c 1
 483 236 l 1
 471 230 l 1
 467 226 464 222 460 217 c 0
 413 155 405 105 405 30 c 2
 405 7 l 1
 317 48 l 1
 317 70 l 2
 317 146 325 204 374 269 c 1
 366 276 360 282 356 285 c 1
 287 306 238 303 143 318 c 0
 135 319 76 340 76 369 c 0
 76 374 79 378 90 378 c 2
 95 378 l 2
 122 378 144 372 169 372 c 0
 206 372 258 384 323 467 c 0
 351 503 360 510 360 512 c 0
 360 513 359 513 358 513 c 0x90
 341 518 325 527 316 532 c 0
 315 532 312 531 309 529 c 0
 286 517 296 486 281 447 c 0
 280 445 277 441 267 441 c 0
 263 441 256 442 249 444 c 0
 233 449 203 464 194 484 c 2
 140 605 l 1
 219 580 l 1
 223 585 225 584 231 587 c 0
 239 591 246 593 258 593 c 0x50
 289 593 320 574 335 567 c 1
 338 567 l 1x90
 421 574 468 594 553 612 c 0
 555 612 557 612 559 612 c 0
 585 612 632 585 632 562 c 0
 632 556 628 553 625 552 c 0
 488 512 496 526 409 415 c 0
 381 379 354 355 330 340 c 1
 332 340 l 1x30
EndSplineSet
EndChar

StartChar: dha.0001
Encoding: 117 -1 117
Width: 753
VWidth: 0
Flags: W
HStem: 15 60<227.422 445.115> 518 60<386.731 542.617>
VStem: 76 88<135.822 304.662> 537 89<-2 42 117 401.826> 543 90<264.056 516.989>
AnchorPoint: "ukaara" 581 0 basechar 0
AnchorPoint: "virama" 395 -120 basechar 0
AnchorPoint: "repha" 466 548 basechar 0
AnchorPoint: "aakaara" 634 594 basechar 0
AnchorPoint: "iikaara" 634 594 basechar 0
AnchorPoint: "ekaara" 259 471 basechar 0
AnchorPoint: "bindu" 445 740 basechar 0
LayerCount: 2
Fore
SplineSet
603 636 m 1xf0
 689 585 l 1
 677 568 l 2
 656 539 634 533 633 510 c 0xe8
 627 375 622 268 622 148 c 1
 626 -43 l 1
 537 -2 l 1
 537 42 l 1
 487 29 448 15 357 15 c 0
 294 15 196 29 126 100 c 0
 86 140 76 177 76 244 c 0
 76 353 129 419 217 498 c 0
 283 556 362 578 443 578 c 0
 474 578 504 576 537 570 c 2
 548 568 l 1
 556 592 578 602 591 620 c 2
 603 636 l 1xf0
543 516 m 1
 530 517 516 518 503 518 c 0
 435 518 363 499 301 444 c 0
 214 366 164 305 164 204 c 0
 164 187 165 169 168 153 c 0
 173 125 185 106 192 99 c 0
 199 92 228 75 297 75 c 0
 406 75 428 98 521 114 c 1
 535 117 l 1
 534 188 l 1
 534 298 538 398 543 516 c 1
EndSplineSet
EndChar

StartChar: na.0001
Encoding: 118 -1 118
Width: 688
VWidth: 0
Flags: W
HStem: 244 60<164.023 227.784> 480 138<238.381 302.906>
VStem: 76 88<314.328 350> 368 88<97 362.335>
AnchorPoint: "ukaara" 412 100 basechar 0
AnchorPoint: "virama" 350 -20 basechar 0
AnchorPoint: "repha" 406 534 basechar 0
AnchorPoint: "aakaara" 568 597 basechar 0
AnchorPoint: "iikaara" 568 597 basechar 0
AnchorPoint: "ekaara" 223 594 basechar 0
AnchorPoint: "bindu" 350 740 basechar 0
LayerCount: 2
Fore
SplineSet
538 628 m 0
 565 628 612 598 612 577 c 0
 612 573 609 569 607 568 c 2
 559 545 l 1
 537 533 516 520 489 512 c 1
 474 505 458 497 446 488 c 1
 425 475 412 459 401 441 c 1
 405 439 409 435 411 434 c 0
 452 407 457 385 457 360 c 0
 457 353 456 346 456 339 c 2
 453 136 l 1
 454 126 l 1
 456 122 456 117 456 111 c 0
 456 108 456 104 456 99 c 0
 456 94 456 88 456 80 c 2
 457 57 l 1
 368 97 l 1
 368 120 l 1
 367 138 366 151 366 156 c 1
 362 165 365 163 365 178 c 2
 368 363 l 1
 357 334 342 304 316 276 c 0
 296 255 275 244 243 244 c 0
 221 244 196 249 170 261 c 0
 159 266 150 272 143 276 c 0
 93 307 76 341 76 364 c 0
 76 368 76 374 77 378 c 2
 83 397 l 1
 171 350 l 1
 165 330 l 2
 165 329 164 328 164 324 c 0
 164 316 169 308 171 306 c 1
 173 306 176 304 183 304 c 0
 196 304 214 311 232 330 c 0
 274 375 280 430 306 478 c 1
 303 483 l 1
 301 481 298 480 292 480 c 0
 288 480 282 481 275 483 c 0
 259 488 228 503 219 523 c 2
 168 635 l 1
 237 613 l 1
 242 617 246 617 252 618 c 0
 253 618 254 618 255 618 c 0
 258 618 262 619 265 619 c 0
 319 619 375 569 379 565 c 1
 383 565 l 1
 394 566 404 568 412 570 c 1
 481 602 l 2
 496 610 512 619 530 626 c 0
 533 627 535 628 538 628 c 0
303 483 m 1
 308 482 l 1
 318 500 332 517 351 533 c 1
 338 542 327 552 320 558 c 1
 309 555 317 523 306 487 c 0
 306 486 305 484 303 483 c 1
EndSplineSet
EndChar

StartChar: pa.0001
Encoding: 119 -1 119
Width: 714
VWidth: 0
Flags: W
HStem: 162 60<297.291 420.478> 502 108<282.987 340.601>
VStem: 169 88<292.568 461.047> 517 89<-2 196 309 559.306>
AnchorPoint: "ukaara" 561 0 basechar 0
AnchorPoint: "virama" 403 -120 basechar 0
AnchorPoint: "repha" 240 528 basechar 0
AnchorPoint: "aakaara" 594 597 basechar 0
AnchorPoint: "iikaara" 594 597 basechar 0
AnchorPoint: "ekaara" 120 585 basechar 0
AnchorPoint: "bindu" 403 740 basechar 0
LayerCount: 2
Fore
SplineSet
176 538 m 1
 188 506 l 1
 193 521 l 2
 193 522 193 522 194 524 c 1
 190 527 183 533 176 538 c 1
315 610 m 0
 341 610 389 579 389 559 c 0
 389 556 388 552 386 551 c 0
 375 542 365 538 355 533 c 1
 338 522 322 508 298 502 c 1
 290 494 284 486 281 475 c 0
 271 438 257 392 257 353 c 0
 257 316 266 283 285 246 c 0
 291 235 296 230 297 229 c 0
 303 227 323 222 347 222 c 2
 365 222 l 1
 416 225 442 268 500 301 c 1
 515 309 l 1
 514 566 l 2
 514 597 539 606 551 623 c 2
 563 639 l 1
 648 588 l 1
 637 571 l 1
 620 547 602 542 602 526 c 2
 606 -43 l 1
 517 -2 l 1
 516 196 l 1
 493 179 468 164 427 162 c 1
 407 162 l 2
 374 162 327 163 270 198 c 0
 242 216 217 240 201 270 c 0
 179 314 169 352 169 393 c 0
 169 413 171 434 176 457 c 1
 174 457 171 459 170 459 c 0
 154 464 124 482 116 501 c 2
 107 522 l 1
 99 536 86 556 86 574 c 0
 86 575 86 576 86 577 c 2
 66 626 l 1
 132 604 l 1
 175 603 213 563 218 559 c 1
 232 573 256 580 275 589 c 1
 285 596 295 602 306 608 c 0
 309 609 311 610 315 610 c 0
EndSplineSet
EndChar

StartChar: ba.0001
Encoding: 121 -1 121
Width: 630
VWidth: 0
Flags: W
HStem: 87 60<172.146 249.418> 559 60<191.5 274.575>
VStem: 77 87<168.798 264.186> 319 89<-2 102 243 351.673>
AnchorPoint: "ukaara" 363 0 basechar 0
AnchorPoint: "virama" 293 -120 basechar 0
AnchorPoint: "ekaara" 157 588 basechar 0
AnchorPoint: "iikaara" 511 606 basechar 0
AnchorPoint: "aakaara" 511 606 basechar 0
AnchorPoint: "repha" 346 543 basechar 0
AnchorPoint: "bindu" 343 740 basechar 0
LayerCount: 2
Fore
SplineSet
250 87 m 0
 178 87 83 152 77 223 c 1
 77 224 l 2
 77 227 76 230 76 237 c 0
 76 298 113 339 158 375 c 0
 236 438 203 377 300 532 c 1
 301 533 l 1
 276 546 262 559 260 559 c 0
 240 559 250 534 231 495 c 0
 230 493 226 489 216 489 c 0
 212 489 206 490 199 492 c 0
 183 497 152 514 144 533 c 2
 121 586 l 1
 104 596 l 1
 111 608 l 1
 102 629 l 1
 120 623 l 1
 124 630 l 1
 154 612 l 1
 165 609 l 1
 172 617 183 619 200 619 c 0
 216 619 235 615 250 609 c 0
 287 594 307 575 310 573 c 1
 315 573 l 2
 334 573 352 578 366 584 c 1
 379 593 394 599 411 605 c 1
 430 615 450 626 473 635 c 0
 476 636 478 637 481 637 c 0
 508 637 555 606 555 586 c 0
 555 582 554 579 552 578 c 0
 531 563 509 555 489 548 c 1
 466 536 l 2
 460 533 453 530 445 527 c 1
 432 517 426 507 423 489 c 1
 411 332 406 241 406 100 c 1
 408 -43 l 1
 319 -2 l 1
 318 102 l 1
 299 93 276 87 250 87 c 0
319 243 m 1
 320 293 322 339 325 390 c 1
 294 349 290 361 240 321 c 0
 196 286 164 249 164 197 c 0
 164 195 165 188 165 184 c 0
 167 162 179 150 182 148 c 0
 183 148 186 147 190 147 c 0
 236 147 285 190 305 229 c 2
 314 246 l 1
 319 243 l 1
EndSplineSet
EndChar

StartChar: bha.0001
Encoding: 122 -1 122
Width: 726
VWidth: 0
Flags: W
HStem: 501 60<370.563 445.774> 546 60<312.203 349.143>
VStem: 260 88<187.377 275.098> 507 88<48 320.296>
AnchorPoint: "ukaara" 551 50 basechar 0
AnchorPoint: "virama" 403 -70 basechar 0
AnchorPoint: "repha" 420 531 basechar 0
AnchorPoint: "aakaara" 606 591 basechar 0
AnchorPoint: "iikaara" 606 591 basechar 0
AnchorPoint: "ekaara" 204 579 basechar 0
AnchorPoint: "bindu" 403 740 basechar 0
LayerCount: 2
Fore
SplineSet
577 622 m 0xb0
 603 622 650 591 650 571 c 0
 650 568 649 565 648 564 c 0
 582 503 546 455 485 405 c 1
 507 398 527 378 536 369 c 0
 588 317 595 274 595 228 c 0
 595 196 591 173 591 141 c 0
 591 86 595 69 595 30 c 2
 595 7 l 1
 507 48 l 1
 507 70 l 2
 507 106 503 124 503 181 c 0
 503 215 507 238 507 268 c 0
 507 295 485 362 478 362 c 0
 466 362 446 356 426 346 c 0
 376 320 348 293 348 244 c 0
 348 218 356 184 376 139 c 2
 388 112 l 1
 302 140 l 1
 290 167 l 2
 271 212 261 247 260 276 c 1
 229 262 196 248 159 229 c 2
 139 219 l 1
 60 276 l 1
 81 287 l 1
 192 343 260 361 361 430 c 0
 396 454 423 477 448 501 c 1
 445 501 l 2xb0
 432 501 412 503 388 514 c 0
 361 526 343 542 339 544 c 0
 337 544 334 546 324 546 c 2
 319 546 l 1
 311 545 314 507 299 468 c 0
 298 464 292 458 272 463 c 0
 257 467 226 482 214 502 c 2
 146 618 l 1
 228 597 l 1
 229 596 l 1
 234 605 239 605 258 606 c 1
 264 606 l 2x70
 291 606 317 600 342 588 c 0
 366 576 381 565 386 561 c 1
 389 561 l 1
 457 565 494 596 569 620 c 0
 571 621 574 622 577 622 c 0xb0
EndSplineSet
EndChar

StartChar: ma.0001
Encoding: 123 -1 123
Width: 687
VWidth: 0
Flags: W
HStem: 223 60<280.021 400.953>
VStem: 152 88<383.56 448.335> 192 88<283.119 363.422> 487 89<-2 174.672 208 556.094>
AnchorPoint: "ukaara" 532 0 basechar 0
AnchorPoint: "virama" 376 -120 basechar 0
AnchorPoint: "repha" 249 528 basechar 0
AnchorPoint: "aakaara" 567 597 basechar 0
AnchorPoint: "iikaara" 567 597 basechar 0
AnchorPoint: "ekaara" 129 585 basechar 0
AnchorPoint: "bindu" 376 740 basechar 0
LayerCount: 2
Fore
SplineSet
185 538 m 1x90
 194 516 l 1
 196 518 198 520 203 524 c 1
 199 527 192 532 185 538 c 1x90
324 610 m 0
 350 610 398 579 398 559 c 0
 398 556 397 552 395 551 c 0
 352 519 327 503 287 471 c 0
 271 459 262 449 255 440 c 0
 243 426 240 415 240 406 c 0xd0
 240 383 280 349 280 289 c 2
 280 283 l 1
 290 283 l 2
 383 283 435 247 488 208 c 1
 489 322 l 1
 487 566 l 2
 487 597 512 606 524 623 c 2
 536 639 l 1
 621 588 l 1
 610 571 l 1
 593 547 575 542 575 526 c 2
 577 282 l 1
 576 -20 l 1
 576 -43 l 1
 487 -2 l 1
 488 159 l 1
 403 220 424 223 374 223 c 2
 332 223 l 1
 285 220 238 193 208 167 c 1
 189 143 180 139 161 116 c 0
 158 113 154 111 149 111 c 0
 136 111 117 120 106 127 c 0
 81 142 75 156 75 163 c 0
 75 165 76 166 76 167 c 0
 86 184 103 203 123 220 c 1
 134 236 164 272 174 287 c 0
 188 305 192 312 192 329 c 0xb0
 192 375 152 398 152 446 c 0xd0
 152 453 153 462 156 470 c 1
 147 476 130 488 125 501 c 2
 116 522 l 1
 108 536 95 556 95 574 c 0
 95 575 95 576 95 577 c 2
 75 626 l 1
 141 604 l 1
 180 603 216 569 223 563 c 1
 315 608 l 2
 318 609 320 610 324 610 c 0
EndSplineSet
EndChar

StartChar: ya.0001
Encoding: 124 -1 124
Width: 725
VWidth: 0
Flags: W
HStem: 82 60<187.698 282.5> 181 59<409.221 472.286> 496 108<324.914 382.734>
VStem: 76 88<181.773 283.395> 525 89<-2 148.705 187 556.094>
AnchorPoint: "ukaara" 570 0 basechar 0
AnchorPoint: "virama" 414 -120 basechar 0
AnchorPoint: "repha" 281 522 basechar 0
AnchorPoint: "aakaara" 605 597 basechar 0
AnchorPoint: "iikaara" 605 597 basechar 0
AnchorPoint: "ekaara" 161 579 basechar 0
AnchorPoint: "bindu" 414 740 basechar 0
LayerCount: 2
Fore
SplineSet
229 501 m 1
 230 505 232 512 235 518 c 1
 231 521 224 527 217 532 c 1
 229 501 l 1
393 241 m 0
 442 241 505 203 526 187 c 1
 527 322 l 1
 525 566 l 2
 525 597 550 606 562 623 c 2
 574 639 l 1
 659 588 l 1
 648 571 l 1
 631 547 613 542 613 526 c 2
 615 282 l 1
 614 -20 l 1
 614 -43 l 1
 525 -2 l 1
 526 135 l 1
 489 156 464 178 461 180 c 0
 460 180 459 181 454 181 c 0
 396 181 391 96 303 84 c 0
 296 83 289 82 276 82 c 0
 183 82 76 154 76 259 c 0
 76 292 87 324 113 351 c 0
 156 397 217 383 263 390 c 1
 251 410 239 430 232 450 c 1
 206 450 168 470 157 495 c 2
 148 516 l 1
 140 530 127 550 127 568 c 0
 127 569 127 570 127 571 c 2
 107 620 l 1
 173 598 l 1
 216 597 254 557 259 553 c 1
 261 554 l 1
 276 567 295 574 315 583 c 1
 325 590 335 596 347 602 c 0
 350 603 352 604 356 604 c 0
 382 604 430 573 430 553 c 0
 430 550 429 546 427 545 c 0
 416 536 405 531 395 526 c 1
 379 515 362 502 339 496 c 1
 327 484 315 457 315 438 c 0
 315 401 358 361 358 342 c 0
 358 338 356 335 350 333 c 1
 276 315 237 340 197 297 c 0
 174 273 164 247 164 219 c 0
 164 193 177 160 191 146 c 1
 195 145 204 142 216 142 c 0
 221 142 228 143 235 144 c 0
 287 151 297 231 380 240 c 0
 381 240 382 240 383 240 c 0
 385 240 389 241 393 241 c 0
EndSplineSet
EndChar

StartChar: va.0001
Encoding: 127 -1 127
Width: 594
VWidth: 0
Flags: W
HStem: 489 133<126.552 193.951>
VStem: 82 88<228.946 342.231> 281 88<-2 103.27 140 342.836>
AnchorPoint: "ukaara" 325 0 basechar 0
AnchorPoint: "virama" 256 -120 basechar 0
AnchorPoint: "ekaara" 120 588 basechar 0
AnchorPoint: "iikaara" 474 606 basechar 0
AnchorPoint: "aakaara" 474 606 basechar 0
AnchorPoint: "repha" 309 543 basechar 0
AnchorPoint: "bindu" 306 740 basechar 0
LayerCount: 2
Fore
SplineSet
444 637 m 0
 471 637 518 606 518 586 c 0
 518 582 517 579 515 578 c 0
 494 563 472 555 452 548 c 1
 429 536 l 2
 423 533 416 530 408 527 c 1
 395 517 389 507 386 489 c 1
 374 329 368 236 368 89 c 1
 369 -20 l 1
 370 -43 l 1
 281 -2 l 1
 281 20 l 1
 280 93 l 1
 253 108 214 124 157 168 c 0
 97 214 82 267 82 320 c 0
 82 367 96 387 138 429 c 0
 167 458 202 468 268 519 c 1
 277 527 l 1
 249 540 230 555 221 562 c 1
 202 561 212 534 194 495 c 0
 193 493 189 489 179 489 c 0
 175 489 169 490 162 492 c 0
 146 497 115 514 107 533 c 2
 84 586 l 1
 67 596 l 1
 74 608 l 1
 65 629 l 1
 83 623 l 1
 87 630 l 1
 116 613 l 1
 126 610 l 1
 132 617 145 622 163 622 c 0
 179 622 197 618 212 612 c 0
 250 597 270 576 275 573 c 1
 278 573 l 2
 297 573 315 578 329 584 c 1
 342 593 357 599 374 605 c 1
 393 615 413 626 436 635 c 0
 439 636 441 637 444 637 c 0
280 140 m 1
 280 246 284 325 290 423 c 1
 259 403 238 391 222 375 c 0
 179 332 170 322 170 280 c 0
 170 228 197 190 202 186 c 0
 230 165 249 157 280 140 c 1
EndSplineSet
EndChar

StartChar: za.0001
Encoding: 128 -1 128
Width: 885
VWidth: 0
Flags: W
HStem: 549 60<348.287 521.545>
VStem: 187 88<446.02 502.178> 246 88<146.458 258.011> 566 88<-2 357.343>
AnchorPoint: "ukaara" 610 0 basechar 0
AnchorPoint: "virama" 436 -120 basechar 0
AnchorPoint: "repha" 425 578 basechar 0
AnchorPoint: "aakaara" 765 591 basechar 0
AnchorPoint: "iikaara" 765 591 basechar 0
AnchorPoint: "ekaara" 264 537 basechar 0
AnchorPoint: "bindu" 436 740 basechar 0
LayerCount: 2
Fore
SplineSet
458 313 m 1xd0
 388 373 l 1
 415 378 l 2
 438 382 474 406 513 437 c 1
 507 440 l 1
 514 459 l 2
 522 480 526 498 526 514 c 0
 526 527 522 538 519 544 c 1
 510 546 495 549 475 549 c 0
 411 549 329 525 304 509 c 0
 288 499 275 474 275 451 c 2
 275 446 l 1xd0
 284 455 l 1
 368 402 l 1
 354 387 l 1
 349 382 l 1
 359 370 l 1
 341 372 l 1
 326 355 314 338 303 322 c 1
 304 321 l 1
 330 280 334 229 334 177 c 0
 334 93 270 49 256 31 c 2
 243 15 l 1
 158 67 l 1
 170 83 l 2
 187 105 246 143 246 217 c 0xb0
 246 231 245 245 244 259 c 1
 222 245 194 234 154 228 c 2
 126 224 l 1
 57 284 l 1
 86 288 l 2
 154 298 180 326 208 363 c 1
 205 368 l 1
 211 367 l 1
 220 379 229 392 240 406 c 1
 239 407 237 408 236 409 c 0
 186 445 187 473 187 491 c 0
 187 521 201 550 224 565 c 0
 256 586 337 609 415 609 c 0
 447 609 481 608 524 588 c 0
 535 583 546 576 554 571 c 0
 583 552 598 534 606 516 c 1
 654 559 698 600 724 619 c 2
 741 631 l 1
 823 576 l 1
 806 563 l 2
 778 542 732 497 680 450 c 1
 685 447 l 1
 680 427 l 2
 670 391 658 374 656 342 c 0
 653 288 652 245 652 204 c 2
 654 9 l 1
 654 -43 l 1
 566 -2 l 1
 566 49 l 1
 564 244 l 2
 564 279 565 316 567 358 c 1
 537 338 509 322 485 318 c 2
 458 313 l 1xd0
EndSplineSet
EndChar

StartChar: Sa.0001
Encoding: 129 -1 129
Width: 714
VWidth: 0
Flags: W
HStem: 162 60<297.291 463.066> 503 107<283.906 342.142>
VStem: 169 88<292.568 461.955> 496 108<250.476 314.856> 516 88<-2 176 349 557.664>
AnchorPoint: "ukaara" 560 0 basechar 0
AnchorPoint: "virama" 403 -120 basechar 0
AnchorPoint: "repha" 240 528 basechar 0
AnchorPoint: "aakaara" 594 597 basechar 0
AnchorPoint: "iikaara" 594 597 basechar 0
AnchorPoint: "ekaara" 120 585 basechar 0
AnchorPoint: "bindu" 403 740 basechar 0
LayerCount: 2
Fore
SplineSet
315 610 m 0xe8
 341 610 389 579 389 559 c 0
 389 556 388 552 386 551 c 0
 374 542 363 536 352 531 c 1
 337 521 322 510 300 503 c 1
 290 494 283 483 279 468 c 0
 266 425 257 388 257 353 c 0
 257 316 266 283 285 246 c 0
 291 235 296 230 297 229 c 0
 303 227 323 222 347 222 c 2
 365 222 l 1
 428 225 496 240 496 292 c 0xf0
 496 305 493 312 491 315 c 1
 480 320 422 336 371 375 c 2
 332 404 l 1
 377 422 l 1
 415 393 l 2
 421 389 460 385 515 349 c 1
 514 566 l 2
 514 597 539 606 551 623 c 2
 563 639 l 1
 648 588 l 1
 637 571 l 1
 620 547 602 542 602 526 c 2
 604 194 l 1
 604 -43 l 1
 516 -2 l 1
 516 176 l 1
 488 167 456 163 427 162 c 1
 407 162 l 2
 374 162 327 163 270 198 c 0
 242 216 217 240 201 270 c 0
 179 314 169 352 169 393 c 0
 169 413 171 434 176 457 c 1
 174 457 171 459 170 459 c 0
 154 464 124 482 116 501 c 2
 66 626 l 1
 153 597 l 1
 155 592 l 1
 160 592 147 591 147 591 c 1
 168 591 199 583 225 564 c 1
 239 574 255 580 272 588 c 1
 283 595 293 602 306 608 c 0
 309 609 311 610 315 610 c 0xe8
EndSplineSet
EndChar

StartChar: sa.0001
Encoding: 130 -1 130
Width: 807
VWidth: 0
Flags: W
HStem: 261 60<108 186.125> 291 60<362.583 457.557>
VStem: 199 88<194.216 263.556> 602 88<-2 165 224 541.555>
AnchorPoint: "ukaara" 646 0 basechar 0
AnchorPoint: "virama" 436 -120 basechar 0
AnchorPoint: "repha" 381 540 basechar 0
AnchorPoint: "aakaara" 687 594 basechar 0
AnchorPoint: "iikaara" 687 594 basechar 0
AnchorPoint: "ekaara" 246 579 basechar 0
AnchorPoint: "bindu" 436 740 basechar 0
LayerCount: 2
Fore
SplineSet
327 520 m 1x30
 330 524 335 528 341 533 c 1
 340 534 339 534 337 535 c 1
 333 533 329 529 327 520 c 1x30
474 622 m 0
 500 622 548 590 548 571 c 0
 548 567 547 564 545 563 c 0
 518 543 519 530 468 505 c 0
 409 476 402 459 397 439 c 0
 392 418 392 390 361 351 c 1
 457 349 519 297 602 224 c 1
 602 233 l 1
 604 542 l 2
 604 579 630 593 644 619 c 2
 653 636 l 1
 740 587 l 1
 730 569 l 2
 713 537 692 528 692 502 c 2
 690 193 l 1
 690 -43 l 1
 602 -2 l 1
 602 165 l 1
 587 178 l 2
 460 287 475 291 425 291 c 2
 402 291 l 1x70
 357 290 327 290 313 271 c 0
 295 247 287 228 287 211 c 0
 287 170 318 157 366 131 c 2
 410 107 l 1
 398 68 l 1
 354 91 l 2
 297 121 199 181 199 251 c 0
 199 255 199 260 200 264 c 1
 189 262 179 261 169 261 c 0
 156 261 142 262 125 269 c 2
 81 287 l 1
 71 336 l 1
 108 321 l 1
 109 321 l 2xb0
 142 321 231 356 261 387 c 0
 287 414 297 434 302 451 c 1
 300 451 297 453 296 453 c 0
 280 458 250 476 242 495 c 2
 192 620 l 1
 266 595 l 1
 273 598 277 597 285 597 c 0
 309 597 341 583 357 572 c 1
 397 580 420 601 466 620 c 0
 469 621 471 622 474 622 c 0
EndSplineSet
EndChar

StartChar: ha.0001
Encoding: 131 -1 131
Width: 822
VWidth: 0
Flags: W
HStem: 297 60<397.382 516.815> 546 60<276.89 315.975>
VStem: 285 88<240.281 272.998> 519 105<181.925 270.738>
AnchorPoint: "ukaara" 375 90 basechar 0
AnchorPoint: "virama" 427 -120 basechar 0
AnchorPoint: "repha" 381 531 basechar 0
AnchorPoint: "aakaara" 579 597 basechar 0
AnchorPoint: "iikaara" 579 597 basechar 0
AnchorPoint: "ekaara" 165 579 basechar 0
AnchorPoint: "bindu" 427 740 basechar 0
LayerCount: 2
Fore
SplineSet
550 628 m 0
 576 628 623 597 623 577 c 0
 623 573 622 570 620 569 c 0
 530 509 480 473 388 416 c 0
 311 368 262 341 193 302 c 1
 227 285 258 264 285 240 c 1
 284 246 285 251 285 255 c 0
 285 322 328 357 405 357 c 0
 458 357 510 353 562 314 c 0
 618 272 625 221 625 189 c 0
 625 179 624 170 624 164 c 0
 624 160 625 158 626 157 c 0
 662 122 684 107 729 68 c 2
 764 38 l 1
 710 28 l 1
 675 58 l 2
 638 90 608 110 562 155 c 0
 520 197 519 235 519 263 c 0
 519 275 519 285 516 293 c 1
 506 295 490 297 465 297 c 0
 410 297 373 272 373 215 c 0
 373 184 385 146 397 118 c 1
 408 101 415 86 419 73 c 0
 419 71 420 70 420 69 c 0
 420 62 413 60 405 60 c 0
 372 60 337 94 333 101 c 0
 325 116 319 129 314 141 c 1
 294 173 239 224 214 243 c 0
 185 265 186 256 117 291 c 0
 116 292 111 293 100 301 c 0
 89 309 75 323 75 333 c 0
 75 336 77 338 80 340 c 0
 169 391 221 418 308 472 c 2
 365 508 l 1
 333 520 309 541 304 545 c 0
 303 545 299 546 291 546 c 2
 286 546 l 1
 277 545 277 506 260 468 c 0
 259 465 253 458 233 463 c 0
 218 467 187 482 175 502 c 2
 107 618 l 1
 189 597 l 1
 193 591 l 1
 198 602 203 605 225 606 c 1
 231 606 l 2
 258 606 285 600 311 587 c 0
 333 576 345 565 351 561 c 1
 424 566 463 600 541 626 c 0
 543 627 547 628 550 628 c 0
EndSplineSet
EndChar

StartChar: kSa.0001
Encoding: 132 -1 132
Width: 891
VWidth: 0
Flags: W
HStem: 79 60<317.283 485.781> 421 125<377.25 468.206> 458 149<227.328 293.952>
VStem: 75 210<202.5 280.19> 497 107<154.518 208.856> 516 88<-2 86 243 333>
AnchorPoint: "ukaara" 559 0 basechar 0
AnchorPoint: "repha" 416 516 basechar 0
AnchorPoint: "aakaara" 622 588 basechar 0
AnchorPoint: "iikaara" 622 588 basechar 0
AnchorPoint: "ekaara" 202 582 basechar 0
AnchorPoint: "bindu" 423 740 basechar 0
AnchorPoint: "virama" 423 -120 basechar 0
LayerCount: 2
Fore
SplineSet
593 619 m 0xd4
 619 619 666 589 666 568 c 0
 666 564 664 560 661 559 c 0
 584 519 531 501 470 466 c 1
 607 419 703 298 779 256 c 2
 823 232 l 1
 806 195 l 1
 763 220 l 1
 688 262 640 301 603 333 c 1
 604 213 l 1
 603 -43 l 1
 514 -2 l 1
 515 86 l 1
 486 81 454 82 430 80 c 0
 421 79 410 79 400 79 c 0
 378 79 345 79 298 105 c 0
 277 117 254 133 241 153 c 1
 214 186 201 215 198 241 c 1
 161 211 l 2
 159 209 155 208 149 208 c 0
 139 208 123 211 104 224 c 0
 92 232 75 247 75 258 c 0
 75 261 76 263 78 265 c 0
 140 318 182 362 232 406 c 1
 231 427 l 1
 247 420 l 1
 279 449 325 481 368 509 c 1
 344 523 327 538 318 546 c 1xd4
 298 544 309 508 294 465 c 0
 293 462 290 458 280 458 c 0
 276 458 270 459 264 461 c 0
 249 465 218 481 208 501 c 2
 146 622 l 1
 227 599 l 1
 234 607 241 607 258 607 c 2
 261 607 l 2xb4
 277 607 296 603 313 595 c 0
 357 576 381 550 385 546 c 1
 461 549 502 588 584 617 c 0
 586 618 590 619 593 619 c 0xd4
285 215 m 0
 285 190 296 166 317 141 c 1
 323 140 331 139 340 139 c 0
 350 139 357 139 364 140 c 0
 432 146 497 139 497 188 c 0xd8
 497 199 494 206 492 209 c 1
 480 215 426 230 376 267 c 2
 337 296 l 1
 381 314 l 1
 420 285 l 2
 425 281 463 277 516 243 c 1
 516 253 l 1
 515 385 l 1
 514 403 l 1
 493 414 470 421 439 421 c 0
 433 421 428 421 421 420 c 0
 397 418 362 390 320 352 c 1
 317 297 285 257 285 215 c 0
EndSplineSet
EndChar

StartChar: zeronojoin
Encoding: 133 8204 133
Width: 0
VWidth: 0
Flags: W
VStem: -44 88<-202 588>
LayerCount: 2
Fore
SplineSet
44 -243 m 1
 -44 -202 l 1
 -44 588 l 1
 -73 559 l 1
 -157 612 l 1
 -51 718 l 1
 -163 830 l 1
 -98 831 l 1
 -18 750 l 1
 73 841 l 1
 157 788 l 1
 51 682 l 1
 163 570 l 1
 98 569 l 1
 44 623 l 1
 44 -243 l 1
EndSplineSet
EndChar

StartChar: zerojoin
Encoding: 134 8205 134
Width: 0
VWidth: 0
Flags: W
VStem: -44 88<-202 702>
LayerCount: 2
Fore
SplineSet
44 -243 m 1
 -44 -202 l 1
 -44 743 l 1
 44 702 l 1
 44 -243 l 1
EndSplineSet
EndChar

StartChar: dottedcircle
Encoding: 135 9676 135
Width: 794
VWidth: 0
Flags: W
HStem: -17 104<367.519 443.109> -7 104<350.891 426.481> 63 104<197.519 273.109 537.519 612.266> 73 104<180.891 256.481 521.312 596.481> 233 104<117.519 193.109 617.519 692.688> 243 104<100.891 176.481 601.312 676.481> 403 104<197.519 273.109 537.519 612.688> 413 104<180.891 256.481 520.891 596.481> 483 104<367.519 443.109> 493 104<350.891 426.481>
VStem: 156 142<97.081 142.919 437.081 482.919> 326 142<17.081 62.919 517.081 562.919> 496 142<97.6101 142.042 436.953 482.39>
CounterMasks: 1 0038
AnchorPoint: "ekaara" 107 600 basechar 0
AnchorPoint: "virama" 397 -100 basechar 0
AnchorPoint: "iikaara" 687 600 basechar 0
AnchorPoint: "aakaara" 687 600 basechar 0
AnchorPoint: "repha" 397 700 basechar 0
AnchorPoint: "bindu" 397 700 basechar 0
AnchorPoint: "ukaara" 397 -100 basechar 0
LayerCount: 2
Fore
SplineSet
197 517 m 0x0138
 208 517 223 514 238 507 c 0
 299 479 298 447 298 440 c 0
 298 419 286 403 257 403 c 0x0238
 246 403 231 406 216 413 c 0
 155 441 156 473 156 480 c 0
 156 501 168 517 197 517 c 0x0138
197 177 m 0x1038
 208 177 223 174 238 167 c 0
 299 139 298 107 298 100 c 0
 298 79 286 63 257 63 c 0x2038
 246 63 231 66 216 73 c 0
 155 101 156 133 156 140 c 0
 156 161 168 177 197 177 c 0x1038
537 177 m 0x1038
 548 177 563 174 578 167 c 0
 637 140 638 108 638 100 c 0
 638 78 626 63 597 63 c 0x2038
 586 63 571 66 556 73 c 0
 496 100 496 132 496 140 c 0
 496 162 508 177 537 177 c 0x1038
537 517 m 0x0138
 548 517 563 514 578 507 c 0
 638 480 638 448 638 440 c 0
 638 418 626 403 597 403 c 0x0238
 586 403 571 406 556 413 c 0
 495 441 496 473 496 480 c 0
 496 501 508 517 537 517 c 0x0138
117 347 m 0x0438
 128 347 143 344 158 337 c 0
 219 309 218 277 218 270 c 0
 218 249 206 233 177 233 c 0x0838
 166 233 151 236 136 243 c 0
 75 271 76 303 76 310 c 0
 76 331 88 347 117 347 c 0x0438
617 347 m 0x0438
 628 347 643 344 658 337 c 0
 718 310 718 278 718 270 c 0
 718 248 706 233 677 233 c 0x0838
 666 233 651 236 636 243 c 0
 576 270 576 302 576 310 c 0
 576 332 588 347 617 347 c 0x0438
408 87 m 0x8038
 469 59 468 27 468 20 c 0
 468 -1 456 -17 427 -17 c 0x8038
 416 -17 401 -14 386 -7 c 0
 325 21 326 53 326 60 c 0
 326 81 338 97 367 97 c 0x4038
 378 97 393 94 408 87 c 0x8038
367 597 m 0x0078
 378 597 393 594 408 587 c 0
 469 559 468 527 468 520 c 0
 468 499 456 483 427 483 c 0x00b8
 416 483 401 486 386 493 c 0
 325 521 326 553 326 560 c 0
 326 581 338 597 367 597 c 0x0078
EndSplineSet
EndChar

StartChar: kya
Encoding: 136 -1 136
Width: 728
VWidth: 0
Flags: W
HStem: -63 60<236.348 433.111> 69 60<186.782 300.575> 77 52<186.108 291.083>
VStem: 312 88<139.171 452> 489 88<63.0757 215>
AnchorPoint: "virama" 327 -155 basechar 0
AnchorPoint: "ukaara" 320 -33 basechar 0
AnchorPoint: "repha" 340 550 basechar 0
AnchorPoint: "aakaara" 494 593 basechar 0
AnchorPoint: "iikaara" 494 593 basechar 0
AnchorPoint: "ekaara" 180 589 basechar 0
AnchorPoint: "bindu" 345 740 basechar 0
LayerCount: 2
Fore
SplineSet
178 132 m 1xb8
 195 131 214 129 233 129 c 0
 297 129 312 133 312 236 c 2
 312 260 l 1
 313 434 l 1
 313 452 l 1
 274 412 218 338 162 282 c 0
 160 280 155 279 149 279 c 0
 139 279 124 282 106 294 c 0
 93 302 75 318 75 329 c 0
 75 331 76 333 78 335 c 0
 138 399 168 452 226 506 c 1
 213 511 187 524 176 542 c 2
 121 627 l 1
 190 611 l 1
 194 615 198 615 205 616 c 1
 216 616 l 2
 232 616 249 612 264 606 c 0
 291 595 305 583 310 580 c 1
 324 581 334 583 344 585 c 1
 352 588 362 591 372 594 c 2
 401 603 l 1
 418 610 436 617 457 623 c 0
 459 624 462 624 465 624 c 0
 491 624 538 594 538 573 c 0
 538 568 534 565 532 564 c 0
 499 550 478 545 447 534 c 0
 433 529 409 523 396 516 c 1
 509 460 572 358 626 321 c 2
 667 293 l 1
 630 269 l 1
 590 297 l 2
 462 387 439 447 400 470 c 1
 401 394 l 1
 400 220 l 1
 400 196 l 2
 400 93 376 69 293 69 c 0xd8
 252 69 217 71 186 77 c 1
 201 21 225 9 232 6 c 0
 241 2 262 -3 290 -3 c 2
 310 -3 l 2
 436 -3 489 3 489 233 c 2
 489 256 l 1
 577 215 l 1
 577 193 l 2
 577 -53 502 -63 350 -63 c 0
 315 -63 281 -59 245 -45 c 0
 151 -9 112 57 98 112 c 1
 63 136 56 157 56 168 c 0
 56 185 64 201 92 201 c 0
 95 201 135 198 165 165 c 0
 177 152 178 144 178 136 c 2
 178 132 l 1xb8
266 541 m 1
 271 545 274 546 280 551 c 1
 278 552 278 554 274 556 c 1
 272 556 l 1
 271 555 267 550 266 541 c 1
EndSplineSet
LCarets2: 2 0 0 
Ligature2: "Letter Conjunction-1" ka virAma ya
EndChar

StartChar: khya
Encoding: 137 -1 137
Width: 782
VWidth: 0
Flags: W
HStem: -66 60<351.97 507.804> 69 60<350.118 448.575>
VStem: 175 88<85.326 133> 204 88<278.402 375.823> 309 88<362.433 438.905> 452 88<173.28 299 381 471.72> 460 88<139.171 298.437 381 471.72>
AnchorPoint: "virama" 475 -155 basechar 0
AnchorPoint: "ukaara" 468 -33 basechar 0
AnchorPoint: "repha" 372 530 basechar 0
AnchorPoint: "aakaara" 604 595 basechar 0
AnchorPoint: "iikaara" 604 595 basechar 0
AnchorPoint: "ekaara" 228 562 basechar 0
AnchorPoint: "bindu" 357 740 basechar 0
LayerCount: 2
Fore
SplineSet
309 403 m 0xea
 309 439 324 486 347 509 c 1
 315 519 289 533 279 538 c 1
 272 537 259 530 252 520 c 1
 322 474 l 1
 305 461 l 1
 315 449 l 1
 294 451 l 1
 285 442 277 434 270 426 c 1
 291 395 292 367 292 338 c 0
 292 288 282 240 266 224 c 2
 251 210 l 1
 167 263 l 1
 182 278 l 2
 190 286 204 331 204 376 c 1
 191 371 174 367 154 365 c 2
 124 361 l 1
 57 422 l 1
 86 425 l 1
 134 431 153 446 173 466 c 1
 167 474 l 1
 179 472 l 1
 193 487 l 1
 158 515 159 533 159 543 c 0
 159 572 180 598 220 598 c 0
 230 598 239 596 247 594 c 0
 324 573 299 560 342 560 c 0
 377 560 424 568 469 582 c 1
 469 584 l 1
 471 583 l 1
 505 594 538 608 564 623 c 1
 583 635 l 1
 663 578 l 1
 644 567 l 2
 618 552 588 538 555 527 c 1
 549 501 540 481 540 458 c 2
 540 426 l 2xdc
 540 353 545 304 548 220 c 1
 548 196 l 2
 548 93 524 69 441 69 c 0
 374 69 292 119 264 133 c 1
 264 132 263 131 263 127 c 0
 263 56 309 20 333 9 c 0
 348 2 373 -6 403 -6 c 0
 412 -6 422 -5 434 -3 c 0
 548 14 588 36 618 232 c 1
 621 253 l 1
 710 209 l 1
 706 188 l 1
 676 -8 627 -44 502 -63 c 0
 487 -65 476 -66 463 -66 c 0
 423 -66 378 -57 333 -36 c 0
 226 13 175 93 175 167 c 0
 175 184 181 196 203 196 c 0
 282 196 336 129 381 129 c 0
 445 129 460 133 460 236 c 2
 460 260 l 2
 460 274 459 287 458 299 c 1
 450 297 441 296 430 296 c 2
 425 296 l 2
 416 296 406 297 387 304 c 0
 363 313 319 337 312 370 c 0
 310 381 309 391 309 403 c 0xea
454 381 m 1
 453 408 452 435 452 466 c 2
 452 472 l 1
 436 459 423 451 416 434 c 0
 404 406 397 385 397 363 c 2
 397 362 l 1
 410 367 424 373 442 378 c 2
 454 381 l 1
EndSplineSet
LCarets2: 2 0 0 
Ligature2: "Letter Conjunction-1" kha virAma ya
EndChar

StartChar: gya
Encoding: 138 -1 138
Width: 794
VWidth: 0
Flags: W
HStem: -65 60<345.426 519.541> 69 60<344.118 442.575> 500 60<312.264 450.57>
VStem: 169 88<83.4863 133> 204 88<278.402 375.823> 454 88<139.171 502.141>
AnchorPoint: "virama" 469 -155 basechar 0
AnchorPoint: "ukaara" 462 -33 basechar 0
AnchorPoint: "repha" 372 530 basechar 0
AnchorPoint: "aakaara" 604 595 basechar 0
AnchorPoint: "iikaara" 604 595 basechar 0
AnchorPoint: "ekaara" 228 562 basechar 0
AnchorPoint: "bindu" 357 740 basechar 0
LayerCount: 2
Fore
SplineSet
633 244 m 1xf4
 722 200 l 1
 718 179 l 1
 688 -18 622 -47 495 -63 c 0
 483 -64 472 -65 461 -65 c 0
 419 -65 373 -57 326 -35 c 0
 220 14 169 93 169 167 c 0xf4
 169 184 175 196 197 196 c 0
 276 196 330 129 375 129 c 0
 439 129 454 133 454 236 c 2
 454 260 l 1
 451 431 l 2
 451 452 451 474 452 499 c 1
 452 503 l 1
 435 501 418 500 402 500 c 0
 350 500 294 530 279 538 c 1
 272 537 259 530 252 520 c 1
 322 474 l 1
 305 461 l 1
 315 449 l 1
 294 451 l 1
 285 442 277 434 270 426 c 1
 291 395 292 367 292 338 c 0
 292 288 282 240 266 224 c 2
 251 210 l 1
 167 263 l 1
 182 278 l 2
 190 286 204 331 204 376 c 1xec
 191 371 174 367 154 365 c 2
 124 361 l 1
 57 422 l 1
 86 425 l 1
 134 431 153 446 173 466 c 1
 167 474 l 1
 179 472 l 1
 193 487 l 1
 158 515 159 533 159 543 c 0
 159 572 180 598 220 598 c 0
 230 598 239 596 247 594 c 0
 324 573 299 560 342 560 c 0
 377 560 424 568 469 582 c 1
 469 584 l 1
 471 583 l 1
 505 594 538 608 564 623 c 1
 583 635 l 1
 663 578 l 1
 644 567 l 2
 618 552 588 538 555 527 c 1
 548 501 541 482 540 457 c 0
 539 433 539 411 539 391 c 2
 542 220 l 1
 542 196 l 2
 542 93 518 69 435 69 c 0
 368 69 286 119 258 133 c 1
 258 132 257 131 257 127 c 0
 257 56 302 22 326 11 c 0
 342 3 369 -5 401 -5 c 0
 408 -5 418 -4 429 -3 c 0
 545 11 600 28 630 223 c 1
 633 244 l 1xf4
EndSplineSet
LCarets2: 2 0 0 
Ligature2: "Letter Conjunction-1" ga virAma ya
EndChar

StartChar: ghya
Encoding: 139 -1 139
Width: 762
VWidth: 0
Flags: W
HStem: -65 60<341.012 508.516> 69 60<337.118 435.276> 236 60<379.178 433.37>
VStem: 125 88<341.684 506.852> 162 88<85.5712 133> 288 87<370.727 532.108> 446 88<138.695 236 308.598 543>
AnchorPoint: "virama" 462 -155 basechar 0
AnchorPoint: "ukaara" 454 -33 basechar 0
AnchorPoint: "repha" 381 582 basechar 0
AnchorPoint: "aakaara" 530 591 basechar 0
AnchorPoint: "iikaara" 530 591 basechar 0
AnchorPoint: "ekaara" 120 573 basechar 0
AnchorPoint: "bindu" 344 740 basechar 0
LayerCount: 2
Fore
SplineSet
446 236 m 1xee
 394 238 350 265 324 291 c 1
 306 283 283 281 262 280 c 1
 254 280 l 2
 241 280 222 281 190 297 c 0
 180 302 163 311 151 324 c 0
 139 336 135 346 134 356 c 0
 132 387 125 420 125 459 c 0xf6
 125 474 126 489 129 506 c 1
 124 510 112 518 107 529 c 2
 64 613 l 1
 100 603 l 1
 105 605 109 605 114 605 c 0
 135 605 164 589 176 581 c 1
 181 583 l 1
 189 590 201 599 222 607 c 0
 224 608 228 609 231 609 c 0
 252 609 281 590 293 578 c 1
 294 584 l 1
 296 605 l 1
 310 598 l 1
 321 605 334 606 340 610 c 2
 358 622 l 1
 440 567 l 1
 422 554 l 2
 400 539 386 544 384 533 c 0
 381 514 378 493 377 471 c 0
 377 452 376 434 375 416 c 1
 375 403 l 2
 375 361 377 322 378 313 c 1
 380 308 383 302 386 297 c 0
 387 297 389 296 392 296 c 0
 407 296 432 308 438 326 c 0
 442 340 444 357 446 376 c 1
 447 493 l 1
 446 533 l 2
 446 548 447 561 447 577 c 2
 447 589 l 2
 447 590 448 592 448 593 c 2
 448 600 l 1
 453 598 l 1
 490 619 l 1
 511 630 l 1
 590 573 l 1
 570 563 l 2
 558 556 550 550 536 543 c 1
 535 536 l 1
 535 452 l 1
 536 380 l 2
 536 362 535 346 534 330 c 1
 534 195 l 2
 534 93 511 69 428 69 c 0
 361 69 279 119 251 133 c 1
 251 132 250 131 250 127 c 0
 250 56 295 22 319 11 c 0
 336 3 363 -5 395 -5 c 0
 402 -5 409 -4 421 -3 c 0
 529 9 568 21 598 217 c 1
 601 238 l 1
 690 194 l 1
 686 173 l 1
 656 -23 606 -49 487 -63 c 0
 476 -64 466 -65 455 -65 c 0
 413 -65 366 -56 319 -34 c 0
 213 15 162 93 162 167 c 0
 162 184 168 196 190 196 c 0
 269 196 323 129 368 129 c 0
 432 129 446 133 446 235 c 2
 446 236 l 1xee
244 517 m 1
 235 510 229 503 225 491 c 0
 216 464 213 441 213 419 c 0
 213 392 217 365 220 341 c 1
 242 343 257 348 265 367 c 0
 281 407 285 439 287 473 c 0
 287 483 288 493 288 503 c 0
 288 516 289 528 290 542 c 1
 279 535 270 531 262 527 c 0
 258 524 253 520 244 517 c 1
EndSplineSet
LCarets2: 2 0 0 
Ligature2: "Letter Conjunction-1" gha virAma ya
EndChar

StartChar: cya
Encoding: 140 -1 140
Width: 606
VWidth: 0
Flags: W
HStem: -32 60<222.01 351.839> 102 59<198.467 296.252> 520 105<192.188 253.858>
VStem: 300 88<162.946 304 363 437.652>
AnchorPoint: "virama" 314 -122 basechar 0
AnchorPoint: "ukaara" 307 0 basechar 0
AnchorPoint: "repha" 330 566 basechar 0
AnchorPoint: "aakaara" 454 604 basechar 0
AnchorPoint: "iikaara" 454 604 basechar 0
AnchorPoint: "ekaara" 188 593 basechar 0
AnchorPoint: "bindu" 340 740 basechar 0
LayerCount: 2
Fore
SplineSet
303 597 m 1
 307 597 314 596 317 599 c 1
 318 598 l 1
 331 600 343 606 352 610 c 1
 376 617 389 624 417 633 c 0
 418 633 420 634 423 634 c 0
 433 634 453 630 474 615 c 0
 485 607 499 593 499 583 c 0
 499 580 497 578 494 576 c 0
 479 568 462 562 446 557 c 2
 430 551 l 2
 424 549 419 546 414 545 c 1
 407 541 399 535 399 524 c 1
 390 434 387 379 387 297 c 1
 388 220 l 1
 388 197 l 2
 388 122 375 101 324 101 c 0
 311 101 297 102 280 102 c 0
 246 102 205 116 166 142 c 1
 175 66 216 36 220 34 c 0
 224 32 235 28 253 28 c 0
 258 28 263 29 273 30 c 0
 380 45 412 57 442 253 c 1
 445 274 l 1
 534 230 l 1
 530 209 l 1
 500 13 459 -13 341 -30 c 0
 331 -31 323 -32 313 -32 c 0
 285 -32 255 -27 222 -12 c 0
 111 37 80 123 76 200 c 1
 76 206 l 2
 76 210 75 214 75 218 c 0
 75 226 78 232 95 232 c 0
 182 232 173 162 220 162 c 0
 240 162 254 161 264 161 c 2
 265 161 l 2
 290 161 300 161 300 237 c 2
 300 260 l 1
 299 304 l 1
 297 306 l 1
 269 328 255 345 253 346 c 1
 253 346 253 345 252 346 c 0
 230 355 210 353 150 366 c 0
 145 367 128 371 110 384 c 0
 99 392 85 406 85 416 c 0
 85 419 87 421 90 423 c 0
 146 454 182 466 230 502 c 0
 256 521 267 538 285 560 c 1
 282 561 280 563 279 564 c 1
 272 561 268 542 254 525 c 0
 251 522 246 520 241 520 c 0
 228 520 209 528 198 535 c 0
 178 547 171 558 169 562 c 2
 131 633 l 1
 192 616 l 1
 196 620 200 623 213 625 c 1
 223 625 l 2
 249 625 285 608 303 597 c 1
299 363 m 1
 299 389 300 414 301 438 c 1
 276 421 255 409 233 399 c 1
 251 391 270 382 280 376 c 2
 299 363 l 1
EndSplineSet
LCarets2: 2 0 0 
Ligature2: "Letter Conjunction-1" ca virAma ya
EndChar

StartChar: chya
Encoding: 141 -1 141
Width: 682
VWidth: 0
Flags: W
HStem: -3 59<221.01 385.643> 129 60<194.015 283.575> 327 60<177.641 248.254 401.234 500.157> 443 60<183.669 273.717 432.232 517> 527 104<239.779 293.216>
VStem: 89 88<388.966 468> 295 88<199.171 337> 518 88<406.626 442>
AnchorPoint: "virama" 310 -95 basechar 0
AnchorPoint: "ukaara" 303 27 basechar 0
AnchorPoint: "repha" 344 582 basechar 0
AnchorPoint: "aakaara" 452 607 basechar 0
AnchorPoint: "iikaara" 452 607 basechar 0
AnchorPoint: "ekaara" 241 598 basechar 0
AnchorPoint: "bindu" 343 740 basechar 0
LayerCount: 2
Fore
SplineSet
490 283 m 1
 579 239 l 1
 575 218 l 1
 545 20 459 7 336 -3 c 1
 333 -3 l 2
 332 -3 324 -4 317 -4 c 0
 287 -4 256 1 221 17 c 0
 111 67 79 149 76 227 c 1
 76 234 l 2
 76 237 75 242 75 245 c 0
 75 253 78 259 95 259 c 0
 181 259 170 189 216 189 c 0
 280 189 295 193 295 296 c 2
 295 320 l 1
 294 337 l 1
 281 332 267 329 250 327 c 1
 247 327 l 2
 246 327 246 326 236 326 c 0
 217 326 187 331 153 352 c 0
 141 359 129 369 120 379 c 0
 96 403 89 425 89 446 c 0
 89 490 142 502 188 504 c 1
 194 504 l 2
 208 504 226 502 250 492 c 0
 270 484 283 476 291 471 c 1
 291 487 293 506 294 527 c 1
 258 529 228 555 221 569 c 2
 184 638 l 1
 239 622 l 1
 241 624 251 631 267 631 c 0
 278 631 298 627 322 613 c 1
 348 616 369 624 402 633 c 2
 416 637 l 1
 422 637 l 2
 432 637 451 633 472 618 c 0
 483 610 497 596 497 586 c 0
 497 583 495 581 492 579 c 0
 444 552 389 551 386 524 c 0
 385 512 384 502 383 492 c 1
 402 498 423 503 446 503 c 0
 470 503 496 499 527 485 c 0
 539 480 549 473 557 468 c 0
 597 441 606 416 606 399 c 0
 606 341 532 329 476 327 c 1
 471 327 l 2
 453 327 433 332 412 342 c 0
 398 349 388 356 380 362 c 1
 381 342 382 316 383 280 c 1
 383 256 l 2
 383 153 359 129 276 129 c 0
 244 129 203 142 166 167 c 1
 175 92 215 65 219 63 c 0
 224 61 237 56 257 56 c 0
 258 56 261 57 272 57 c 0
 389 67 457 69 487 262 c 1
 490 283 l 1
280 429 m 1
 267 437 260 441 257 443 c 1
 255 443 255 444 254 444 c 2
 251 444 l 1
 212 442 177 430 177 406 c 0
 177 398 179 392 181 387 c 1
 183 387 l 1
 224 393 253 410 280 429 c 1
401 402 m 1
 406 398 411 393 417 388 c 1
 465 390 518 403 518 439 c 0
 518 440 517 440 517 442 c 1
 514 442 511 443 506 443 c 0
 501 443 496 443 492 442 c 0
 456 436 428 421 401 402 c 1
EndSplineSet
LCarets2: 2 0 0 
Ligature2: "Letter Conjunction-1" cha virAma ya
EndChar

StartChar: jya
Encoding: 142 -1 142
Width: 667
VWidth: 0
Flags: W
HStem: -63 60<227.205 404.14> 69 60<205.161 295.575>
VStem: 307 88<139.171 302.967>
AnchorPoint: "virama" 322 -155 basechar 0
AnchorPoint: "ukaara" 315 -33 basechar 0
AnchorPoint: "repha" 320 544 basechar 0
AnchorPoint: "aakaara" 548 467 basechar 0
AnchorPoint: "iikaara" 514 591 basechar 0
AnchorPoint: "ekaara" 167 577 basechar 0
AnchorPoint: "bindu" 334 740 basechar 0
LayerCount: 2
Fore
SplineSet
316 577 m 1
 351 583 368 605 398 620 c 0
 400 621 403 621 407 621 c 0
 413 621 422 620 432 616 c 1
 447 619 464 620 482 621 c 2
 512 624 l 1
 577 563 l 1
 546 561 l 2
 491 557 474 558 474 534 c 0
 474 532 475 532 475 531 c 0
 476 524 491 513 543 492 c 2
 587 474 l 1
 597 425 l 1
 553 442 l 2
 528 452 454 482 413 522 c 1
 345 478 l 1
 358 471 373 464 390 453 c 0
 444 419 471 395 510 367 c 2
 549 339 l 1
 508 318 l 1
 468 347 l 2
 421 381 402 398 362 423 c 0
 347 433 335 438 304 453 c 1
 205 398 l 1
 214 395 225 390 239 383 c 0
 281 363 330 342 379 299 c 0
 387 292 395 282 395 274 c 2
 395 196 l 2
 395 93 371 69 288 69 c 0
 252 69 208 85 171 110 c 1
 179 35 218 8 225 5 c 0
 232 2 248 -3 272 -3 c 2
 284 -3 l 1
 395 4 458 -3 488 190 c 1
 491 211 l 1
 580 167 l 1
 576 146 l 1
 546 -52 464 -56 347 -63 c 1
 332 -63 l 2
 299 -63 265 -58 227 -41 c 0
 120 7 85 87 82 164 c 1
 82 170 l 2
 82 173 81 175 81 178 c 0
 81 188 83 196 102 196 c 0
 189 196 181 129 228 129 c 0
 292 129 307 133 307 236 c 2
 307 302 l 1
 291 313 271 322 236 339 c 0
 205 354 183 358 130 376 c 0
 99 387 81 407 77 417 c 0
 76 419 75 421 75 423 c 0
 75 428 79 429 80 430 c 2
 227 511 l 1
 108 593 l 1
 146 617 l 1
 207 574 l 1
 210 589 226 599 254 599 c 0
 258 599 284 597 316 577 c 1
EndSplineSet
LCarets2: 2 0 0 
Ligature2: "Letter Conjunction-1" ja virAma ya
EndChar

StartChar: jhya
Encoding: 143 -1 143
Width: 624
VWidth: 0
Flags: W
HStem: -65 60<197.145 338.456> 69 60<175.739 252.947> 419 50<356 379.579>
VStem: 265 88<140.774 250.422 327 419 462.314 532.947>
AnchorPoint: "virama" 280 -155 basechar 0
AnchorPoint: "ukaara" 273 -33 basechar 0
AnchorPoint: "repha" 284 564 basechar 0
AnchorPoint: "aakaara" 505 487 basechar 0
AnchorPoint: "ekaara" 187 589 basechar 0
AnchorPoint: "iikaara" 403 589 basechar 0
AnchorPoint: "bindu" 334 740 basechar 0
LayerCount: 2
Fore
SplineSet
374 619 m 2
 400 619 447 592 447 569 c 0
 447 565 445 562 443 561 c 0
 401 536 358 537 357 514 c 2
 356 469 l 1
 363 467 371 464 380 460 c 1
 382 517 458 515 472 517 c 2
 501 521 l 1
 568 460 l 1
 538 457 l 2
 517 455 468 455 468 418 c 0
 468 413 469 407 470 404 c 1
 474 401 491 388 502 372 c 0
 503 370 511 356 501 351 c 0
 499 350 496 350 492 350 c 0
 481 350 462 354 441 369 c 0
 401 398 396 406 384 413 c 0
 383 413 376 414 354 419 c 1
 354 396 l 1
 355 292 l 2
 355 275 349 263 327 263 c 2
 319 263 l 1
 341 240 l 2
 351 230 353 223 353 220 c 2
 353 196 l 2
 353 97 332 69 257 69 c 2
 245 69 l 2
 226 69 205 75 184 86 c 0
 172 92 168 97 165 99 c 1
 168 42 188 7 197 -2 c 1
 200 -3 209 -5 218 -5 c 0
 224 -5 232 -4 240 -3 c 0
 347 9 388 3 418 196 c 1
 421 217 l 1
 510 173 l 1
 506 152 l 1
 476 -43 418 -51 306 -63 c 0
 298 -64 290 -65 278 -65 c 0
 253 -65 218 -61 177 -37 c 0
 160 -27 144 -14 131 -1 c 0
 91 40 78 83 76 143 c 0
 76 156 78 173 107 173 c 0
 108 173 129 169 129 169 c 1
 170 157 196 129 197 129 c 0
 248 129 265 137 265 236 c 2
 265 252 l 1
 180 337 l 2
 175 342 164 353 168 361 c 0
 169 364 175 367 183 367 c 0
 209 367 250 336 266 327 c 1
 266 328 267 329 267 332 c 2
 266 436 l 2
 266 454 265 474 265 501 c 0
 265 515 265 530 266 548 c 1
 264 541 259 532 253 521 c 0
 251 518 245 512 225 518 c 0
 210 522 179 538 168 558 c 2
 130 629 l 1
 185 614 l 1
 188 617 197 619 202 619 c 0
 207 620 208 620 210 620 c 0
 232 620 263 602 273 595 c 1
 303 599 336 610 367 619 c 1
 374 619 l 2
EndSplineSet
LCarets2: 2 0 0 
Ligature2: "Letter Conjunction-1" jha virAma ya
EndChar

StartChar: Jya
Encoding: 144 -1 144
Width: 685
VWidth: 0
Flags: W
HStem: -64 60<252.421 411.053> 69 60<237.518 316.521> 415 50<417 439.625> 570 60<171.622 223.834>
VStem: 110 88<64.7988 120> 328 88<141.391 250.234 324.001 415 457.843 530.501>
AnchorPoint: "virama" 343 -155 basechar 0
AnchorPoint: "ukaara" 336 -33 basechar 0
AnchorPoint: "repha" 345 560 basechar 0
AnchorPoint: "aakaara" 566 483 basechar 0
AnchorPoint: "ekaara" 120 569 basechar 0
AnchorPoint: "iikaara" 464 586 basechar 0
AnchorPoint: "bindu" 362 740 basechar 0
LayerCount: 2
Fore
SplineSet
435 616 m 2
 461 616 508 589 508 566 c 0
 508 562 506 559 504 558 c 0
 462 533 419 534 418 511 c 2
 417 465 l 1
 424 463 432 460 440 457 c 1
 443 513 520 512 533 513 c 2
 562 517 l 1
 629 456 l 1
 599 453 l 2
 578 451 528 451 528 414 c 0
 528 410 529 405 530 402 c 1
 540 396 567 370 567 356 c 0
 567 353 566 350 562 348 c 0
 560 347 557 347 553 347 c 0
 542 347 523 351 502 366 c 0
 463 394 458 403 445 410 c 0
 443 411 435 411 416 415 c 1
 416 288 l 2
 416 271 410 259 388 259 c 2
 385 259 l 1
 403 242 l 2
 414 232 416 224 416 220 c 2
 416 196 l 2
 416 90 391 69 309 69 c 0
 290 69 268 75 246 86 c 0
 218 100 204 115 198 120 c 1
 198 66 220 29 235 14 c 0
 243 5 253 -4 291 -4 c 0
 292 -4 299 -3 306 -3 c 0
 307 -3 308 -3 309 -3 c 0
 407 -3 449 -2 478 190 c 1
 481 211 l 1
 570 167 l 1
 566 146 l 1
 536 -48 481 -63 366 -63 c 0
 365 -63 363 -64 351 -64 c 0
 300 -64 224 -42 169 14 c 0
 127 57 110 104 110 162 c 0
 110 175 112 193 142 193 c 0
 148 193 156 192 160 191 c 0
 209 173 243 141 255 129 c 1
 312 130 328 134 328 236 c 2
 328 251 l 1
 242 332 l 1
 237 336 228 346 228 354 c 0
 228 359 232 364 244 364 c 0
 270 364 310 335 327 324 c 1
 327 324 328 325 328 328 c 2
 328 486 l 1
 329 542 l 1
 326 544 325 544 322 546 c 1
 320 540 319 529 315 518 c 1
 315 518 313 511 299 512 c 0
 286 513 257 522 237 544 c 0
 229 552 223 561 219 565 c 0
 218 566 211 570 208 570 c 2
 202 570 l 2
 195 570 185 556 160 541 c 2
 141 529 l 1
 61 586 l 1
 80 597 l 2
 97 607 102 630 142 630 c 2
 148 630 l 2
 164 630 181 627 196 621 c 0
 216 614 229 605 237 600 c 1
 242 608 249 613 265 613 c 0
 288 613 316 598 327 591 c 1
 361 594 385 607 428 616 c 1
 435 616 l 2
EndSplineSet
LCarets2: 2 0 0 
Ligature2: "Letter Conjunction-1" Ja virAma ya
EndChar

StartChar: Tya
Encoding: 145 -1 145
Width: 664
VWidth: 0
Flags: W
HStem: -25 60<240.01 398.436> 107 60<208.407 315.767> 251 60<198.35 348.797> 491 121<181.372 239.395>
VStem: 78 88<336.625 396>
AnchorPoint: "virama" 325 -117 basechar 0
AnchorPoint: "ukaara" 318 5 basechar 0
AnchorPoint: "repha" 326 559 basechar 0
AnchorPoint: "aakaara" 544 467 basechar 0
AnchorPoint: "iikaara" 510 591 basechar 0
AnchorPoint: "ekaara" 157 591 basechar 0
AnchorPoint: "bindu" 331 740 basechar 0
LayerCount: 2
Fore
SplineSet
508 624 m 1
 573 563 l 1
 542 561 l 2
 488 557 471 557 471 534 c 0
 471 532 472 532 472 531 c 0
 474 523 488 513 539 492 c 2
 583 474 l 1
 593 425 l 1
 549 442 l 1
 526 452 461 478 419 513 c 1
 406 499 410 496 410 492 c 0
 410 482 406 476 387 462 c 0
 320 415 241 428 200 395 c 1
 176 377 166 358 166 345 c 0
 166 340 168 335 169 333 c 0
 186 320 200 311 241 311 c 0
 271 311 310 318 360 335 c 0
 362 336 364 336 368 336 c 0
 374 336 384 335 398 329 c 0
 414 321 442 302 442 286 c 2
 442 269 l 2
 442 157 411 107 295 107 c 2
 291 107 l 2
 269 107 241 112 210 128 c 0
 206 130 204 132 193 138 c 1
 202 64 239 41 239 41 c 1
 243 39 256 35 276 35 c 2
 287 35 l 1
 391 42 439 32 469 226 c 1
 472 247 l 1
 561 203 l 1
 557 182 l 1
 527 -15 460 -18 350 -25 c 1
 336 -25 l 2
 307 -25 275 -20 240 -4 c 0
 133 44 106 123 103 200 c 1
 103 209 l 2
 103 212 101 218 101 222 c 0
 101 228 104 233 120 233 c 0
 168 233 204 179 219 169 c 0
 220 169 225 167 231 167 c 2
 235 167 l 2
 310 167 340 190 350 255 c 1
 331 252 316 251 301 251 c 0
 242 251 178 274 120 318 c 1
 85 346 78 368 78 385 c 0
 78 407 92 429 118 449 c 0
 171 491 248 478 305 518 c 0
 316 526 320 529 321 531 c 1
 298 535 281 543 266 551 c 1
 252 549 243 536 237 499 c 0
 236 493 231 491 224 491 c 0
 214 491 199 495 189 500 c 0
 165 512 154 527 151 533 c 2
 101 631 l 1
 181 608 l 1
 189 613 193 612 210 612 c 2
 211 612 l 2
 213 612 215 612 217 612 c 0
 224 612 233 611 248 606 c 0
 257 603 268 598 280 590 c 0
 281 590 283 589 289 589 c 2
 296 589 l 1
 361 591 337 591 395 620 c 0
 397 621 400 621 404 621 c 0
 410 621 418 620 428 616 c 1
 443 619 460 620 478 621 c 2
 508 624 l 1
EndSplineSet
LCarets2: 2 0 0 
Ligature2: "Letter Conjunction-1" Ta virAma ya
EndChar

StartChar: Thya
Encoding: 146 -1 146
Width: 676
VWidth: 0
Flags: W
HStem: -28 60<224.263 384.31> 104 60<190.717 279.521> 245 60<198.772 291 379 466.059>
VStem: 76 88<334.526 432.664> 291 88<176.391 245> 513 88<341.437 417.927>
AnchorPoint: "virama" 306 -120 basechar 0
AnchorPoint: "ukaara" 299 2 basechar 0
AnchorPoint: "aakaara" 517 562 basechar 0
AnchorPoint: "repha" 354 591 basechar 0
AnchorPoint: "iikaara" 354 591 basechar 0
AnchorPoint: "ekaara" 305 557 basechar 0
AnchorPoint: "bindu" 335 740 basechar 0
LayerCount: 2
Fore
SplineSet
357 535 m 1
 264 478 164 478 164 354 c 0
 164 337 171 327 173 324 c 1
 188 317 240 309 291 306 c 1
 291 318 l 1
 319 305 l 1
 331 305 l 2
 420 305 509 323 513 382 c 1
 513 387 l 2
 513 401 510 412 507 422 c 0
 487 479 423 511 359 534 c 1
 357 535 l 1
396 564 m 1
 494 520 601 440 601 347 c 2
 601 340 l 1
 596 260 486 245 391 245 c 2
 379 245 l 1
 379 231 l 2
 379 125 354 104 272 104 c 0
 241 104 198 119 174 135 c 1
 181 90 199 59 212 46 c 0
 218 40 222 32 259 32 c 2
 268 32 l 1
 374 37 425 31 455 223 c 1
 458 244 l 1
 547 200 l 1
 543 179 l 1
 513 -16 444 -23 330 -28 c 1
 319 -28 l 2
 269 -28 197 -6 146 46 c 0
 102 91 86 140 83 203 c 1
 83 211 l 2
 83 214 79 220 79 225 c 0
 79 230 83 235 100 235 c 0
 132 235 168 202 169 201 c 0
 185 185 193 172 201 166 c 0
 202 166 205 164 212 164 c 0
 270 164 288 167 291 248 c 1
 241 252 183 264 130 303 c 0
 122 309 113 318 105 326 c 0
 83 350 76 370 76 394 c 0
 76 543 210 541 295 604 c 0
 300 608 306 612 312 618 c 2
 327 632 l 1
 411 578 l 1
 396 564 l 1
EndSplineSet
LCarets2: 2 0 0 
Ligature2: "Letter Conjunction-1" Tha virAma ya
EndChar

StartChar: Dya
Encoding: 147 -1 147
Width: 597
VWidth: 0
Flags: W
HStem: -66 60<205.096 309.32> 69 60<170.17 257.54> 495 112<149.138 205.904>
VStem: 269 88<139.171 238.811> 277 89<289.625 406>
AnchorPoint: "virama" 284 -155 basechar 0
AnchorPoint: "ukaara" 277 -33 basechar 0
AnchorPoint: "repha" 268 548 basechar 0
AnchorPoint: "aakaara" 419 593 basechar 0
AnchorPoint: "iikaara" 419 593 basechar 0
AnchorPoint: "ekaara" 131 584 basechar 0
AnchorPoint: "bindu" 298 740 basechar 0
LayerCount: 2
Fore
SplineSet
204 366 m 0xe8
 178 366 130 398 130 417 c 0
 130 421 131 424 133 425 c 0
 180 458 207 472 250 506 c 1
 269 522 l 1
 244 530 230 540 225 543 c 1
 218 536 217 518 206 501 c 0
 204 497 199 495 193 495 c 0
 180 495 163 503 152 509 c 0
 131 521 123 534 121 537 c 2
 74 624 l 1
 149 603 l 1
 152 606 152 605 160 607 c 1
 163 607 l 2
 164 607 160 608 172 608 c 0
 192 608 226 594 247 579 c 1
 293 584 324 604 382 622 c 0
 383 622 385 623 388 623 c 0
 397 623 414 620 435 607 c 0
 447 599 464 584 464 573 c 0
 464 570 463 568 461 566 c 2
 357 472 l 1xf0
 365 458 367 449 367 432 c 0
 367 425 366 416 366 405 c 2
 366 374 l 1xe8
 362 269 371 256 347 239 c 1
 350 235 357 229 357 220 c 2
 357 196 l 2
 357 93 333 69 250 69 c 0
 229 69 201 74 167 92 c 1
 173 43 195 5 205 -4 c 0
 207 -5 212 -6 219 -6 c 0
 225 -6 231 -5 242 -3 c 0
 360 23 403 43 433 238 c 1
 436 259 l 1
 525 215 l 1
 521 194 l 1
 491 -3 437 -35 312 -63 c 0
 299 -66 290 -66 279 -66 c 0
 258 -66 234 -62 206 -50 c 0
 98 -2 79 83 76 158 c 1
 76 171 l 2
 76 174 73 179 73 183 c 0
 73 188 77 191 92 191 c 0
 141 191 172 139 181 130 c 1
 184 130 187 129 190 129 c 0
 254 129 269 134 269 235 c 1xf0
 250 242 231 253 217 262 c 0
 186 280 169 293 167 294 c 0
 148 307 143 318 143 325 c 0
 143 333 149 335 157 335 c 0
 169 335 184 329 190 326 c 0
 218 312 234 300 244 293 c 0
 246 292 247 290 252 288 c 1
 253 288 l 1
 283 303 274 290 277 406 c 1
 214 369 l 2
 211 367 208 366 204 366 c 0xe8
EndSplineSet
LCarets2: 2 0 0 
Ligature2: "Letter Conjunction-1" Da virAma ya
EndChar

StartChar: Dhya
Encoding: 148 -1 148
Width: 746
VWidth: 0
Flags: W
HStem: -34 60<341.316 508.087> 99 60<334.819 433.605> 254 46<399.458 445> 552 60<319.844 355.827>
VStem: 160 88<112.795 208.758> 445 88<171.391 242.545> 582 88<141.145 215 299.582 370.263>
AnchorPoint: "virama" 460 -125 basechar 0
AnchorPoint: "ukaara" 453 -3 basechar 0
AnchorPoint: "repha" 390 559 basechar 0
AnchorPoint: "aakaara" 530 595 basechar 0
AnchorPoint: "iikaara" 530 595 basechar 0
AnchorPoint: "ekaara" 228 587 basechar 0
AnchorPoint: "bindu" 366 740 basechar 0
LayerCount: 2
Fore
SplineSet
670 320 m 0
 670 276 634 258 596 249 c 1
 671 212 l 1
 667 191 l 1
 637 -2 599 -22 486 -33 c 0
 478 -34 467 -34 458 -34 c 0
 388 -34 287 -6 218 65 c 0
 178 105 160 149 160 197 c 0
 160 211 163 226 188 226 c 0
 265 226 320 159 366 159 c 0
 426 159 444 162 445 254 c 1
 412 266 384 283 377 286 c 0
 307 316 316 323 303 327 c 0
 253 341 217 339 143 350 c 0
 135 351 117 356 97 371 c 0
 87 379 75 392 75 401 c 0
 75 405 77 407 82 409 c 0
 183 448 244 460 336 509 c 0
 352 517 366 526 379 535 c 1
 368 541 353 546 345 551 c 0
 344 551 341 552 334 552 c 2
 329 552 l 1
 325 551 324 533 309 510 c 0
 308 509 305 502 288 505 c 0
 274 508 242 521 227 542 c 2
 168 624 l 1
 245 610 l 1
 246 608 l 1
 251 614 254 611 267 612 c 1
 274 612 l 2
 297 612 317 608 336 600 c 0
 348 595 354 591 358 589 c 1
 359 589 l 1
 410 592 438 611 494 625 c 0
 496 626 499 626 501 626 c 0
 527 626 574 597 574 575 c 0
 574 571 573 568 571 567 c 0
 512 523 485 490 416 453 c 0
 357 422 309 404 259 387 c 1
 266 385 271 384 275 383 c 0
 327 368 356 341 371 334 c 0
 439 306 426 301 445 300 c 1
 445 313 l 1
 471 301 l 1
 525 305 569 314 580 349 c 0
 581 355 582 357 582 360 c 0
 582 365 581 368 580 370 c 0
 577 380 574 382 547 392 c 1
 534 390 513 368 484 357 c 2
 461 348 l 1
 385 406 l 1
 408 415 l 2
 431 424 444 453 489 453 c 0
 495 453 506 452 527 445 c 0
 571 430 649 390 667 341 c 0
 669 335 670 328 670 320 c 0
581 246 m 1
 565 243 549 242 533 241 c 1
 533 226 l 2
 533 120 508 99 426 99 c 0
 356 99 271 152 249 163 c 1
 248 160 248 159 248 157 c 0
 248 114 267 82 284 65 c 0
 303 45 339 26 398 26 c 0
 407 26 414 26 420 27 c 0
 522 37 549 41 579 235 c 1
 581 246 l 1
EndSplineSet
Ligature2: "Letter Conjunction-1" Dha virAma ya
EndChar

StartChar: Nya
Encoding: 149 -1 149
Width: 726
VWidth: 0
Flags: W
HStem: -64 60<272.955 425.383> 69 60<249.173 341.825>
VStem: 76 88<302.974 470.034> 231 89<387.753 501.469> 353 88<141.391 312.644 381 503 576 601.15> 464 88<374.967 503.044>
AnchorPoint: "virama" 368 -155 basechar 0
AnchorPoint: "ukaara" 361 -33 basechar 0
AnchorPoint: "repha" 393 595 basechar 0
AnchorPoint: "aakaara" 606 332 basechar 0
AnchorPoint: "iikaara" 548 589 basechar 0
AnchorPoint: "ekaara" 141 490 basechar 0
AnchorPoint: "bindu" 403 740 basechar 0
LayerCount: 2
Fore
SplineSet
362 625 m 0
 397 625 438 591 438 576 c 1
 469 592 481 618 517 619 c 1
 518 619 l 2
 541 619 569 601 580 590 c 0
 595 575 593 567 592 565 c 0
 570 513 552 470 552 420 c 0
 552 405 554 388 557 374 c 1
 572 369 592 363 616 349 c 2
 660 324 l 1
 639 290 l 1
 596 315 l 2
 582 322 546 328 512 351 c 1
 471 380 464 405 464 460 c 0
 464 474 464 489 467 504 c 1
 464 504 458 503 450 503 c 0
 448 503 446 502 438 503 c 1
 441 242 l 1
 441 196 l 2
 441 90 416 69 334 69 c 0
 291 69 246 89 214 111 c 1
 219 63 239 29 254 14 c 0
 263 5 272 -4 310 -4 c 0
 318 -4 322 -4 327 -3 c 0
 439 9 488 15 518 208 c 1
 521 229 l 1
 610 185 l 1
 606 164 l 1
 576 -31 514 -51 395 -63 c 0
 388 -64 378 -64 370 -64 c 0
 317 -64 241 -40 188 14 c 0
 145 58 128 106 125 164 c 1
 125 170 l 2
 125 173 124 178 124 182 c 0
 124 190 127 196 145 196 c 0
 229 196 228 129 274 129 c 0
 337 129 353 132 353 236 c 2
 353 259 l 2
 353 261 351 285 345 314 c 1
 322 304 296 290 295 289 c 0
 294 288 291 287 285 287 c 0
 278 287 268 288 255 294 c 0
 239 302 211 321 211 337 c 0
 211 360 231 427 231 481 c 0
 231 487 230 495 229 502 c 1
 207 497 189 486 185 467 c 0
 175 424 164 385 164 350 c 0
 164 316 175 286 199 255 c 2
 222 225 l 1
 147 235 l 1
 123 265 l 2
 86 312 76 352 76 390 c 0
 76 430 87 470 97 513 c 0
 106 551 149 565 196 565 c 0
 209 565 226 563 246 554 c 0
 313 524 320 484 320 459 c 0
 320 451 319 446 319 441 c 0
 319 423 317 403 315 387 c 1
 322 387 l 2
 331 387 343 384 351 381 c 1
 349 615 l 2
 349 622 354 625 362 625 c 0
EndSplineSet
LCarets2: 2 0 0 
Ligature2: "Letter Conjunction-1" Na virAma ya
EndChar

StartChar: tya
Encoding: 150 -1 150
Width: 574
VWidth: 0
Flags: W
HStem: -30 60<189.236 344.802> 102 60<166.788 249.575> 503 114<141.281 194.908>
VStem: 261 88<172.171 404>
AnchorPoint: "virama" 276 -122 basechar 0
AnchorPoint: "ukaara" 269 0 basechar 0
AnchorPoint: "repha" 285 562 basechar 0
AnchorPoint: "aakaara" 420 598 basechar 0
AnchorPoint: "iikaara" 420 598 basechar 0
AnchorPoint: "ekaara" 130 589 basechar 0
AnchorPoint: "bindu" 264 740 basechar 0
LayerCount: 2
Fore
SplineSet
92 351 m 0
 105 362 122 383 134 399 c 0
228 556 m 1
 222 555 219 553 217 545 c 1
 220 549 224 552 228 556 c 1
141 611 m 1
 147 616 153 617 171 617 c 0
 203 617 248 593 249 593 c 2
 249 593 250 592 252 592 c 2
 254 592 l 2
 262 592 271 594 280 596 c 1
 298 605 320 610 340 614 c 1
 352 618 366 623 384 628 c 0
 386 628 388 628 390 628 c 0
 401 628 421 623 442 607 c 0
 452 599 465 586 465 577 c 0
 465 573 462 571 458 569 c 0
 443 563 428 559 414 555 c 2
 385 545 l 2
 375 542 365 539 355 537 c 0
 350 535 346 532 340 528 c 1
 345 520 347 515 347 508 c 2
 349 253 l 1
 349 229 l 2
 349 126 325 102 242 102 c 0
 221 102 198 104 166 118 c 1
 169 74 183 44 190 36 c 1
 197 34 215 30 239 30 c 0
 341 30 381 36 411 232 c 1
 414 253 l 1
 503 209 l 1
 499 188 l 1
 469 -8 418 -30 299 -30 c 0
 267 -30 233 -28 190 -9 c 0
 180 -4 171 0 163 5 c 0
 91 50 80 101 77 164 c 0
 77 173 76 178 76 183 c 0
 76 185 75 188 75 191 c 0
 75 196 77 202 92 202 c 0
 122 202 146 180 164 164 c 1
 168 163 175 162 182 162 c 0
 246 162 261 166 261 269 c 2
 261 293 l 1
 260 404 l 1
 239 373 218 345 199 322 c 0
 191 312 183 303 176 297 c 0
 173 294 169 293 164 293 c 0
 150 293 130 303 119 310 c 0
 96 325 90 338 90 345 c 0
 90 347 90 349 91 350 c 0
 169 448 187 483 195 503 c 1
 180 503 163 511 155 515 c 0
 134 527 125 540 123 543 c 2
 72 628 l 1
 141 611 l 1
EndSplineSet
LCarets2: 2 0 0 
Ligature2: "Letter Conjunction-1" ta virAma ya
EndChar

